<mxfile host="app.diagrams.net" modified="2024-01-24T02:32:31.296Z" agent="Mozilla/5.0 (Windows NT 10.0; Win64; x64) AppleWebKit/537.36 (KHTML, like Gecko) Chrome/120.0.0.0 Safari/537.36" etag="pBhWh1L1zWZTe_1yI6CR" version="22.1.22" type="google">
  <diagram name="PÃ¡gina-1" id="Iuy75DPS-yzHSTiu8st5">
    <mxGraphModel grid="1" page="1" gridSize="10" guides="1" tooltips="1" connect="1" arrows="1" fold="1" pageScale="1" pageWidth="827" pageHeight="1169" math="0" shadow="0">
      <root>
        <mxCell id="0" />
        <mxCell id="1" parent="0" />
        <mxCell id="KEVvODekhNoehom56Cam-1" value="" style="shape=image;verticalLabelPosition=bottom;labelBackgroundColor=default;verticalAlign=top;aspect=fixed;imageAspect=0;image=data:image/png,iVBORw0KGgoAAAANSUhEUgAAA80AAAKJCAYAAACBCMs7AAAAAXNSR0IArs4c6QAAIABJREFUeF7s3Xt0VdW99/9vuAQCJECiQAISwCAqEqAXQ/FUsLTq0yJtT02F9Dn0oeaYY2ugngcCBPBGD3e1DYoNI21OaYtYxvMbPUgt2tKKFyT2VEy4KCWKgAS5JUCQcE1+Y6527rP2zk6y9m3ttdZ+7zEchuy15vzO11z547PnXGsntbS0tFy92iwnTp2WCxcvSXNzi/BCwIkCnTolSfduyXJtRh/p3LmTE0ukJgQQQAABBBBAAAEEEPCYQNKVq1dbTpw8I92Su0hyt2S5dOmKXCU4e2ya3T+czp2SJDm5i1y8eMm4Rvtd00dUiOaFAAIIIIAAAggggAACCMRSIOnYiYYWtWrXuXMXuXK1OZZ90TYCEQt06dxJrl69YuyIuDajd8Tt0QACCCCAAAIIIIAAAggg0J5A0keHP2npd01f+bTpkt9xly9flSOfHJNz55rk8pWrUVXs2qWzpKb2kKz+/aRr185RbZvGvC/QIyVZTpxskOxB/b0/WEaIAAIIIIAAAggggAACcRVI+uCjupa+fXuLuq9Zv1RIPvrJCemd2kOuy+pnbIuN5kttrz1Ud1zONp6XrMxrpUtngnM0fb3eltoZ0dBwRoZlZ3p9qIwPAQQQQAABBBBAAAEE4ixghOa0tFS/Mj6uOy5qNe+GYYNiWt6+Dz42Hj42MLNfTPuhce8JnD3bSGj23rQyIgQQQAABBBBAAAEEHCcQNDTv3XdA8j5zo3RL7hrTglVgfnvnPrl5xNCY9kPj3hMgNHtvThkRAggggAACCCCAAAJOFAgamnfu+pt85fbP2FLvH157R8aOusGWvujEOwKEZu/MJSNBAAEEEEAAAQQQQMDJAhGH5sOHD8vvf/97aWpqMsbZo0cP+epXvyoDBw60NG5CsyUmDgoQIDRzSSCAAAIIIIAAAggggIAdAmGH5i1btsjPf/5z+etf/xq0zs9//vPygx/8QL74xS+2Ow5Csx3T7L0+CM3em1NGhAACCCCAAAIIIICAEwVCDs2nTp2ShQsXyiuvvOIbz6hRo2T06NHGv3fu3Cl79uzxvfeNb3xDHnvsMUlN9X/YmD6A0OzEy8L5NRGanT9HVIgAAggggAACCCCAgBcEQgrNx48fl3vvvVeOHDniG/usWbNk5syZfhZPPvmkrFmzxve7ESNGyIYNGyQtLa2VGaHZC5eR/WMgNNtvTo8IIIAAAggggAACCCSiQEihOT8/X9555x2f09e//nV56qmn5KOPPpLnnnvO+P2DDz4oQ4YMkaKiIvnjH//oO1bd57x69WpCcyJeZTEYM6E5Bqg0iQACCCCAAAIIIIAAAq0ELIfmTZs2ycMPP+zXgPpdv3795Ctf+Yo0NjYa7/Xp00f+9Kc/yf79++W+++7zO/6Xv/yljB8/3u93rDRzVYYjQGgOR41zEEAAAQQQQAABBBBAIFQBy6FZrSCb72NWHdXU1MjWrVtbhelnnnlGbrvtNhk7dqxfPV/72tekrKyM0BzqLHF8KwFCMxcFAggggAACCCCAAAII2CFgOTSrcPzAAw/41fTb3/5WUlJS5K677vL7vdqWffr0aeP+Z/NLPW17woQJhGY7ZtbjfRCaPT7BDA8BBBBAAAEEEEAAAYcIWA7Nqt7p06fLm2++6St9ypQp8vTTT4vapr1y5UpJTk6WOXPmyN13323c22xemZ40aZKsXbu21bDZnu2QK8FlZRCaXTZhlIsAAggggAACCCCAgEsFQgrN6uumvv3tbxsP/tKvH/7wh1JcXOw3fBWgf/rTn/p+p56evX79euN+58AXodmlV06cyyY0x3kC6B4BBBBAAAEEEEAAgQQRCCk0KxO17XrBggWyZcsWH5H6nmZ1//LVq1eNp2u/9957vve++c1vyqOPPsr3NCfIBWXXMAnNdknTDwIIIIAAAggggAACiS0QcmjWXOoeZ/U1Uzt37gwq+IUvfEG+//3vt3paduDBrDQn9gUY7ugJzeHKcR4CCCCAAAIIIIAAAgiEIhB2aNadqK3aatX54sWLxq9SU1NFPSW7f//+luogNFti4qAAAUIzlwQCCCCAAAIIIIAAAgjYIRBxaI60SEJzpIKJeT6hOTHnnVEjgAACCCCAAAIIIGC3AKHZbnH6i4oAoTkqjDSCAAIIIIAAAggggAACHQgEDc179x2QcZ+9SZK7dokp4KVLV+TN/94jo266Pqb90Lj3BAjN3ptTRoQAAggggAACCCCAgBMFgobmj+uOS9/ePSV7kLX7ksMd2IFDn8jpxk/luqzY9hNufZznXAFCs3PnhsoQQAABBBBAAAEEEPCSQNDQfPnKVTl67ISk9eohgwf2i/qK88WLl+Vw3Qk523he+vfPkG7JXb1kylhsECA024BMFwgggAACCCCAAAIIICBBQ7NyudrcLKdPn5WT9WfkfNPfn4wdrVePlG6S3jdN+qSlStcYbwGPVs204ywBQrOz5oNqEEAAAQQQQAABBBDwqkCbodmrA2Zc3hAgNHtjHhkFAggggAACCCCAAAJOFyA0O32GqC+oAKGZCwMBBBBAAAEEEEAAAQTsEDBCsx0d0QcC0RYYlp0Z7SZpDwEEEEAAAQQQQAABBBDwEzBCM+GDq8JtAh8ePCpct26bNepFAAEEEEAAAQQQQMB9AoRm980ZFYsIoZnLAAEEEEAAAQQQQAABBOwQIDTboUwfURcgNEedlAYRQAABBBBAAAEEEEAgiAChmcvClQKEZldOG0UjgAACCCCAAAIIIOA6gYhDc/077xiDTv/MZ1w3eAp2rwCh2b1zR+UIIIAAAggggAACCLhJIKLQ3FBdLbt+9CNjvKMWLpS+o0e7aezU6mIBQrOLJ4/SEUAAAQQQQAABBBBwkUDYofnMnj3y7iOPyKiZM43h7iorkzFPPCG9R4500fAp1a0ChGa3zhx1I4AAAggggAACCCDgLoGwQrMRmB99VEYVF0t6bq4x4vqaGtm1erWMefxxgrO7rgFXVktoduW0UTQCCCCAAAIIIIAAAq4TCDk0n33/fdm5cKFfYNaj1sF57I9+JGk33ug6DAp2jwCh2T1zRaUIIIAAAggggAACCLhZIKTQrAKz2pJ9yw9+8D8rzNXVxvjT/3E/swrOu5991tiqHe3gXFVVJQUFBbJ+/XrJy8vzc6+trZUZM2bIqlWrJDc3V0pLSyUzM1NKSkrcPD/U3oYAoZlLAwEEEEAAAQQQQAABBOwQsByaG2trZWdpqV9gPqUeBPb000adox5+WDICgvPYJUskNScnauOwGpoDA3XUCqAhxwgQmh0zFRSCAAIIIIAAAggggICnBSyFZhWY3124UEY++KBvhVkH5ubLlw2gTl27tgrOe557TsYuWya9hgzxQ9Tht6ioSMrLy4339OqxORjrFWP1/pIlS6SmpsZYaQ52XnsrzfX19VJYWCjV/1gVD7ZS7elZ9uDgCM0enFSGhAACCCCAAAIIIICAAwWsh+ZFi+SWhx6SvjffbAxDbcOufuopaWkjNDfs3Su7n3lGxixe3Gq12Rya1fbpjRs3yvPPPy8VFRWyf/9+3xbs9kJz4HkqGAfbnl1cXGxs1dbBe/Pmzb6+0tPTHTgllGRFgNBsRYljEEAAAQQQQAABBBBAIFIBS6FZdWJsz16wwPiKqcDgnBSwPVsFZvUVVGP/4z+Cbs8O3GZt/rfqS9+33FZoDrYqnZGRETQ0qxVm9d+0adMkPz8/Ui/Od4gAodkhE0EZCCCAAAIIIIAAAgh4XMByaFYOxoPA1FdNmYNzwIPAdGBWXz3V1oPACM0ev6psGB6h2QZkukAAAQQQQAABBBBAAAEJKTT7gvMjj8ioWbN8K87a0QjMP/lJh0/Obm97tt5mPXPmTJk0aZKxSpydnd3qnuZwt2er+6Jnz54tlZWVkhPFh5RxLdkrQGi215veEEAAAQQQQAABBBBIVIGQQ7OCOrNnj1Q//rhfcNaBefSjj0rvkSPb9WzvQWBNTU3GPcibNm2SiRMnGu2kpaXxILBEvULbGDehmQsCAQQQQAABBBBAAAEE7BAIKzTr4Ky2auc+/LBRZ83TT4vakt1RYFbHtvfVUXYMmj7cL0Bodv8cMgIEEEAAAQQQQAABBNwgEHZoVoNrUN/T/KMfGeMctXCh9P3H9zR3NHBCc0dCvN+RAKG5IyHeRwABBBBAAAEEEEAAgWgIRBSaVQH177wjkpQk6WPHRqMe2kDAkgCh2RITByGAAAIIIIAAAggggECEAhGH5gj753QEwhIgNIfFxkkIIIAAAggggAACCCAQogChOUQwDneGAKHZGfNAFQgggAACCCCAAAIIeF2A0Oz1Gfbo+AjNHp1YhoUAAggggAACCCCAgMMECM0OmxDKsSZAaLbmxFEIIIAAAggggAACCCAQmYARmiNrgrMRiI/AsOzM+HRMrwgggAACCCCAAAIIIJAwAqw0J8xUe2ugrDR7az4ZDQIIIIAAAggggAACThUgNDt1ZqirXQFCMxcIAggggAACCCCAAAII2CFAaLZDmT6iLkBojjopDSKAAAIIIIAAAggggEAQAUIzl4UrBQjNrpw2ikYAAQQQQAABBBBAwHUChGbXTRkFKwFCM9cBAggggAACCCCAAAII2CFAaLZDmT6iLkBojjopDSKAAAIIIIAAAggggEAQAcuh+cmqc7Lmr+fE6vdTJYnI9z/bS/5vXi/gEYi6AKE56qQ0iAACCCCAAAIIIIAAApGE5skvnJBlX+wm2akqDv/P6xd7L0tLi8j/GdnV7/cHz7bIvDcuyub7rgUegagLEJqjTkqDCCCAAAIIIIAAAgggEElo/uoLJ+Wp27vKwF6d/Jr5+e7L0iItcv8tyX6/P3KuWf79tcvy0n3XAI9A1AUIzVEnpUEEEEAAAQQQQAABBBCINDQ/Mb6rDEjxX2n+9Xt/D83/+yb/0PxJU4s8sj06oXnFihVy9OhRWbJkiaSkpDCRCPAgMK4BBBBAAAEEEEAAAQQQsEXA8j3NaqW5a1KznGpq9ivsavPf73Lu3Mk/TPfr0UkuNHeKykozodmWa8FVnbDS7KrpolgEEEAAAQQQQAABBFwrEFJoDrY9+1j9WeOe5gEZaX4I7W3PrqqqkoKCArn99tvltddek/Xr10tubq6UlpbKpk2bjHaKioqkpKTE+DkwNKt/l5eXG+8tW7ZM8vPzXTsBFB6eAKE5PDfOQgABBBBAAAEEEEAAgdAE4hqazYFXBeEdO3ZIRUWF1NfXy4wZM2TmzJlGIDaH5s2bN8v27duNrdpHjhwxjlu1apXk5eWFNnKOdrUAodnV00fxCCCAAAIIIIAAAgi4RiCk0Px47jlJTvL/0qmLl//+9Ozuyf5Pz77UkiSP1vQKuj1brzSrFWYVdlVILiwslGnTpvlWjc1BefXq1cY9zYsWLZLFixf7VqO1MqvNrrneolYooTlqlDSEAAIIIIAAAggggAAC7QiEFJqXf0Eko5t/aG5oPG+E5vS0Hn7dnLqYJHPfkpiEZtURDwVL7Oua0JzY88/oEUAAAQQQQAABBBCwSyCk0Bzte5r1SrMabCjbs8vKyqSyslJOnTols2fPNn7Oycmxy4x+HCBAaHbAJFACAggggAACCCCAAAIJIGA5NN/zm5Oy4p+6yqBU/+9pPt7QaDD165vqx3W4sVnmvnFZXvx26+9pDtyerU5samqy9CAwdaz5gWFszU6AqzTIEAnNiTnvjBoBBBBAAAEEEEAAAbsFLIfmF/Y2ycJtZ+Sq/+7sNuvt2knkidt7y303873Kdk9qIvRHaE6EWWaMCCCAAAIIIIAAAgjEX8ByaI5/qVSAwP8IEJq5GhBAAAEEEEAAAQQQQMAOAUKzHcr0EXUBQnPUSWkQAQQQQAABBBBAAAEEgggQmrksXClAaHbltFE0AggggAACCCCAAAKuEyA0u27KKFgJEJq5DhBAAAEEEEAAAQQQQMAOAUKzHcr0EXUBQnPUSWkQAQQQQAABBBBAAAEEgggQmrksXClAaHbltFE0AggggAACCCCAAAKuEzBCs+uqpmAERGRYdiYOCCCAAAIIIIAAAggggEBMBVhpjikvjcdKgJXmWMnSLgIIIIAAAggggAACCJgFCM1cD64UIDS7ctooGgEEEEAAAQQQQAAB1wkQml03ZRSsBAjNXAcIIIAAAggggAACCCBghwCh2Q5l+oi6AKE56qQ0iAACCCCAAAIIIIAAAkEEohqaL316RJrOfiC9M28HG4GYCoQbmsvKyqSlpUVmzZoV0/poHAEEEEAAAQQQQAABBLwhEJXQ3HRmv3yw/d+k+eo56XVtllxpSpIBN/1fSet/mzeUGIXjBAjNjpsSCkIAAQQQQAABBBBAwJMCEYfm8w275EDVTMkaO0a69UwVSUqST098IgffelXG/PNb0qVbuifhGFR8BQjN8fWndwQQQAABBBBAAAEEEkUgotDc0nxZqjd9UYZP+ookdUqSup17JKVvX+k7ZKCcOXJQmuq7ybBx5YliyThtFCA024hNVwgggAACCCCAAAIIJLBARKH53Mmdcvjd2ZI97jb5+L93St/B/0fO1v1JUjLOSZ/BQ+Ro9XsyYMSj0jNjZAITM/RYCBCaY6FKmwgggAACCCCAAAIIIBAoEFFovnzhpOx95asyfNL/kmN7/yZdOt8s9QdfkvSh10nfoTlS++dXZMw3/ruVelVVlWzYsEGWLFkiKSkpvvfr6+tlzpw5Mn/+fMnJyenw9+qAjRs3yoEDB6SkpKTN2bVyTG1trSxdulRWrlwp6elsKXf6nwqh2ekzRH0IIIAAAggggAACCHhDIKLQrAj2/fnrMvAzI6VTly5y/P33pGtKN+mbfb2cPnxALp7uI0PHlVmWCic0W268gwNVkF++fLlUVFQQmqOFGsN2CM0xxKVpBBBAAAEEEEAAAQQQ8AlEFJqr/+s2GXb7P0nn5O7S1HBKuvfuI0mdOsu5E0elbme15E55XTp1Tm7FbV5pVm+WlpbKpk2bZMqUKXL27Nk2V5oHDhwov/71ryUrK0sqKyuN1WjzKrJqt6CgwHj/jjvukF69ehkr0PqYwsJCYyU7sB21sqzeq66ulqKionZXrbl2nCGgQvOi0tkhF/Pxxx8b5wwaNCjkc9UJ6vrjhQACCCCAAAIIIIAAAokjEHZo3vXiBMkenydduqfImY+PSlO9yOkjb0u31GskOWWQDL/9P9tUNIfmzZs3y/bt242t2jU1NTJ79mxfINYNqBVoFWrHjRvnC8H6HHW+2p6t3lf/zZ07V3Jzc40gnpmZ2So0q2OmTZsm+fn5smLFCqMLFaxZaXbXRa9C84J5/x5y0UeOHDHOUR+chPpS537rW9/iO55DheN4BBBAAAEEEEAAAQRcLBBWaN79uy/LdXljpWtKD7nYeEnOHLoiQ25daTBcbDwo3VKz2yXRoXnRokWyePFiGT9+vBFi29uerQNxXl6emO8/3rp1qxGaJ0yY4Le92rwCbV5pNrcTuErN9mz3XMnx2J5dVlYmLS0thGb3XCZUigACCCCAAAIIIIBAxAIhh+bdL90lgz53iyT37GV0fuitNyTrlickbcBtloshNFum4sA2BAjNXBoIIIAAAggggAACCCBgh0BIoXnvlq9J5pgbpFtqmlxu+lQ+2VUjXXt0k09PNMqoya9arjfe27PVFm61Ys1Ks+Upc9yBhGbHTQkFIYAAAggggAACCCDgSQHLofnAjh9Kn8Et0q13H7l49rR0S+sj+7a8KP1vmCHnT++S68Yukm69rrOEFM6DwPQ9zeXl5RE9CKyt7dlqy/eMGTPknnvu4UFglmYxvgcRmuPrT+8IIIAAAggggAACCCSKgKXQfPVyo7y/9dsy9Iu3yunDB+XcsYty5eJx4+ulevefKv1umO4or6amJuNBYPpeaUcVRzFRESA0R4WRRhBAAAEEEEAAAQQQQKADAUuhWbWhHvD14Y5Z0ve6L8mAG2fK+Ya98tHbcyUpKVluuvP/xR1aP2FbfW2Ueqmvr1JP5E5JSYl7bRQQfQFCc/RNaREBBBBAAAEEEEAAAQRaC1gOzerU5qsXpVPnbn6tNJ3eLyl9hmOLgK0ChGZbuekMAQQQQAABBBBAAIGEFQgpNCesEgN3nEC4oTmSgfCVU5HocS4CCCCAAAIIIIAAAu4UIDS7c94SvmpCc8JfAgAggAACCCCAAAIIIGCLAKHZFmY6ibYAoTnaorSHAAIIIIAAAggggAACwQQIzVwXrhQgNLty2igaAQQQQAABBBBAAAHXCRih2XVVUzACIjIsO9NWB+5ptpWbzhBAAAEEEEAAAQQQcIQAK82OmAaKCFWAleZQxTgeAQQQQAABBBBAAAEEwhEgNIejxjlxFyA0x30KKAABBBBAAAEEEEAAgYQQIDQnxDR7b5CEZu/NKSNCAAEEEEAAAQQQQMCJAoRmJ84KNXUoQGjukIgDEEAAAQQQQAABBBBAIAoCYYfmXaePy6kL5/1KyOjeQ0b16ReFsmgCgfYFCM1cIQgggAACCCCAAAIIIGCHQFih+Y91H8qCt1+R9O49/Wo81XROlo67WyZlDrWjdvpIYAFCcwJPPkNHAAEEEEAAAQQQQMBGgbBC8y9qq2X/uQZ5YMx4v1LXvrtdhvfqK9/NGW3jEOgqEQUIzYk464wZAQQQQAABBBBAAAH7BeIempuamqS0tFSmTp0qeXl5MRGor6+XOXPmyPz58yUnJ6fNPlasWCFDhw6VyZMnx7ymjRs3yvbt22XJkiWSkpISk3EHNqr6PHDggJSUlNjSn9VOrM6PuT1Cs1VdjkMAAQQQQAABBBBAAIFIBMIKzUurX5OKPW9Lr+Tufn2fu3RBCkfeKvNH3265JjtCs5VidB3jx4+X/Px8K6dEdEw8QrP6UEC9nBaaw4EkNIejxjkIIIAAAggggAACCCAQqkBYofmZvVXyypEP5AsDh/j19/KH78u9w0bKQzd3vGKsAlx5eblMnDjRaOOBBx4wVprVqmNhYaFUV1dLVlaWVFZWGqvDtbW1MmPGDKmrq2vz91OmTDFWblUAVivLAwcOlN27d8vKlSuN36uV5p07d8quXbuksbFRNm3aJEVFRUaIVCF23rx5RtvPPfec/OxnP/OtfldVVUlBQYFRpz5eh+zMzExjHOq1fv36oKvleqzmY1R/W7ZsMc579dVXfe2qf5v70+fk5uYaq9+qvxdffNFwUS9ton5etmyZEfh1bWp82vDUqVO+Meg6zXXpc/Wqr7arqKiQ9PR0oy81B0uXLjU81e/Mwb+mpsbXfls1P/bYY4aRPl+v7E+aNMnSTgDzxUZoDvVPneMRQAABBBBAAAEEEEAgHIGwQnNb9zQ/9sbvZcKAIR3e06xC4fLly0UFMhXSVPBbtWqV6GCot2qr4zZs2GAE3tWrVxtbp1Uo1NuMi4uLjSCpV4fNIUwF72nTphnHm7f/qtBcVlZmhE4V/NRxc+fO9fWt2jJvz87IyDACnQp6Kkjq/vQxKsTq0B1su3XgWHXo3Lp1q68ONXG6D/UBgTpHb1UPHKvuT52jwr86Xm3vNltt3rzZt/VbhVmzoTpP16u3apt9tIm2M19UgbsClPeECROMWq3UrM5X458+fbphr7fMm39ub/s8oTmcP3HOQQABBBBAAAEEEEAAgUgEwg7NNSfq5L5ht/j1/ZPdb8md2SM6DM3mbcLmIDZ8+HDfKrNuOHCl1Lz63Na9sHq1WoVhvXqtA5oKzeb7egPvYw4MzaoOHTpVOG0rsJtDq/ke5bbuIzav0uqVcfM914Gr24EfEGgf8wq8Xmk3f8BgniCzu3mVWR+jVpvVqq/+ICHYPeaqbvVSxy1evFgWLVrkW4m2UrM+f+zYsbJu3Tpj9T/Y+Du6qFlp7kiI9xFAAAEEEEAAAQQQQCAaAmGH5uoTdTItIDQ/vfstuSvC0NzRA7v0NmoVEGfPni2PPPJIqwd8uTk069VsNblqhV2tGquQHyw0q+C7Y8cOY8V+//79QVfl2wvNeuXefEygXeBFpkK6Crt33HGH/OUvfzFWrfUHH1Zq1ucPGzZMevbs2WonACvN0fizpg0EEEAAAQQQQAABBBCIlkDYoTnYV05Fa3u23oJs3tqsgqF5K7Ba/VWrnGq107w9W8GolVLzamng9uznn3/eCJr62Ei2Z+u+21ppDtyerbdhqxVvvZ3bvNKqQ7Paom6+j7mt0KyDrwrQR48e9QVt3bbanq23wusx6+3ZwRz0ar9epQ+80PQWa7U1XN0DrlajzbsFOqpZtbdmzRojcC9YsMDYXs7Ts6P150w7CCCAAAIIIIAAAgggEG2BsEPzvrOn5P5R/g/8WvzWK3JH1rAOt2erQYT6ILC2HhBm/v3o0aNbheFg27PVw6hOnjxpPFRMP9hL16QeshXKg8A6Cs2qXb06rn7WD9xqb3u2+aFk999/v/FQtMAPCFRb5u3Q6v3XX3/d7yFbgQ8o0+129CCw9rZn6351ENcPCbNasz7fvOWd0BztP2vaQwABBBBAAAEEEEAAgWgJhB2a3/74gNzTf6hfHT87uFsm59xiKTRHawChthOPr3oKtUavH6/vI4/kq724p9nrVwnjQwABBBBAAAEEEEDAGQJhh+ZItmfHc+iE5vjp623cBw8eNHYE6FXqcCoiNIejxjkIIIAAAggggAACCCAQqkDCheZQgTjemQKEZmfOC1UhgAACCCCAAAIIIOA1gbBC8x/rPpQna96Uzw64zs/j1UP75bHPTZIvZw3zmhPjcZgAodlhE0I5CCCAAAIIIIAAAgh4VCCs0KwsXvhwlxw4e9qPJad3utw7dKRHqRiWkwQIzU6aDWpBAAEEEEAAAQQQQMC7AmGHZu+SMDI3CBCa3TBL1IgAAggggAACCCCAgPsFCM3un8OEHAGhOSGnnUEjgAACCCCAAAIIIGC7AKHZdnI6jIYAoTkairSBAAIIIIDsLr/qAAAgAElEQVQAAggggAACHQm4KjSrryxavXq1FBYWGuNS/6+urjZ+XrZsmejv/VXfA1xeXm78PisrSyorKyUnJ0dqa2tlxowZUldXZ7xXVFQkJSUlUlVVJYcOHfKd3xEa78dfgNAc/zmgAgQQQAABBBBAAAEEEkHAVaFZfcfy4MGDJS8vT1QwHjp0qBF0dRhetWqV5ObmSmlpqUydOtU4zvxS4XjDhg2yZMkSSUlJ8XtvzZo1cueddxrhmpfzBQjNzp8jKkQAAQQQQAABBBBAwAsCcQnNKryuXbvW8Hv11VdlypQpviBrXg1WK8FHjx413lOrzBUVFVJcXNwq8Kr3dFAePny4zJkzR+bPn98qAKvQfeDAAWN1OfCl+n3llVfk+9//vhfm1fNjIDR7fooZIAIIIIAAAggggAACjhCIW2iePXu2sW06PT3d2GY9d+5c3yrx+PHjjRVktZqsQ3NNTY1s27atzcC7dOlSWblypezfv18KCgp8uHoLtg7WmzZtMt4zb9tW/66vr5fFixfLokWLjJp4OVuA0Ozs+aE6BBBAAAEEEEAAAQS8IhC30Lx8+XJj5Vhtk9arxBkZGcYqsQq/apu0eTv15s2bDXN937KeABV221pZ1kFZh3DzpKm2dQ0qJKtjVfCePn06W7RdcHUTml0wSZSIAAIIIIAAAggggIAHBFwdmtWWar3C3NbqsFqtVq/ALdnqXHNAJzS762omNLtrvqgWAQQQQAABBBBAAAG3CjgqNOuHeFnZnq1C77p164x7l80P9VIryHobt1qFNm/9Nq8kq/ubt2/f7ruXmu3Z7rqECc3umi+qRQABBBBAAAEEEEDArQKOCs3qadftPQhM33Ost3Tr+5M1/vr1631P1tZfOaXvaVbHmNsOvKfZHLbdOpmJVDehOZFmm7EigAACCCCAAAIIIBA/gbiEZqvDDdxabf7KKattWD2Or5yyKuWM4wjNzpgHqkAAAQQQQAABBBBAwOsCjgrNgU+4Hj16tPGwMH2/cqy2ULPK7L7LnNDsvjmjYgQQQAABBBBAAAEE3CjgqNDsRkBqjo8AoTk+7vSKAAIIIIAAAggggECiCRCaE23GPTJeQrNHJpJhIIAAAggggAACCCDgcAFCs8MniPKCCxCauTIQQAABBBBAAAEEEEDADgEjNNvREX0gEG2BYdmZ0W6y3fbKysqkpaVFZs2aZWu/dIYAAggggAACCCCAAALxE2ClOX729ByBACvNEeBxKgIIIIAAAggggAACCFgWIDRbpuJAJwkQmp00G9SCAAIIIIAAAggggIB3BQjN3p1bT4+M0Ozp6WVwCCCAAAIIIIAAAgg4RoDQ7JipoJBQBAjNoWhxLAIIIIAAAggggAACCIQrEHZo3nX6uJy6cN6v34zuPWRUn37h1sJ5CFgWIDRbpuJABBBAAAEEEEAAAQQQiEAgrND8x7oPZfb2lySzV2+/ro+eOyNP3vY1mZQ5NIKSOBWBjgUIzR0bcQQCCCCAAAIIIIAAAghELhBWaP5FbbXsP9cgD4wZ71fB2ne3y/BefeW7OaMjr4wWEGhHgNDM5YEAAggggAACCCCAAAJ2CBCaTcobN26U7du3y5IlSyQlJcUOf1F9HjhwQEpKSmzpz2onVVVVsmHDhogsVBuHDh2S/Px8Y5zz5s0zuh89erRUVFRIenq61NbWyowZM6Surs54r6ioyJIFodnqTHIcAggggAACCCCAAAIIRCIQVmheWv2aVOx5W3old/fr+9ylC1I48laZP/r2SGqK27nxCM0rVqwwxuu00BzpJNTX1xvBuLi4WI4cOSJLly6VlStXGkFZjfno0aNGIK+pqQkrnBOaI50hzkcAAQQQQAABBBBAAAErAmGF5mf2VskrRz6QLwwc4tfHyx++L/cOGykP3ZzXbt9qBXLt2rXGMa+++qpMmTLFt6IZuPK4bNky30rlrl27pLGxUTZt2mSsSA4dOtRYvWxr5dL8+8CCVHArLy83fr1+/XrJy8szVkO3bNniq8u86mk+XrerVqNLS0slMzNTXnzxRamsrJRTp05JQUGBrzvddlNTk3Gsqj0rK6vVsfo4cz967GavESNG+AXswBVhcwgPVrMqbM6cOTJw4EDZvXu3PPjgg/LSSy8Z/uqlapw6darxs1ppXrRokSxevNgYY6CXOkb3MXHiROOcBx54wGc5ePBg4+fAl7nmzZs3h7XSTmi28ufNMQgggAACCCCAAAIIIBCpQFihua17mh974/cyYcCQDu9pVqFp9uzZRnBUK4+FhYUyd+5cI2CpYJyTk2Nsjw4MV2VlZcY56qW29M6cOVMmTZrkO3/48OFGIJw/f77RRltbn1W7y5cvN1ZC1YqoXgXdunWrmPtQbenV0YaGBrn++utFh18VLHNzc32hWa8Uq7Z1UDT3b17FNq+url692hiPOt98vKpLj0UFce2lxmV+mY9TQViNZfr06YZrsJqVkfKeNm2a8WGEOl+FYhWOzRb79+9vFZp1jXoLuxqH2VHNyapVqwwXXUdgvTpoqw88Jk+e7PsgQf1ef5gQ7JzAC53QHOmfPucjgAACCCCAAAIIIICAFYGwQ3PNyTqZNmyUXx9P794udw4eYSk067ClV2tVCNVh07zarFeh1YqkDmsquOpAqYKiXh3NyMjwuz9WFRdstbmtMG0OtuY+dIgLXJ3WoXn8+PFGANUvFZz1arNerVbnqqBoPk4HSB2aze3rttRqs1qx1V4qDAe+1HkTJkwQNf5169YZHxroe7IDa9ahWX9IoWtQ56vXtm3bjACvP7DQK816jOYPMsyB3/xhgupDB/HAetu7h9v8YUawcZrHTWi28ufNMQgggAACCCCAAAIIIBCpQNihufp4ndw3bKRf/z/Zs0Puyo4sNKuQt2PHDmMVWK92qq3DVkOz+d7ZtnBCDc2qHb2yrVdHzSvNOlDq4KiO1zXrh3xZDc3BgnVHYVK9r8KuOle9VDDXHzyo1XhzzcFCsz5fnavCs/rwIhahuS0DPU+qZr2639FqM6E50j99zkcAAQQQQAABBBBAAAErAmGH5mBfORXK9uy2VprNwcr8wCgroTlw63FbD/YK3J6tg9rOnTuDrmYrSB3G1RZm8zZktcodGJqDbd0O3J6tx68+HFAvvfX5+eefNz4wUC+9bV393N5Ks96i3dzcLAsWLDC2pqsAGqzmYKFZhX21arxv3z7fdnQroTmU7dl6Ndx8j7Pq17yNO5QHsRGarfx5cwwCCCCAAAIIIIAAAghEKhB2aP5b4ym5f9Q4v/4Xv/WyTMwcFtH2bPPWZrU1+PXXXzeCnLrfuKPt2SqQmbd2t/cgMPNXIJkfNtZeH+ohXmq7eGpqqowaNcq3gmvenq3bVffn3n///VJdXe17yFlbDx9TDzPr6EFg7YVmNQmBgdP84DFzzeZ7wM0BNnD13UpoVlvA23sQmKpLrXqb51RfMHrbvXqytv7KKe5pjvTPmfMRQAABBBBAAAEEEEAg2gJhh+aqwx/K5P5/3w6sXz8/uFvuGT6qw9Ac7UHQXmQC5vuRgz3t2krrgVurzV85FYvvvGal2cqscAwCCCCAAAIIIIAAAghEKhB2aI5ke3akRXN+9ARUuFXbwLOzs30r4lZbD1xB1iv2+ny1eq1egQ8/s9p+e8cRmqOhSBsIIIAAAggggAACCCDQkQChuSMh3nekAKHZkdNCUQgggAACCCCAAAIIeE4grND8x7oP5cmaN+WzA67zA3n10H557HOT5MtZwzwHxYCcJUBodtZ8UA0CCCCAAAIIIIAAAl4VCCs0K4wXPtwlB86e9nPJ6Z0u9w71/xoqr8IxrvgKEJrj60/vCCCAAAIIIIAAAggkikDYoTlRgBinMwUIzc6cF6pCAAEEEEAAAQQQQMBrAoRmr81ogoyH0JwgE80wEUAAAQQQQAABBBCIswChOc4TQPfhCRCaw3PjLAQQQAABBBBAAAEEEAhNIG6hecWKFVJeXm5Um5WVJZWVlZKTkyNr1qyRO++80/iZFwJtCRCauTYQQAABBBBAAAEEEEDADoG4hOampiYpLS2VqVOnSl5ent841fcGV1RUSHFxsaSkpNhhQB8uFCA0u3DSKBkBBBBAAAEEEEAAARcKxCU0q2A8Z84cmT9/ftAV5Y0bN8rgwYNbBWoX+lJyjAQIzTGCpVkEEEAAAQQQQAABBBDwE4hLaK6qqpKCggJfIUVFRVJSUuL7t3p/27Ztfr9j3hAwCxCauR4QQAABBBBAAAEEEEDADoG4hGbzwPRW7fHjx0t+fr7xVm1traxbt85YiWaLth2Xgfv6IDS7b86oGAEEEEAAAQQQQAABNwrEPTQrNPVQMPXSq82EZjdeSvbWTGi215veEEAAAQQQQAABBBBIVIG4hGbz9mt1f3NhYaHMnTvXdw8z27MT9XK0Pm5Cs3UrjkQAAQQQQAABBBBAAIHwBeISmvXqsv7KqcB7mtXK84QJE3gQWPjz6vkzCc2en2IGiAACCCCAAAIIIICAIwTiFprbGj1fOeWI68LxRRCaHT9FFIgAAggggAACCCCAgCcEHBeaWWX2xHUV80EQmmNOTAcIIIAAAggggAACCCAgIo4LzcwKAlYECM1WlDgGAQQQQAABBBBAAAEEIhVI+ujwJy2Dsq6Vzp06RdoW5yNgi8DVq81yuO64DLlugC396U7KysqkpaVFZs2aZWu/dIYAAggggAACCCCAAALxE0g6dqKhJaV7sjS3tEharx6SlJQUv2roGYF2BFRgPXvuvKgr9MLFy9Lvmj62ehGabeWmMwQQQAABBBBAAAEEHCGQdOnylZZT9WekZ8/ucu7TC3Lx4iVpbm5xRHEUgYBZoHu3ZOnZo5s0XbgkGX3TpGvXLrYCEZpt5aYzBBBAAAEEEEAAAQQcIZDU0tLScunyFTnVcJbA7IgpoYj2BFRw7tunl6R072Y7FKHZdnI6RAABBBBAAAEEEEAg7gJGaI57FRSAgAsECM0umCRKRAABBBBAAAEEEEAgygKE5iiD0px3BQjN3p1bRoYAAggggAACCCCAQFsChGauDQQsChCaLUJxGAIIIIAAAggggAACHhIgNHtoMhlKbAUIzbH1pXUEEEAAAQQQQAABBJwoQGh24qxQkyMFCM2OnBaKQgABBBBAAAEEEEAgpgKE5pjy0riXBAjNXppNxoIAAggggAACCCCAgDUBQrM1J45CQAjNXAQIIIAAAggggAACCCSeAKE58eacEYcpQGgOE47TEEAAAQQQQAABBBBwsQCh2cWTR+n2ChCa7fWmNwQQQAABBBBAAAEEnCBAaHbCLFCDKwQIza6YJopEAAEEEEAAAQQQQCCqAoTmqHLSmJcFCM1enl3GhgACCCCAAAIIIIBAcAFCM1cGAhYFCM0WoTgMAQQQQAABBBBAAAEPCRCaPTSZDCW2AoTm2PrSOgIIIIAAAggggAACThQgNDtxVqjJkQKEZkdOC0UhgAACCCCAAAIIIBBTAUJzTHlp3EsChGYvzSZjQQABBBBAAAEEEEDAmgCh2ZoTRyEghGYuAgQQQAABBBBAAAEEEk+A0Jx4c86IwxQgNIcJx2kIIIAAAggggAACCLhYgNDs4smjdHsFCM32etMbAggggAACCCCAAAJOECA0O2EWqMEVAoRmV0wTRSKAAAIIIIAAAgggEFUBQnNUOWnMywKEZi/PLmNDAAEEEEAAAQQQQCC4AKGZKwMBiwKEZotQHIYAAggggAACCCCAgIcECM0emkyGElsBQnNsfWkdAQQQQAABBBBAAAEnChCanTgr1ORIAUKzI6eFohBAAAEEEEAAAQQQiKkAoTmmvDTuJQFCs5dmk7EggAACCCCAAAIIIGBNgNBszYmjEBBCMxcBAggggAACCCCAAAKJJ0BoTrw5Z8RhCjz77LPS0tIiDz30UJgtcBoCCCCAAAIIIIAAAgi4TYDQ7LYZo964CbDSHDd6OkYAAQQQQAABBBBAIG4ChOa40dOx2wQIzW6bMepFAAEEEEAAAQQQQCByAUJz5Ia0kCAChOYEmWiGiQACCCCAAAIIIICASYDQzOWAgEUBQrNFKA5DAAEEEEAAAQQQQMBDAoRmD00mQ4mtAKE5tr60jgACCCCAAAIIIICAEwUIzU6cFWpypACh2ZHTQlEIIIAAAggggAACCMRUgNAcU14a95IAodlLs8lYEEAAAQQQQAABBBCwJkBotubEUQgIoZmLAAEEEEAAAQQQQACBxBMgNCfenDPiMAUIzWHCcRoCCCCAAAIIIIAAAi4WIDS7ePIo3V4BQrO93vSGAAIIIIAAAggggIATBAjNTpgFanCFAKHZFdNEkQgggAACCCCAAAIIRFWA0BxVThrzsgCh2cuzy9gQQAABBBBAAAEEEAguQGjmykDAogCh2SIUhyGAAAIIIIAAAggg4CEBQrOHJpOhxFaA0BxbX1pHAAEEEEAAAQQQQMCJAoRmJ84KNTlSgNDsyGmhKAQQQAABBBBAAAEEYipAaI4pL417SYDQ7KXZZCwIIIAAAggggAACCFgTIDRbc+IoBITQzEWAAAIIIIAAAggggEDiCRCaE2/OGXGYAoTmMOE4DQEEEEAAAQQQQAABFwsQml08eZRurwCh2V5vekMAAQQQQAABBBBAwAkChGYnzAI1uEKA0OyKaaJIBBBAAAEEEEAAAQSiKkBojionjXlZgNDs5dllbAgggAACCCCAAAIIBBcgNHNlIGBRgNBsEYrDEEAAAQQQQAABBBDwkACh2UOTyVBiK0Bojq0vrSOAAAIIIIAAAggg4EQBQrMTZ4WaHClAaHbktFAUAggggAACCCCAAAIxFTBC89WrzXLi1Gm5cPGSNDe3xLRDGkcgXIFOnZKke7dkuTajj3Tu3CncZsI+j9AcNh0nIoAAAggggAACCCDgWoGkK1evtpw4eUa6JXeR5G7JcunSFblKcHbthHq18M6dkiQ5uYtcvHjJuEb7XdNHVIi280VotlObvhBAAAEEEEAAAQQQcIZA0rETDS1q1a5z5y5y5WqzM6qiCgTaEOjSuZNcvXrF2BFxbUZvW50IzbZy0xkCCCCAAAIIIIAAAo4QSPro8Cct/a7pK582XfIr6PLlq3Lkk2Ny7lyTXL5yNarFdu3SWVJTe0hW/37StWvnqLZNY94X6JGSLCdONkj2oP62DpbQbCs3nSGAAAIIIIAAAggg4AiBpA8+qmvp27e3qPua9UuF5KOfnJDeqT3kuqx+xrbYaL7U9tpDdcflbON5ycq8Vrp0JjhH09frbamdEQ0NZ2RYdqatQyU028pNZwgggAACCCCAAAIIOELACM1paal+xXxcd1zUat4NwwbFtMh9H3xsPHxsYGa/mPZD494TOHu2kdDsvWllRAgggAACCCCAAAIIOE4gaGjeu++A5H3mRumW3DWmBavA/PbOfXLziKEx7YfGvSdAaPbenDIiBBBAAAEEEEAAAQScKBA0NO/c9Tf5yu2fsaXeP7z2jowddYMtfdGJdwQIzd6ZS0aCAAIIIIAAAggggICTBaISmmtqauT8+fPGOHv27CmjRo2yPGZCs2UqDjQJEJq5HBBAAAEEEEAAAQQQQMAOgbBD87Fjx+RXv/qV/Pa3v5W6ujq/WrOysuRb3/qW/Mu//ItkZGS0Ow5Csx3T7L0+CM3em1NGhAACCCCAAAIIIICAEwXCCs2/+MUvZPny5XLx4kXfmIYPH278vH//ft/vevXqJQsXLpT8/Pw2x05oduJl4fyaCM3OnyMqRAABBBBAAAEEEEDACwIhh+bCwkL585//7Bv7bbfdJqtXr5bevXsbv2toaJCHHnpIduzY4Tvmm9/8pqxatSqoF6HZC5eR/WMgNNtvTo8IIIAAAggggAACCCSiQEihecGCBbJhwwafk7p3WW3P/uijj+S5554zfv/ggw/KkCFD5K677pLa2lrfsbNmzZKZM2e2MiY0J+JlF/mYCc2RG9ICAggggAACCCCAAAIIdCxgOTS/++67xn3K5tcvf/lLueGGG+TLX/6yNDY2Gm/16dNH/vSnP8lf//pX+dd//Ve/47du3WoEavOL0NzxJHFEawFCM1cFAggggAACCCCAAAII2CFgOTSrVeLf/e53fjVVV1cbW7V/+MMf+v1+zZo18vnPf974z/y69957jXuhCc12TK23+yA0e3t+GR0CCCCAAAIIIIAAAk4RsBya1cO/nnjiCb+61crx8ePHZdq0aX6//81vfiNpaWly9913+/1enf+d73yH0OyU2XdxHYRmF08epSOAAAIIIIAAAggg4CIBy6FZjelLX/qSHDx40Dc8fZ+yekL2888/b/z+u9/9rjzyyCPy1FNPybPPPus7NicnR15++eVWNGzPdtHV4qBSCc0OmgxKQQABBBBAAAEEEEDAwwIhheZdu3bJfffd5/dVUyos33rrrX5Er732msyYMcP3O/XVUy+88ILceOONhGYPX0x2Do3QbKc2fSGAAAIIIIAAAgggkLgCIYVmxaQeCFZcXCx1dXU+NfXAr7Fjx8qVK1fknXfekf/8z//0vace/FVWViYjR44MqsxKc+JefJGMnNAciR7nIoAAAggggAACCCCAgFWBkEOzavj8+fPy4x//WNTTsy9duhS0rx49esj3vvc9efjhh9uthdBsdao4zixAaOZ6QAABBBBAAAEEEEAAATsEwgrNurBz587Jli1bjKdqX7hwwfh1amqqTJ48We68807p3r17h2MgNHdIxAFBBAjNXBYIIIAAAggggAACCCBgh0BEoTkaBRKao6GYeG0QmhNvzhkxAggggAACCCCAAALxECA0x0OdPiMWIDRHTEgDCCCAAAIIIIAAAgggYEEgaGjeu++AjPvsTZLctYuFJsI/5NKlK/Lmf++RUTddH34jnJmQAoTmhJx2Bo0AAggggAACCCCAgO0CQUPz4brj0i8jTQYOuCamBR2uOyEnG87KdVn9Y9oPjXtPgNDsvTllRAgggAACCCCAAAIIOFEgaGi+cPGSHDteL0MH95f0PqkxqftUw1k58PExGXBNhnTvnhyTPmjUuwKEZu/OLSNDAAEEEEAAAQQQQMBJAkFDsyrw/IWLRnA+9+l5uXLlatRrTuvVQ669pq+kpfaMets06H0BQrP355gRIoAAAggggAACCCDgBIE2Q7MTiqMGBNoSIDRzbSCAAAIIIIAAAggggIAdAoRmO5TpI+oChOaok9IgAggggAACCCCAAAIIBBEwQjMyCLhRYFh2pq1ll5WVSUtLi8yaNcvWfukMAQQQQAABBBBAAAEE4idghGa7w0f8hkvPXhH48OBRsfu6JTR75ephHAgggAACCCCAAAIIWBcgNFu34kgHCRCaHTQZlIIAAggggAACCCCAgIcFCM0enlwvD43Q7OXZZWwIIIAAAggggAACCDhHgNDsnLmgkhAECM0hYHEoAggggAACCCCAAAIIhC0QcWi+cOyY0Xn3/v3DLoITEQhVgNAcqhjHI4AAAggggAACCCCAQDgCEYVmFZh3zp9v9Dt26VKCczgzwDlhCRCaw2LjJAQQQAABBBBAAAEEEAhRIOzQ3HT0qOycN09u/N73jC7f//nPZeyyZZKSae/XAIU4Xg73iACh2SMTyTAQQAABBBBAAAEEEHC4QFih+fzHHxsrzDcVFkp6bq4xxPqaGnmvokI+s2IFwdnhk+6F8gjNXphFxoAAAggggAACCCCAgPMFQg7NKjC/U1IiNxcV+QKzHqYOzmqrdo9Bg5w/eip0rQCh2bVTR+EIIIAAAggggAACCLhKIKTQ/OnBg8YKszkw11dXGwNOHz3a+L8KznvLy40V52gH56qqKikoKJD169dLXl6eH3Rtba3MmDFDVq1aJbm5uVJaWiqZmZlSUlLiqgmhWGsChGZrThyFAAIIIIAAAggggAACkQlYDs0qML8zb56M/Ld/860wn6qull1PP21UMOrhhyXDHJzXrpWxS5ZIz+zsyCo0nW01NAcG6qgVQEOOESA0O2YqKAQBBBBAAAEEEEAAAU8LWArN5z74QHYuXBg0MDdfvmwAderatVVw3vPTn8pnli1rFZx1+C0qKpLy8nLjfL16bA7GesVYvb9kyRKpqakxVpqDndfeSnN9fb0UFhZK9T9WxYOtVHt6lj04OEKzByeVISGAAAIIIIAAAggg4EABS6G5sbZW3l20SG556CHpe/PNxjDUNuzqp56SljZCc8PevbL7mWdkzOLFkpqT4zd0c2hW26c3btwozz//vFRUVMj+/ft9W7DbC82B56lgHGx7dnFxsbFVWwfvzZs3+/pKT0934JRQkhUBQrMVJY5BAAEEEEAAAQQQQACBSAUshWbViQrOOxcskFEzZ7YKzkkB27NVYN5VViZj/+M/WgVm1VbgNmvzv9X7+r7ltkJzsFXpjIyMoKFZrTCr/6ZNmyb5+fmRenG+QwQIzQ6ZCMpAAAEEEEAAAQQQQMDjApZDs3I4+/778u6jj/oH54AHgenAPObxxyXtxhuD8hGaPX5V2TA8QrMNyHSBAAIIIIAAAggggAACElJo9gXnRx6RUbNm+VactaMRmH/yExnzxBNtBmZ1bHvbs/U265kzZ8qkSZOMVeLs7OxW9zSHuz1b3Rc9e/ZsqayslJyAbeNcD+4RIDS7Z66oFAEEEEAAAQQQQAABNwuEHJrVYM/s2SPVjz/uF5x1YB796KPSe+TIdk3aexBYU1OTcQ/ypk2bZOLEiUY7aWlpPAjMzVdZDGonNMcAlSYRQAABBBBAAAEEEECglUBYoVkHZ7VVO/fhh41Ga55+WtSW7I4Cszq2va+OYo4QsCJAaLaixDEIIIAAAggggAACCCAQqUDYoVl13KC+p/lHPzJqGLVwofT9x/c0d1QUobkjId7vSIDQ3JEQ7yOAAAIIIIAAAggggEA0BCIKzaqA+nfeEUlKkvSxY6NRD20gYAtHP/0AACAASURBVEmA0GyJiYMQQAABBBBAAAEEEEAgQoGIQ3OE/XM6AmEJEJrDYuMkBBBAAAEEEEAAAQQQCFGA0BwiGIc7Q4DQ7Ix5oAoEEEAAAQQQQAABBLwuQGj2+gx7dHyEZo9OLMNCAAEEEEAAAQQQQMBhAoRmh00I5VgTIDRbc+IoBBBAAAEEEEAAAQQQiEzACM2RNcHZCMRHYFh2pq0dl5WVSUtLi8yaNcvWfukMAQQQQAABBBBAAAEE4ifASnP87Ok5AgFWmiPA41QEEEAAAQQQQAABBBCwLEBotkzFgU4SIDQ7aTaoBQEEEEAAAQQQQAAB7woQmr07t54eGaHZ09PL4BBAAAEEEEAAAQQQcIwAodkxU0EhoQgQmkPR4lgEEEAAAQQQQAABBBAIV4DQHK4c58VVgNAcV346RwABBBBAAAEEEEAgYQQIzQkz1d4aKKHZW/PJaBBAAAEEEEAAAQQQcKqA5dD8X3+7IC/s/VSaJcnSWDpJi0wd2VOmDO9u6XgOQiAUAUJzKFociwACCCCAAAIIIIAAAuEKWA7Nk184Icu+2E2yU/1D8/r3Lon6oufv3JTsV8PBsy0y/82L8uK3rw23Ns5DoE0BQjMXBwIIIIAAAggggAACCNghYDk0f/WFk/LU7V1lYK9OfnX9fPdlaZEWuf8W/9B85Fyz/Ptrl+Wl+66xYxz0kWAChOYEm3CGiwACCCCAAAIIIIBAnARCCs2rvthVsgJCc+Wev4fm7430D81155pl9uuE5jjNq+e7JTR7fooZIAIIIIAAAggggAACjhAIKTRfvdosx843+xXerPZmi0ingFudM3smSVKnzqw0O2KavVcEodl7c8qIEEAAAQQQQAABBBBwokBIoTnY9uxj9WelpUVkQEaa3/ja255dVVUlBQUFsn79esnNzZXS0lLj3CVLlhj/V//etGmT8XNRUZGUlJQYP9fW1sqMGTOkrq5ORo8eLRUVFZKeni4bN26UsrIyueaaa+TkyZNSWVkpO3fulHnz5hnnmY914iRQU+gChObQzTgDAQQQQAABBBBAAAEEQhdwXGiuqanxBWo1nNmzZxshWIXjwsJCmTt3ruTl5cmKFSvk6NGjRtDevHmzEZBVCFfv1dfXG8eOGzfO+L/6b9q0aZKfnx+6EGc4UoDQ7MhpoSgEEEAAAQQQQAABBDwnEFJofmL0p5LS2d+g6eIlaWlJkh7du/q90XRV5JHqnkG3Z7e30nzkyBHfarJqcNmyZUbY1eeYO9EryFu3bjVWmlW4zsnJkaamJr/V6ilTphjhOiUlxXMTmKgDIjQn6swzbgQQQAABBBBAAAEE7BUIKTQvy2uWvt38Czx97ryo75zqk9rD742GiyLzqjqFHJp1sFUryeXl5UabKjgPHjzYtwKtVpPNL709W4dm/Z45aBOc7b2wYt0boTnWwrSPAAIIIIAAAggggAACSiCk0Byte5r1vckzZ86USZMmGduns7OzjdVgtT07cEu22lqtj1NbrouLi42V5MzMTON+58DQrLdn6y3Z5q3crDZ748InNHtjHhkFAggggAACCCCAAAJOF7Acmu/5zUlZ8U9dZVCq//c0t/UgsMONzTL3jcvy4rdbf0+zefv0xIkTDaO0tDTfFmrzKrN5hdi8chzsQWDmlWbzsVlZWb6t206fEOqzJkBotubEUQgggAACCCCAAAIIIBCZgOXQ/MLeJlm47Yxc/cdXTJm7Vd82Ffjrrp1Enri9t9x3M/cRRzZFnB1MgNDMdYEAAggggAACCCCAAAJ2CFgOzXYUQx8IWBUgNFuV4jgEEEAAAQQQQAABBBCIRIDQHIke58ZNgNAcN3o6RgABBBBAAAEEEEAgoQQIzQk13d4ZLKHZO3PJSBBAAAEEEEAAAQQQcLIAodnJs0NtbQoQmrk4EEAAAQQQQAABBBBAwA4BQrMdyvQRdQFCc9RJaRABBBBAAAEEEEAAAQSCCBCauSxcKUBoduW0UTQCCCCAAAIIIIAAAq4TMEKz66qmYAREZFh2pq0OZWVl0tLSIrNmzbK1XzpDAAEEEEAAAQQQQACB+Amw0hw/e3qOQICV5gjwOBUBBBBAAAEEEEAAAQQsCxCaLVNxoJMECM1Omg1qQQABBBBAAAEEEEDAuwKEZu/OradHRmj29PQyOAQQQAABBBBAAAEEHCNAaHbMVFBIKAKE5lC0OBYBBBBAAAEEEEAAAQTCFYhqaL566aycP/M3Sb32c+HWw3kIWBIgNFti4iAEEEAAAQQQQAABBBCIUCAqofnSp4flg7e+LxcbP5bU/oNEWtIk8+b50qPvLRGWx+kIBBcgNHNlIIAAAggggAACCCCAgB0CEYfmC421sn/bdyVrzBhJ6XuNUfPZukPy8V+3y9h735HOXXraMQ76SDABQnOCTTjDRQABBBBAAAEEEEAgTgIRh+Z3f5sn10/8knTu2lXqqmukR3qG9LlukJw+/KFcOttbhtz6TJyGRrdeFiA0e3l2GRsCCCCAAAIIIIAAAs4RiCg0N574qxypmSeDx42Xup01knrNN6TxxA7pNeCSpGUNkiM7d8vAkUukR98RzhkxlXhCgNDsiWlkEAgggAACCCCAAAIIOF4gotB8uem4vPeHeyRn0t1ytHqvdE+9TU599DvpnZUmGcNvlP1//L2M/ed3WiFUVVXJhg0bZMmSJZKSkuJ7v76+XubMmSPz58+XnJycDn+vDti4caMcOHBASkpK2sS2ckxtba0sXbpUVq5cKenp6Y6fuEQvkNCc6FcA40cAAQQQQAABBBBAwB6BiEKzKnHfn78umWNuki7JyXJ0117j/9eOGC6NRz+Wc8e6yPW3lVseSTih2XLjHRyogvzy5culoqKC0Bwt1Bi2Q2iOIS5NI4AAAggggAACCCCAgE8gotC8+6Uvy6DPjZbknr3k0qdnJblnmtFwU8MpOfTW65L7jTekc9fUVtzmlWb1ZmlpqWzatEmmTJkiZ8+ebXOleeDAgfLrX/9asrKypLKy0liNNq8iq3YLCgqM9++44w7p1auXsQKtjyksLDRWsgPbUSvL6r3q6mopKipqd9Waa8cZAoRmZ8wDVSCAAAIIIIAAAggg4HWBsEPzni3/S7LGjJBuqb2l8VidnDncIJ+erJXufTIlqaWr3Djp/xNJ6hLUzxyaN2/eLNu3bze2atfU1Mjs2bN9gVifrFagVagdN26cLwTrc9T5anu2el/9N3fuXMnNzTWCeGZmZqvQrI6ZNm2a5Ofny4oVK4wuVLBmpdldlzqh2V3zRbUIIIAAAggggAACCLhVIKzQ/N4rU2TAqGHSLa23XDr/qZzcVy85//Rzab56QZrOfCA900e266FD86JFi2Tx4sUyfvx4I8S2tz1bB+K8vDwx33+8detWIzRPmDDBb3u1eQXavNJsbidwlZrt2e65jAnN7pkrKkUAAQQQQAABBBBAwM0CIYfm9/74z9L/pkHSvU9fY9wH33pLrhuzXHpdM9ayA6HZMhUHtiFAaObSQAABBBBAAAEEEEAAATsEQgrN+/70bcm4oZ/06Jshl5vOy4n390qXbl3k/KkrcvPdv7Ncb7y3Z6st3GrFmpVmy1PmuAMJzY6bEgpCAAEEEEAAAQQQQMCTApZD88G/zJFemU2S0jdDLp07K8m90uT9l34r1+bky6f1NTL01lXSLXWwJaRwHgSm72kuLy+P6EFgbW3PVlu+Z8yYIffccw8PArM0i/E9iNAcX396RwABBBBAAAEEEEAgUQQsheYrF0/L/tenS/YXxkrjsU/kzKHT0tx8Wrp06yq9+/9vuTZnqqO8mpqajAeB6XulHVUcxURFgNAcFUYaQQABBBBAAAEEEEAAgQ4ELIVm1cb509Vy6K+PSK9rx8mg3PnSeGyHHHh7rnRJ7is33/XbuEPrJ2yrr41SL/X1VeqJ3CkpKXGvjQKiL0Bojr4pLSKAAAIIIIAAAggggEBrAcuhWZ16+cIp6do9w6+V8w17pUffm7FFwFYBQrOt3HSGAAIIIIAAAggggEDCCoQUmhNWiYE7ToDQ7LgpoSAEEEAAAQQQQAABBDwpQGj25LR6f1CEZu/PMSNEAAEEEEAAAQQQQMAJAoRmJ8wCNYQsQGgOmYwTEEAAAQQQQAABBBBAIAwBQnMYaJwSfwFCc/zngAoQQAABBBBAAAEEEEgEASM0J8JAGaP3BIZlZ9o6qLKyMmlpaZFZs2bZ2i+dIYAAAggggAACCCCAQPwEWGmOnz09RyDASnMEeJyKAAIIIIAAAggggAAClgUIzZapONBJAoRmJ80GtSCAAAIIIIAAAggg4F0BQrN359bTIyM0e3p6GRwCCCCAAAIIIIAAAo4RIDQ7ZiooJBQBQnMoWhyLAAIIIIAAAggggAAC4QqEHZp3nT4upy6c9+s3o3sPGdWnX7i1cB4ClgUIzZapOBABBBBAAAEEEEAAAQQiEAgrNL95/LD84LX/ksxevf26PnrujDx529dkUubQCEriVAQ6FiA0d2zEEQgggAACCCCAAAIIIBC5QFih+Re11bL/XIM8MGa8XwVr390uw3v1le/mjI68MlpAoB0BQjOXBwIIIIAAAggggAACCNgh4KnQXF9fL3PmzJH58+fLqVOnZMOGDbJkyRJJSUlp17KpqUlKS0tl/Pjxkp+fb4e70ceKFStk6NChtvZpZXAbN26UAwcOSElJiZXDgx5TVVUlhw4dksmTJxu2mzZtMo4rKirytVtbWyszZsyQurq6Vu911DGhuSMh3kcAAQQQQAABBBBAAIFoCIQVmpdWvyYVe96WXsnd/Wo4d+mCFI68VeaPvj0atUXUhgptTg7N8QrqEaFaPFl9eFFRUSHFxcWyefNmXwBXvy8sLJRp06YZHxSEMkeBXROaLU4GhyGAAAIIIIAAAggggEBEAmGF5mf2VskrRz6QLwwc4tf5yx++L/cOGykP3ZzXYVFqNXPevHnGcXr1UQfJ0aNHy89+9jNjBVKFL7VKqf4LPE6vXk6ZMsVYUVbnd7TSrPtQ52ZlZUllZaUMHDjQWA1NTU2VP//5z0a/69evl7y8v49DrQiXl5cbP6vaVE3qpfpS5+7evdv43f79+6WgoMA3dt2GeUVV16rCpBq/riE9Pd0IlNXV1b7f5eTkGMFy7dq1RpsjRozwW/01r1TrQDp37lzJzc31W90N9NE1jxkzRm666SYjwKoaly5dKitXrpStW7caQVeFXuWSmZnpG78ek9lRtX/27FljhV/VrOZ28ODBPj/zxWCuOZIVbUJzh39iHIAAAggggAACCCCAAAJREAgrNLd1T/Njb/xeJgwY0uE9zeYVRjUGFcymTp3qC3vqdyoEq2BZVlZmBFu13Xr58uVGOL1w4YIxdBU4zVuyVfDsKDSroLZ9+3aj/ZqaGmM1etGiRbJ48WKjTd2vPkaFw4aGBrn++uuNUK5rHT58uN+qqTpXjUsHbR0IdfDUW791aNTbltXv9c/KQJ1v9lE1zp492zBQgdT8Mh935MgRWbdunRFcVb1t+QSu9G7bts0I4uYAG1i7Cs36GO2i5sbsqGtUgVyF7+nTp7eq1zxX+oMK/cGH/vAgcIxtXeOE5ij89dMEAggggAACCCCAAAIIdCgQdmjedfKoFOTk+nXwVM2b8pXBN3QYms2rzLoBtYocGDADQ6FeCVXhONiKsZXQHOw+4sCt0sG2DZtXm9Vqqw7NamVXB2UdnPVqsxqTCqk6yJsDobnPSZMm+VaZtYcOkeYPC9T4zC8VQlXYV6FfrQ6rl74nuy0fVY+u2Xy++jBiwoQJxljaCvzaRX/IoD8ICPzgQtdkrtf8gYPZS49Hta0/FAkcZ7CrmNDc4d82ByCAAAIIIIAAAggggEAUBMIOze8eOyL5Q2/yK+GZvW/LXUNutBSagz1oqr3wqlZSdWjW26B1eNWhNBahWfWrHlY1c+ZMvxXhwNCsa1cgerVajdFqaA4WrHUIby9MqjD/+c9/3thWrld3VQBVwT2Yjzk0q/bV+bfccov84Q9/MMK3Mox2aDaH6rZWktX2cGWgtodbWW0mNEfhr58mEEAAAQQQQAABBBBAoEOBsENzsK+cCmV7tnk7r35ytXnLcuCDogJDs37Il3n7spXQHLg9WwXS1atXy6pVq3xPz25rhVuFPxWg1bFthWbzNnO1rTnY9mw1K+bf63HrbdDmVVf1AUF7oVkdu2zZMhk1apSxNVs9Kbyt7d36vmnz6rgKq88++6xx37J+WnZHoTlwC7t5DgK3Z5tXswNXns3buM3z0tHTzpUfobnDv20OQAABBBBAAAEEEEAAgSgIhB2a/9ZYL/86epxfCY+/+bJMzBza4UqzOqm9B4Hpbb9thVd1vn5o1ne+8x1pbGw07olWQbaje5r16qp+sJdajdUPzgrWrzpef2WSeuCVeliYCqh6S7U5gOoxqa3V999/v/FQL/2AMl2vfpCYCpBqlffFF1807ldu70Fg7YXmYE/h1g8FU/0H+gSuNAfbNm0lNAe6BD4ITL2vPvgwb2vXF4sK+frhY/orp7inOQp/zTSBAAIIIIAAAggggAACURcIOzRXHf5QvtbP/+nZlYf2yD3DR1kKzVEfCQ2GJWB+araVe4mDdRJ4P7L5K6esrBqHUzgrzeGocQ4CCCCAAAIIIIAAAgiEKhB2aI5ke3aoRXJ8bAT0vc965TeUXgIf5mb+ii7VjnpfvfSDyUJp28qxhGYrShyDAAIIIIAAAggggAACkQoQmiMV5Py4CBCa48JOpwgggAACCCCAAAIIJJxAWKH55boP5Mc12+WzA67zA3v10H5Z9LkvyV1Z1yccJAO2V4DQbK83vSGAAAIIIIAAAgggkKgCYYVmhfWrD3fJR2cb/Nyu750h04aOTFRLxm2jAKHZRmy6QgABBBBAAAEEEEAggQXCDs0JbMbQHSBAaHbAJFACAggggAACCCCAAAIJIEBoToBJ9uIQCc1enFXGhAACCCCAAAIIIICA8wQIzc6bEyqyIEBotoDEIQgggAACCCCAAAIIIBCxQNxC84oVK6S8vNwYQFZWllRWVkpOTo6sWbNG7rzzTuNnXgi0JUBo5tpAAAEEEEAAAQQQQAABOwTiEpqbmpqktLRUpk6dKnl5eX7jrK+vl4qKCikuLpaUlBQ7DOjDhQKEZhdOGiUjgAACCCCAAAIIIOBCgbiEZhWM58yZI/Pnzw+6orxx40YZPHhwq0DtQl9KjpEAoTlGsDSLAAIIIIAAAggggAACfgJxCc1VVVVSUFDgK6SoqEhKSkp8/1bvb9u2ze93zBsCZgFCM9cDAggggAACCCCAAAII2CEQl9BsHpjeqj1+/HjJz8833qqtrZV169YZK9Fs0bbjMnBfH4Rm980ZFSOAAAIIIIAAAggg4EaBuIdmhaYeCqZeerWZ0OzGS8nemgnN9nrTGwIIIIAAAggggAACiSoQl9Bs3n6t7m8uLCyUuXPn+u5hZnt2ol6O1sdNaLZuxZEIIIAAAggggAACCCAQvkBcQrNeXdZfORV4T7NaeZ4wYQIPAgt/Xj1/JqHZ81PMABFAAAEEEEAAAQQQcIRA3EJzW6PnK6cccV04vghCs+OniAIRQAABBBBAAAEEEPCEgONCM6vMnriuYj4IQnPMiekAAQQQQAABBBBAAAEERMRxoZlZQcCKAKHZihLHIIAAAggggAACCCCAQKQChOZIBTk/LgKE5riw0ykCCCCAAAIIIIAAAgknQGhOuCn3xoAJzd6YR0aBAAIIIIAAAggggIDTBYzQ7PQiqQ+BYALDsjNthSkrK5OWlhaZNWuWrf3SGQIIIIAAAggggAACCMRPgJXm+NnTcwQCrDRHgMepCCCAAAIIIIAAAgggYFmA0GyZigOdJEBodtJsUAsCCCCAAAIIIIAAAt4VIDR7d249PTJCs6enl8EhgAACCCCAAAIIIOAYAUKzY6aCQkIRIDSHosWxCCCAAAIIIIAAAgggEK5A2KF51+njcurCeb9+M7r3kFF9+oVbC+chYFmA0GyZigMRQAABBBBAAAEEEEAgAoGwQvObxw/LD177L8ns1duv66PnzsiTt31NJmUOjaAkTkWgYwFCc8dGHIEAAggggAACCCCAAAKRC4QVmn9RWy37zzXIA2PG+1Ww9t3tMrxXX/luzujIK6MFBNoRIDRzeSCAAAIIIIAAAggggIAdAoRmk/LGjRtl+/btsmTJEklJSbHDX1SfBw4ckJKSElv6s9pJVVWVbNiwISIL1cahQ4ckPz/fGOe8efOM7kePHi0VFRWSnp4utbW1MmPGDKmrqzPeKyoqsmRBaLY6kxyHAAIIIIAAAggggAACkQiEFZqXVr8mFXvell7J3f36PnfpghSOvFXmj749kpridm48QvOKFSuM8TotNEc6CfX19UYwLi4uliNHjsjSpUtl5cqVRlBWYz569KgRyGtqasIK54TmSGeI8xFAAAEEEEAAAQQQQMCKQFih+Zm9VbKhtkZuSPd/6Ne7xz6W7930OXno5rx2+1YrkGvXrjWOefXVV2XKlCm+Fc3Alcdly5b5Vip37doljY2NsmnTJmNFcujQocbqZVsrl+bfBxakglt5ebnx6/Xr10teXp6xGrplyxZfXeZVT/Pxul21Gl1aWiqZmZny4osvSmVlpZw6dUoKCgp83em2m5qajGNV7VlZWa2O1ceZ+9FjN3uNGDHCL2AHrgibQ3iwmlVhc+bMkYEDB8ru3bvlwQcflJdeesnwVy9V49SpU42f1UrzokWLZPHixcYYA73UMbqPiRMnGuc88MADPsvBgwcbPwe+zDVv3rw5rJV2QrOVP2+OQQABBBBAAAEEEEAAgUgFwgrNbd3T/Ngbv5cJA4Z0eE+zCk2zZ882gqNaeSwsLJS5c+caAUsF45ycHGN7dGC4KisrM85RL7Wld+bMmTJp0iTf+cOHDzcC4fz584022tr6rNpdvny5sRKqVkT1KujWrVvF3IdqS6+ONjQ0yPXXXy86/KpgmZub6wvNeqVYta2Dorl/8yq2eXV19erVxnjU+ebjVV16LCqIay81LvPLfJwKwmos06dPN1yD1ayMlPe0adOMDyPU+SoUq3Bstti/f3+r0Kxr1FvY1TjMjmpOVq1aZbjoOgLr1UFbfeAxefJk3wcJ6vf6w4Rg5wRe6ITmSP/0OR8BBBBAAAEEEEAAAQSsCIQdmned+kS+k5Pr18eTNW/IV667wVJo1mFLr9aqEKrDpnm1Wa9CqxVJHdZUcNWBUgVFvTqakZHhd3+sKi7YanNbYdocbM196BAXuDqtQ/P48eONAKpfKjjr1Wa9Wq3OVUHRfJwOkDo0m9vXbanVZrViq71UGA58qfMmTJggavzr1q0zPjTQ92QH1qxDs/6QQtegzlevbdu2GQFef2ChV5r1GM0fZJgDv/nDBNWHDuKB9bZ3D7f5w4xg4zSPm9Bs5c+bYxBAAAEEEEAAAQQQQCBSgbBDs9qKfe+Qm/z6f+a9v8jdQ26MKDSrkLdjxw5jFVivdqqtw1ZDs/ne2bZwQg3Nqh29sq1XR80rzTpQ6uCojtc164d8WQ3NwYJ1R2FSva/CrjpXvVQw1x88qNV4c83BQrM+X52rwrP68CIWobktAz1Pqma9ut/RajOhOdI/fc5HAAEEEEAAAQQQQAABKwJhh+ZgXzkVyvbstlaazcHK/MAoK6E5cOtxWw/2CtyerYPazp07g65mK0gdxtUWZvM2ZLXKHRiag23dDtyercevPhxQL731+fnnnzc+MFAvvW1d/dzeSrPeot3c3CwLFiwwtqarABqs5mChWYV9tWq8b98+33Z0K6E5lO3ZejXcfI+z6te8jTuUB7ERmq38eXMMAggggAACCCCAAAIIRCoQUWj+19Hj/Pp//M2XLd/T3FZoNm9tVluDX3/9dSPIqfuNO9qerQKZeWt3ew8CM38FkvlhY+31oR7ipbaLp6amyqhRo3wruObt2bpddX/u/fffL9XV1b6HnLX18DH1MLOOHgTWXmhWkxAYOM0PHjPXbL4H3BxgA1ffrYRmtQW8vQeBqbrUqrd5TvUFo7fdqydr66+c4p7mSP+cOR8BBBBAAAEEEEAAAQSiLRB2aN5x6AP56rWD/er5xcfvyT3Dczvcnh3tQdBeZALm+5GDPe3aSuuBW6vNXzkVi++8ZqXZyqxwDAIIIIAAAggggAACCEQqEHZojmR7dqRFc370BFS4VdvAs7OzfSviVlsPXEHWK/b6fLV6rV6BDz+z2n57xxGao6FIGwgggAACCCCAAAIIINCRAKG5IyHed6QAodmR00JRCCCAAAIIIIAAAgh4TiCs0Pxy3Qfy45rt8tkB1/mBvHpovyz63JfkrqzrPQfFgJwlQGh21nxQDQIIIIAAAggggAACXhUIKzQrjF99uEs+Otvg53J97wyZNnSkV60Yl4MECM0OmgxKQQABBBBAAAEEEEDAwwJhh2YPmzA0FwgQml0wSZSIAAIIIIAAAggggIAHBAjNHpjERBwCoTkRZ50xI4AAAggggAACCCBgvwCh2X5zeoyCAKE5Cog0gQACCCCAAAIIIIAAAh0KxC00r1ixQsrLy40Cs7KypLKyUnJycmTNmjVy5513Gj/zQqAtAUIz1wYCCCCAAAIIIIAAAgjYIRCX0NzU1CSlpaUydepUycvL8xun+t7giooKKS4ulpSUFDsM6MOFAoRmF04aJSOAAAIIIIAAAggg4EKBuIRmFYznzJkj8+fPD7qivHHjRhk8eHCrQO1CX0qOkQChOUawNIsAAggggAACCCCAAAJ+AnEJzVVVVVJQUOArpKioSEpKSnz/Vu9v27bN73fMGwJmAUIz1wMCCCCAAAIIIIAAAgjYIRCX0GwemN6qPX78eMnPzzfeqq2tlXXr1hkr0WzRtuMycF8fhGb3zRkVI4AAAggggAACCCDgRoG4h2aFph4Kpl56tZnQudTh5QAAIABJREFU7MZLyd6aCc32etMbAggggAACCCCAAAKJKhCX0Gzefq3uby4sLJS5c+f67mFme3aiXo7Wx01otm7FkQgggAACCCCAAAIIIBC+QFxCs15d1l85FXhPs1p5njBhAg8CC39ePX8modnzU8wAEUAAAQQQQAABBBBwhEDcQnNbo+crpxxxXTi+CEKz46eIAhFAAAEEEEAAAQQQ8ISA40Izq8yeuK5iPghCc8yJ6QABBBBAAAEEEEAAAQRExHGhmVlBwIoAodmKEscggAACCCCAAAIIIIBApAKE5kgFOT8uAoTmuLDTKQIIIIAAAggggAACCSdAaE64KffGgAnN3phHRvH/t3c/wFWd5b7Hn5bakh7on0BtEyppbFKkCmm1CjfqhCvn4tVSxtOaa6CKg01hrFLqDCF/nIzOyUz+MqMDU2wwI9NogRkqd07g0BatbUQj+A8DnHYw6USgBFtNqIANpZTced477z7v3tlJVvbea++9dr57xpEma73reT/vhpnfft61NgIIIIAAAggggAAC6S5gQvPUqdeme53Uh0CYwMWLl+SDeTlJVdm0aZMMDw/LunXrknpdLoYAAggggAACCCCAAAKpEzChOffWGamrgCsjEINA/xsDhOYY3DgFAQQQQAABBBBAAAEEJibA9uyJeXF0mgiwPTtNFoIyEEAAAQQQQAABBBDIcAFCc4YvcKZOj9CcqSvLvBBAAAEEEEAAAQQQSC8BQnN6rQfVeBQgNHuE4jAEEEAAAQQQQAABBBCISyDm0HzsrTfl7xeHwi4+c2qWfOSm98dVECcj4EWA0OxFiWMQQAABBBBAAAEEEEAgXoGYQnPXm6dkdeduuX36zWHXP3XurPxw0YNS/P4PxFsX5yMwpgChmTcIAggggAACCCCAAAIIJEMgptDc/lq39Fw4K48WFYfV+MPuLimcdrOsvLMoGbVzjUksQGiexIvP1BFAAAEEEEAAAQQQSKIAoXkC2IODg1JRUSHV1dVSUFAw7pl6fHl5uVRWVsqCBQvGPT4RB0y0xkRc08sYQ0NDUlNTI2VlZQmxIDR7UecYBBBAAAEEEEAAAQQQiFcgptDc0H1AdvZ0S+60G8Ou33/hH1JWWCTVRZ+Ot660PH+igTQVobm3t9cE+5aWFk/BPi2hPRRFaPaAxCEIIIAAAggggAACCCAQt0BMofnJV34r23u7ZU52+EO//vTmaXnkQ/fJN+7+xJiFHTp0SHbu3CnTp0+XZ555RpYtWyb19fWSlZUlGvpWrVol/f39ZozGxkYpLS0N+3lubq5s27bNhMJdu3ZJVVWVOdaOs3fvXunr65MNGzaIvZaOf/r0aWloaDCBUq+lnc+Ojg6JHK+rq0tOnDghy5cvl6VLl4aO0/HPnTsXtdPs1m3r0O6qdpoXLlwora2tYdcZbZ5a79atW8185syZI2vXrg1d352j1q/Hrlixwhy7Zs2asGNtDTpn61lUVCRtbW2huefk5MiePXtCljpOZEfYDeH6+2hro2tgzR566CH5/e9/H+ooW//a2lqpq6szP9eXnePLL7886vrrnM6cORN6b7hvKkJz3H/3GQABBBBAAAEEEEAAAQQ8CMQUmke7p/m7v35OFt12x7j3NNuwt337dpk/f74JhcXFxSYcHz161IRhGwo1XGvg3bx5s+Tn55tjNKRpKNZAardLz5o1K7T9d8aMGaFwfPDgQTl27Jg8+OCDMjAwYMK6HU99bLBuamoygfLFF1+UHTt2mD9nZ2eba2kg1HOOHDki69evDwuZbtC0c2hubja1Ll68OBSa9Tr6c3vN0eYZeQ374YEGe7fTrbXZrd/WUAOpzt12mvUYdzu5dbNBXEOz1hX5ssdZm87OTnPcaDXrhxSRZjqmrpW1sB8+2NBsHaPNw3UkNHv4W8whCCCAAAIIIIAAAggg4JtAzKH52MBf5eHCe8IK2/inA/K/Zhd6Cs02vGo4dkOaDhita6thUruqbldYj9VQpl1ct1ttw+UTTzwhzz33nHzkIx8xYfLkyZOmXjfA6b3Gbhg9fPhwKCTrsW6gH2179lg/d+9p9jpPG+A1ULqh3O2K689t19weZ+1saNb/djvD+t/abdYPIDZu3Bj6oCLy3aX+7e3tpqOux5aUlITuQ462Nhqa7QcLdreAnq/+3//+92XlypXifqih17NztB3/yMCvH5y4uwT0OPdFp9m3fxMYGAEEEEAAAQQQQAABBByBmEPz4b+ekgdnfygMc8vx38vn8ufGFZo1BGt3WDu9PT09oc6wDU12O7Ybku2WYg2Vdju3jqNh+W9/+5t88pOflN27d8uFCxdGBLhUhebR5qkfDrih2e3KFxYWhjrHXkNztGBtvWxHN/JvhP5ez7v//vuNv26t1mA+Ws2Rodmer9vSdS01fNsPIGynmdDMv0MIIIAAAggggAACCCAQBIGYQ3O0r5yayPZsuz3XdiAjtzbbrb12e67b8bQdSB1DO6ZuqHO3cO/bt08+//nPm86ynn/8+HFzP7MNgLpA0bZnu13TWLdn69jaZR6t02y3LUfOM1potl15d+v2aNua77333rDt2Xp9vTfbbmvXudn7i0cLzVq7zlv95s6dG9rCPVrNkaFZz9c1euqpp4y/Xtu9V1p/Hy00R27V1+uxPTsI/4xQIwIIIIAAAggggAACmSuQ0tA8c+ZMc5+w2zV2H26l4e7AgQMm6NoQ2t3dHbZF2z0+2gPFNFRrN9m9n1jHcrvT0R4EZh9M5h431oPA7JOytT77wC1bs/3Kqch7he1DvNx5anfd7TS74z788MNy/vz50EO2xnr4WF5enrkPe6wHgY0VmqM9+Xu0tdH7wN0PGnTekVvWvYRmXSd3TjwILHP/4WFmCCCAAAIIIIAAAggERSDm0HzwRK/875l5YfNsf/1VWTZnvqft2ZH37QYFjDq9CYx1P7K3Ef7//er6ivawMu5p9qrIcQgggAACCCCAAAIIIBCPQMyhOd7t2YTmeJYtvc+1953r09G1e+z15Xb19RzbsXcfdGbHIjR7VeU4BBBAAAEEEEAAAQQQiEcgJaE5noI5FwEVIDTzPkAAAQQQQAABBBBAAIFkCMQUmp898aq0vfo7ue+22WE1vnSyR75V9Cn5Yt7cZNTONSaxAKF5Ei8+U0cAAQQQQAABBBBAIIkCMYXmofcuy4/+/EcZfGcorNQZU6+XVYX3StaUa5I4BS41GQUIzZNx1ZkzAggggAACCCCAAALJF4gpNCe/TK6IQLgAoZl3BAIIIIAAAggggAACCCRDgNCcDGWukXABQnPCSRkQAQQQQAABBBBAAAEEoggQmnlbBFKA0BzIZaNoBBBAAAEEEEAAAQQCJ5DS0LxlyxZZsmSJzJo1S2pqaqSjo8MArlmzJvTdvPp9vytWrAjBNjY2SmlpqYz29USDg4Oyf/9+eeyxxwK3GBTsXYDQ7N2KIxFAAAEEEEAAAQQQQCB2gZSFZg3DJ0+eNAFYv9e3r6/PBGUNveXl5bJ8+fIRv3OnqcdVVFRIdXW1FBQUhAnoeLNnz57QdwTHTsiZqRAgNKdCnWsigAACCCCAAAIIIDD5BFISmrVLvHnzZhOOs7OzR6g3NzdLfn6+Cc3un90De3t7paGhQVpaWkaMoYG6ra1N1q5dK1lZWZNvVSfBjAnNk2CRmSICCCCAAAIIIIAAAmkgkJLQrIG3vb3ddIkjQ63bQdZArcG6u7vbUBUVFZkwrD/XbnJVVVWI0G7b1h9oKNdAvXLlyhFd6DQwp4QECBCaE4DIEAgggAACCCCAAAIIIDCuQEpCs27N7uzsDN23bKu09ymXlZVF3VqtQbmrq0vq6+vDwrbd0l1ZWRk6TzvUJSUlbNEe9y0QzAMIzcFcN6pGAAEEEEAAAQQQQCBoAmkTmse6R9miathuamoKdZsjw3ZxcbHZ0q0vQnPQ3ooTq5fQPDEvjkYAAQQQQAABBBBAAIHYBFISmiO3Z2tgrqurk9ra2rD7kyN/rkFYX/rAMO0660tDso6nDwXT+5v1oWBsz47tzRCkswjNQVotakUAAQQQQAABBBBAILgCKQnNkaFWw3Bra2uYor1H2f3KKfee5sivnHLvaR7rnungLhWVuwKEZt4PCCCAAAIIIIAAAgggkAyBlIRmnZj7lVOJnihfOZVo0fQbj9CcfmtCRQgggAACCCCAAAIIZKJAykKzX1uo6TJn4tt05JwIzZNjnZklAggggAACCCCAAAKpFkhZaE71xLl+sAUIzcFeP6pHAAEEEEAAAQQQQCAoAoTmoKwUdYYJEJp5QyCAAAIIIIAAAggggEAyBAjNyVDmGgkXIDQnnJQBEUAAAQQQQAABBBBAIIqACc1Tp14LDgKBErh48ZJ8MC8nqTVv2rRJhoeHZd26dUm9LhdDAAEEEEAAAQQQQACB1AmY0Jx764zUVcCVEYhBoP+NAUJzDG6cggACCCCAAAIIIIAAAhMTYHv2xLw4Ok0E2J6dJgtBGQgggAACCCCAAAIIZLgAoTnDFzhTp0doztSVZV4IIIAAAggggAACCKSXAKE5vdaDajwKEJo9QnEYAggggAACCCCAAAIIxCUQc2g+9tab8veLQ2EXnzk1Sz5y0/vjKoiTEfAiQGj2osQxCCCAAAIIIIAAAgggEK9ATKG5681Tsrpzt9w+/eaw6586d1Z+uOhBKX7/B+Kti/MRGFOA0MwbBAEEEEAAAQQQQAABBJIhEFNobn+tW3ounJVHi4rDavxhd5cUTrtZVt5ZlIzaucYkFiA0T+LFZ+oIIIAAAggggAACCCRRIK1C89DQkNTU1EhxcbGUlpYmkcHfS9l5lZWVyYIFC3y72ODgoJSXl0tlZaWv13EnoNesqKiQ6upqKSgo8G1ukQMTmpNGzYUQQAABBBBAAAEEEJjUAjGF5obuA7Kzp1typ90Yhtd/4R9SVlgk1UWfjgmV0BwTW+ikVITm3t5eE5pbWloIzfEtH2cjgAACCCCAAAIIIIBAGgrEFJqffOW3sr23W+Zkhz/0609vnpZHPnSffOPuT4w51UOHDsnOnTtl+vTp8swzz8iyZcukvr7enKOdZv35Sy+9JP39/bJ9+/ZQ13TXrl1SVVVljmtsbDTdaNvpnDVrlhkrNzdXtm3bZgKcDZHd3d1hPx+tuLHG0mt3dXWZOjXc2+7qwMDAiLnofLTja2vR2nReOTk50traai4/2rzWrFkjGzZsCJvXsWPHpK2tTbKzs0Ola1hdtWqVMbJ+Wpded+HCheY6roV7vOuna7F161Yz7pw5c2Tt2rWm1o6ODvMzO3ZWVpbosStWrDA/1zrdY+1xp0+fDtVVVFRk6tZz7fz37NkTWh8dJ7IL7zWE02lOw39NKAkBBBBAAAEEEEAAgQwUiCk0j3ZP83d//Zwsuu2Oce9ptuFLg+P8+fNDW7KXLl1q/qwvDad79+4NBdUjR45IU1OTCWH6stuQCwsLzZ+XL19uQnRzc7P5vQ10dku0Deo6roa4aC8bsiPH0hA7VmjWIKlzsbVoaLXX163mkfNy59LT02NCt/uhgdYcOS+33siOvM45Pz9fFi9eHArNWrO10D8fPXrUfJBgw6+9ptayfv36UJDVEK4vDdzu1msN7NbcrpnWOWPGjFCnWY9xt2qrWV9fX8hCPzTQWiJf9jj9na5TZ2dn1OPc8wjNGfivEVNCAAEEEEAAAQQQQCANBWIOzf81+IY8XHhP2JQ2/umA/OsHCjyFZhvaNMRFhit7T7MbdDVAawCzoSsyKNr7eO1YGvD0f9plti+38zpWaI4ca7zQbMO87ajaoG5rtKHZzssNo4cPHw51z21N2sW19Ue7P3m0+4gjt2e7YVTHjtaddgO87WTbUK7dZmum5zc0NJht2JEdb7s9W4+x3W87F+02b968WTZu3DjqvepaV3t7u7kvWo8tKSkZ955sQnMa/mtCSQgggAACCCCAAAIIZKBAzKH58F9Pyb99YE4YyQ/+/Af5XP7ctAnNE31A1Vihc6xOc7yh2f0wwIKOdX9yLKFZA/zBgwdNp97tbkeGZncXgHa7raHX0BwtWI93r7r+Xs+7//77Tde9trY2LJhH+3tHaM7Af42YEgIIIIAAAggggAACaSgQc2iO9pVTE9mebbcE2/t93W3M0TrN423PjuwO2+3RdkuwhkEbbt1OqbsmY4Vm93wNnbZ+vafZa2jWa+k27Mjt2dEs7FbraJ3maNuzdezI7rTbabZdb7uF/cyZMyNqURe3u+9u3Y62PVvX6d577w3bnu1ulbcfNGgIrqurG/Op6Hrsvn37ZO7cueNuzda5EprT8F8TSkIAAQQQQAABBBBAIAMFUhqaZ86caQJk5IPAooVmu4072oPA3K9ZcoNiLA8C8zKW1nvu3DmznXgiodnLA87cB4GN9fVR7tzsA7dscI62vdx9iJeG2AMHDpit1voBgPthgjvuww8/LOfPnxe73Xysh4/l5eWZED7Wg8DG+iqxiT75m9Ccgf8aMSUEEEAAAQQQQAABBNJQIObQfPDka/K5mXlhU3r69Vdl2V3zPG3PHq/rm4ZWlJRGAoTmNFoMSkEAAQQQQAABBBBAIIMFYg7Nuj37kXkLw2j+vesFWZTj7enZqQrNkV+95E7A/RqoDF7zjJgaoTkjlpFJIIAAAggggAACCCCQ9gJxheZHi4rDJuj1nua0V6HAtBcgNKf9ElEgAggggAACCCCAAAIZIRBTaH72xKvS9urv5L7bZochvHSyR75V9Cn5Yt7cjMBhEukrQGhO37WhMgQQQAABBBBAAAEEMkkgptA89N5l+dGf/yiD7wyFWcyYer2sKrxXsqZck0lGzCUNBQjNabgolIQAAggggAACCCCAQAYKxBSaM9CBKQVMgNAcsAWjXAQQQAABBBBAAAEEAipAaA7owk32sgnNk/0dwPwRQAABBBBAAAEEEEiOAKE5Oc5cJcEChOYEgzIcAggggAACCCCAAAIIRBUIZGg+dOiQ7Ny5U+rr6yUrKyumpdWvntq/f7889thjsmvXLqmqqjLjFBUVSVtbm2RnZ8vQ0JDU1NRIR0fHiN81NzdLa2ur+Xlubq5s27ZNCgoKZMuWLbJkyRLzZ17+CRCa/bNlZAQQQAABBBBAAAEEEPhvgUCG5ngXUMPw5s2bpby8XAYHB6WhoUFaWlpMUNYwfObMGRPI9biKigqprq4OC8E2TJeVlcmCBQvCytHxNHSvXbs25kAf7/wmw/mE5smwyswRAQQQQAABBBBAAIHUC6QsNLudWtvd1a6xdnZzcnJkz5498q1vfUsOHDhgAqy+9HcaVPVlO8179+6Vrq4uOXHihHR3d8uaNWtkw4YN5hh7jUWLFpn/Xr16tQm52qk+efKklJaWjlgBt4t9+vTpsEBtD9ZgHC1M299r53r27NkjAnXqlztzKiA0Z85aMhMEEEAAAQQQQAABBNJZICWhWUPn2bNn5c477wxtgdYwPH/+/FBo1uCrx9XV1UltbW1YR7inpycsNO/YscN0d22Y1a7xwMCANDU1hX6+atUq2bhxowmyGqZLSkqihlr9XX5+vgnU7rZtXcTGxkbzcw3WK1asCK2rG9T1h/r7zs7OUHhP5zdAUGsjNAd15agbAQQQQAABBBBAAIFgCaQkNFsit9u8ffv2UGguLi4OdYFtwNVzbBB1u8G20xy5nXr37t3mMhq+3e3UGsx1O/bKlStH3HesIbmvry9q2NVArtu5Kysrw8K2HdutWe+Xbm9vN9u6Y73nOlhvo+RXS2hOvjlXRAABBBBAAAEEEEBgMgqkJDRrqNTO7+OPPy5Lly4Nbbu2nWY3gNqurS6O7Q77EZrdDnO0N0K0cOyGfxvQ9f8Jzf7/VSI0+2/MFRBAAAEEEEAAAQQQQEAkZaHZPnxLO7h263S00Gwf2nX8+PHQw7q8hOaJbM8ebbu2dp71pVuyNQjrfcx267ftekfrQLM92/+/WoRm/425AgIIIIAAAggggAACCKQoNLtf5bRs2TKZPn26zJs3L9R1djvNukiR26a9hGb9yqexHgTmbvV270/W62lN7sPH7FdO2Xua9Rh3a3nkPc1j3TPNmy4xAoTmxDgyCgIIIIAAAggggAACCIwtkJJO80QWZayvd/I6jtsl1jDtfuWUfs1UIl985VQiNUcfi9CcHGeuggACCCCAAAIIIIDAZBdI69Bstz7n5eWZzu9EHqoV+YRrt0usi+7XFmq6zMn5K0VoTo4zV0EAAQQQQAABBBBAYLILpHVonuyLw/zpNPMeQAABBBBAAAEEEEAAgdQKEJpT68/VYxSg0xwjHKchgAACCCCAAAIIIIDAhAQIzRPi4uB0ESA0p8tKUAcCCCCAAAIIIIAAApktYELz1KnXZvYsmV3GCVy8eEk+mJeT1Hlt2rRJhoeHZd26dUm9LhdDAAEEEEAAAQQQQACB1AmY0Jx764zUVcCVEYhBoP+NAUJzDG6cggACCCCAAAIIIIAAAhMTYHv2xLw4Ok0E2J6dJgtBGQgggAACCCCAAAIIZLgAoTnDFzhTp0doztSVZV4IIIAAAggggAACCKSXAKE5vdaDajwKEJo9QnEYAggggAACCCCAAAIIxCWQ0NDc//Z5yb1+elwFcTICXgQIzV6UOAYBBBBAAAEEEEAAAQTiFYgpNB89+6Z8/cB/yLRrrwu7/qlzZ6Vt0UPyP95/e7x1cT4CYwoQmnmDIIAAAggggAACCCCAQDIEYgrNT7/2J+m98JY8WlQcVuMPu7ukYNpN8tU770lG7VxjEgsQmifx4jN1BBBAAAEEEEAAAQSSKBBTaG5/rVt6LpyNGpoLp90sK+8sSuIU0udSu3btkq6uLqmvr5esrKykFKbX7Ovrkw0bNiTlel4vcujQIdm5c6dvFoRmryvBcQgggAACCCCAAAIIIBCPQEyhuaH7gOzs6ZbcaTeGXbv/wj+krLBIqos+HU9NgT03FaG5ubnZeKVbaPZ7EQnNfgszPgIIIIAAAggggAACCKhATKG5sfuA7IgSmv/yjwH56oc+JlXjhObBwUEpLy+X7u5uswrbt2+XBQsWiBs6h4aGpKKiQqqrqyU7O9v8edasWXLs2DH5+te/brqY+nr55Zdl2bJloY5mb2+vrFq1Svr7+83vGxsbpbS01Ix99OhROX/+vHR0dMiaNWskPz9fqqqqpKioSNra2sx13PPdn0e+XTSstra2jqj/+eefD9Wl17Bh1j3ejqvd6JqaGsnJyZE9e/bItm3bZGBgQFasWBG6nLVRDz1Wa8/NzR1xrD3OvY6du3Z9t27dasacM2dOWMCO7Ai7ITxazTpG5Frs27fP+OtLaywrKzN/1jWqra2Vuro6M8dILz3GXmPRokXmnNWrV5v3wngvQvN4QvweAQQQQAABBBBAAAEEEiEQU2gebXv2d3/9nCy67Y5xt2e7W4rd0LZ3797Q9ubI0Kwhe/ny5SYA6znr1683wVGDrv6usrLShC0NxgUFBWZ7dOTYmzZtMufoS4P1448/LosXLw6dX1hYGArqOsZoW5913KamJhO09QOAhoYGaWlpkRdffFHca2i41J9rjWfPnpU777xTbPjVYDl//vxQaLbhWse2odG9vvuBwpEjR0Jbnzdv3mzmo+e7x2td9kMHDeLWS+flvtzj9EMJncvKlStHrVmN3LXQ8zUUazh2LXp6ekaEZluj3cKu83AddU02btxIaE7E32zGQAABBBBAAAEEEEAAgYQIxBya/+vsm/Llu+4NK6LlcKf86+0F44Zmt5trO6Q60FidZjcYu6HVdms1hNqw6Y5vu9CjBXINirY7OmPGjLAutdYUrds8WpgerX4bVCO70zY0FxcXmw8D7EvnZ7vNtlut52pn3D1Ojx+tM2zH0m7z7NmzQ+FUA3zkS8coKSkRnX97e7vp7tt7siNrtqHZfkhha9Dz9dXZ2WkCvP3Awnaa7RzdDzLcwO9+mECnOSF/txkEAQQQQAABBBBAAAEEEiAQc2j+w5mT8m+3zwkr4ameP8rnPzh33NAcGQ5tMNVOre1CRus026A2VmjWkHfw4EHTBbbdTt067DU0265xtHBp655oaNbzbGd76dKloZAeGZptcNTjbc32IV9eQ3O0YO16RZuX/l7Drp6rLw3m9oMH7ca7NUcLzfZ8PVfDs4ZeQnMC/nYyBAIIIIAAAggggAACCKRcIObQHO3p2RPZnu2GMxtUNeTa7br659G2YI8Xmm1w1KB55syZUACNFsjdTnPk1uPRHuwVuT3bbsM+fPhw1NCvc7Vz1C3MdhvyaKE52tbtyO3Z1kk/HNCX3fq8Y8cO84GBvmx3Xv9sj48Wmu0W7StXrsi3v/1ts71dQ3O0mqOFZg372jU+fvx4aDu6l9DM9uyU//2nAAQQQAABBBBAAAEEEBhHICWh2X2oldZnt2i7DwjTbdXnzp0LPQjM6/Zsd2uzbg0+cOBA6H7j8UKzdki9PghMQ6w+RExf7sPGxrqGPsRL5zV9+nSZN29eqIPrbs+24+rDvh555BHzsDT7FVajPXxM6xjvQWBjhWadQ+QHBO4auTW794C726gju+9eQrNuAedBYPwbhQACCCCAAAIIIIAAAuksEHNoPnTqNfnczDvC5vb066/IA4XzPG/PTmcYavMuMNH7kaONrB9W2I595MPKoh3P07O9rw9HIoAAAggggAACCCCAQOwCMYfmP58flEfmLQy78r//5gX5nzn5hObY1yNwZ9rdAXl5eaGOuNdJuLsC9BzbsfdyPqHZixLHIIAAAggggAACCCCAQLwCMYfmeO5pjrdozkeA0Mx7AAEEEEAAAQQQQAABBJIhEFNofvbEq/Kfp47LsoJ5YTVuO3pQVt71Ufli3txk1M41JrEAoXkSLz5TRwABBBBAAAEEEEAgiQIxheah9y7Lj/78Rxl8Zyis1BlTr5dVhfdK1pRrkjgFLjUZBQjNk3HVmTMxY3ccAAAVvElEQVQCCCCAAAIIIIAAAskXiCk0J79MrohAuAChmXcEAggggAACCCCAAAIIJEOA0JwMZa6RcAFCc8JJGRABBBBAAAEEEEAAAQSiCBCaeVsEUoDQHMhlo2gEEEAAAQQQQAABBAInkNLQvGXLFlmyZInMmjVLampqpKOjwwCuWbNGNmzYYP482tcS2e8GtucUFRVJW1ub6Fcg7d+/Xx577LHALQYFexcgNHu34kgEEEAAAQQQQAABBBCIXSBloVnD8MmTJ6W0tFR27dolfX19Jijb7/1dvnz5iN+509TjKioqpLq6WgoKCsIEdLzZs2fLggULYpfhzLQWIDSn9fJQHAIIIIAAAggggAACGSOQktCsXeLNmzdLeXm5ZGdnj8Bsbm6W/Px8E5rdP7sH9vb2SkNDg7S0tIwYQwO1dp3Xrl0rWVlZGbNYTOS/BQjNvBsQQAABBBBAAAEEEEAgGQIpCc0aeNvb202XODLUuh1kDdQarLu7u42F3YKtP9duclVVVciosbHRhGx9aSjXQL1y5coRXehkoHIN/wUIzf4bcwUEEEAAAQQQQAABBBAQSUlo1q3ZnZ2dofuW7ULY+5TLysqibq3WoNzV1SX19fVhYdtu6a6srAydpx3qkpIStmhn6Luc0JyhC8u0EEAAAQQQQAABBBBIM4G0Cc1j3aNszTRsNzU1ma3X7rZuG7aLi4tD3WZCc5q90xJcDqE5waAMhwACCCCAAAIIIIAAAlEFUhKaI7dna2Cuq6uT2trasDAc+XMNwvrSB4Zp11lfuiVbx9OHgun9zfpQMLZnZ/67ndCc+WvMDBFAAAEEEEAAAQQQSAeBlITmyFCrYbi1tTXMw96j7H7llHtPc+RXTrn3NI91z3Q6oFND/AKE5vgNGQEBBBBAAAEEEEAAAQTGF0hJaNay3K+cGr/MiR3BV05NzCuIRxOag7hq1IwAAggggAACCCCAQPAEUhaa/dpCTZc5eG/CWComNMeixjkIIIAAAggggAACCCAwUYGUheaJFsrxCLgChGbeDwgggAACCCCAAAIIIJAMAUJzMpS5RsIFCM0JJ2VABBBAAAEEEEAAAQQQiCJAaOZtEUgBQnMgl42iEUAAAQQQQAABBBAInIAJzVOnXhu4wil4cgtcvHhJPpiXk1SETZs2yfDwsKxbty6p1+ViCCCAAAIIIIAAAgggkDoBE5pzb52Rugq4MgIxCPS/MUBojsGNUxBAAAEEEEAAAQQQQGBiAmzPnpgXR6eJANuz02QhKAMBBBBAAAEEEEAAgQwXIDRn+AJn6vQIzZm6sswLAQQQQAABBBBAAIH0EiA0p9d6UI1HAUKzRygOQwABBBBAAAEEEEAAgbgEEhqaL126JNdey0PF4loRTvYkoKH5ub275Rvf+Ian4xNxEA8CS4QiYyCAAAIIIIAAAgggECyBuEPz5cuXZd++fdLb2ys33HCD3HfffXLPPfcES4FqAyegofn/Prtdnn76admwYYN8+ctf9n0OhGbfibkAAggggAACCCCAAAJpJxB3aP7e974nH/3oR+WWW26Rnp4e6evrk2uuuUa++c1vpt1kKShzBOz27AsXLkhzc7P84he/kMrKSnnggQd8mySh2TdaBkYAAQQQQAABBBBAIG0F4grNO3fulLlz58r06dPlpZdekoKCAvO/Y8eOya9+9St54oknZMYMvs4qbVc/wIVF3tPc398vTU1NZseDdp5LSkoSPjtCc8JJGRABBBBAAAEEEEAAgbQXiCs019fXy6OPPipPPfWUCcj//Oc/5Q9/+IN86lOfkldeecV0nVesWJH2CBQYPIHRHgT26quvms7zO++8YzrPRUVFCZscoTlhlAyEAAIIIIAAAggggEBgBOIKza2trZKbmytTp06Vj33sY7Jjxw7TeT516pQ8+OCD8uKLL8qHP/xhKSwsDAM5dOiQaJdaQ3dWVlbod4ODg1JRUSHV1dWmYx3va9euXSa4a+fRyyueurzWroEuPz9fSktLvZTEMaMIjPf07IMHD5rO86233ipVVVVyxx13mJF++9vfmvug9fXVr35VPvGJT3g2JjR7puJABBBAAAEEEEAAAQQyRiCu0KzBNycnR06cOCGf/exn5dlnn5U5c+aIhk+9p7mtrc10ovUBYV5eXoOnl7H0mESFZq/XG++4oaEhqampkeLiYkLzeFjj/H680GxP379/vzQ2NsrHP/5x4/6d73xHzp8/b349bdo00XvyP/OZz3iqhtDsiYmDEEAAAQQQQAABBBDIKIGYQ/OTTz4pS5culSlTpsjPf/5zeeihh+TcuXPS2dkp999/vwwMDJinakd7IJjb0VVNDZIdHR2ybNkyM8ZYnWYbPDWs79mzR7Zt2ybZ2dlSXl4u3d3dZjuuhnX9mRua9V7XVatWid776h7jrqbWtXXrVvOjl19+2dSj3XC9ptsB126xdtkXLVpkjl29erXppttjdO7Rxtm7d6/pemp3XutORDc9o96NE5iM/copr6foffY/+9nPZHh4OOyUm266Sb72ta95GuY3v/mNCd/r1q3zdDwHIYAAAggggAACCCCAQPAFYgrNP/jBD0xn+eqrr5af/vSnJjS+++675iFMGlb15z/+8Y9N+I32vc1uaNYg2dXVZcLpkSNHZP369WMGSjc067bryO6tBmU7no6t27M1ULuhd7QOtNal92Bv375d5s+fH+oKL168OCwQ67ZfDebaGdcgvnHjxhGh2c7DBnq9v9Ydk+3Z8f3l0dBc+uDSCQ3y1ltvjQjN+l698cYbPY1z5coV80GQfmDDCwEEEEAAAQQQQAABBCaHwIRDsz70a8mSJabDrIFZt19r927Lli1y1113yd///nezHftLX/qSXHXVVVEVbWiura2Vurq60HZlL9uzI0Ny5Dka3BsaGqSlpcXcU62hWe+vtl1mW1C0brPWZQOx26l2Q/fu3bvNEG5gLysrGxGa7Th6z7Z20vUYQnPi/lJ53Z6tV/zJT35iHg522223yWuvvRZWhH74o+9dXggggAACCCCAAAIIIIBANIEJhWbdcqz3f77vfe8LBea3337bdN80lHp9pSI02yCtYXi0F6HZ6wqm/jgvoVm37+uHF/qe1Q85rrvuOvPhxdGjR80E5s2bZx5Ip+9nXggggAACCCCAAAIIIIBAXKFZtzTrE7J1u7X+Wbuv+tLOrm6r1ns97777bk/KidiebR+m5XV7tta7fPly8wAudwu3+/TuRG7PptPs6a0Q80FjheZf/vKXJizrPeO6LV7vIXdfFy5cMP+pDwLjhQACCCCAAAIIIIAAAgiMJeCp0/zGG2/ICy+8YL5/+fnnn5evfOUrcvHiRfMUYg2gug37lltu8dxtTsSDwNwnUOsW7UQ9CEzDVl5eXujBZLE+CCxaaF6wYIHZJmwfYMaDwGL/yxktNOuD4NRdP9jRsKxff8YLAQQQQAABBBBAAAEEEIhHwFNo1gvo10ppQNbtrXrPsm5r1ScPa2B94IEHzMOUJlvnTrvs+oAxvX+aABzP23Di57qh+S9/+Yv5Win9cEfD8sKFCyc+IGcggAACCCCAAAIIIIAAAlEEPIdmPffMmTOiT6TWB3898sgj5vuY9Xtw77nnHvnCF76QMGD366EiB9UnW2vHNlUvu4XbXl/DGk/CTv5qaGi+afp1prP8u9/9znyVlz6gjhcCCCCAAAIIIIAAAgggkEiBCYVmvfDrr78ut99+e1gN+sTsmTNnJrIuxkJgTAENzf/noQdMZ5kPLXizIIAAAggggAACCCCAgF8CEw7NfhXCuAhMRMDL07MnMh7HIoAAAggggAACCCCAAALRBAjNvC8CKUBoDuSyUTQCCCCAAAIIIIAAAoETuKrvxJnhvA/cap6AzQuBIAjoPfV/OfVXyZ+dE4RyqREBBBBAAAEEEEAAAQQCLHBV/18Hhm+84V/k3cuX5YZp1xOeA7yYmV66huVzF96Wa6ZMkX+c/6fk3joj06fM/BBAAAEEEEAAAQQQQCDFAle9886l4YGz52Xav0yVC29flPcuvydXX311isvi8giEC7x35YpcM+VquT7rOnn74iW56YZpkjX1WpgQQAABBBBAAAEEEEAAAV8FrhoeHh6+dOldGTh7Ti6/d0WmXHW1+UopXgikk4DePnD5ynumy3zzTRqYr0un8qgFAQQQQAABBBBAAAEEMlTAhGY7t/feuyLvvns5Q6fKtIIu8L73XSNTprALIujrSP0IIIAAAggggAACCARJICw0B6lwakUAAQQQQAABBBBAAAEEEEDAbwFCs9/CjI8AAggggAACCCCAAAIIIBBYAUJzYJeOwhFAAAEEEEAAAQQQQAABBPwWIDT7Lcz4CCCAAAIIIIAAAggggAACgRUgNAd26SgcAQQQQAABBBBAAAEEEEDAbwFCs9/CjI8AAggggAACCCCAAAIIIBBYAUJzYJeOwhFAAAEEEEAAAQQQQAABBPwWIDT7Lcz4CCCAAAIIIIAAAggggAACgRUgNAd26SgcAQQQQAABBBBAAAEEEEDAbwFCs9/CjI8AAggggAACCCCAAAIIIBBYAUJzYJeOwhFAAAEEEEAAAQQQQAABBPwWIDT7Lcz4CCCAAAIIIIAAAggggAACgRUgNAd26SgcAQQQQAABBBBAAAEEEEDAbwFCs9/CjI8AAggggAACCCCAAAIIIBBYAUJzYJeOwhFAAAEEEEAAAQQQQAABBPwWIDT7Lcz4CCCAAAIIIIAAAggggAACgRUgNAd26SgcAQQQQAABBBBAAAEEEEDAbwFCs9/CjI8AAggggAACCCCAAAIIIBBYAUJzYJeOwhFAAAEEEEAAAQQQQAABBPwWIDT7Lcz4CCCAAAIIIIAAAggggAACgRUgNAd26SgcAQQQQAABBBBAAAEEEEDAbwFCs9/CjI8AAggggAACCCCAAAIIIBBYAUJzYJeOwhFAAAEEEEAAAQQQQAABBPwWIDT7Lcz4CCCAAAIIIIAAAggggAACgRUgNAd26SgcAQQQQAABBBBAAAEEEEDAbwFCs9/CjI8AAggggAACCCCAAAIIIBBYAUJzYJeOwhFAAAEEEEAAAQQQQAABBPwWIDT7Lcz4CCCAAAIIIIAAAggggAACgRUgNAd26SgcAQQQQAABBBBAAAEEEEDAbwFCs9/CjI8AAggggAACCCCAAAIIIBBYAUJzYJeOwhFAAAEEEEAAAQQQQAABBPwWIDT7Lcz4CCCAAAIIIIAAAggggAACgRUgNAd26SgcAQQQQAABBBBAAAEEEEDAbwFCs9/CjI8AAggggAACCCCAAAIIIBBYAUJzYJeOwhFAAAEEEEAAAQQQQAABBPwWIDT7Lcz4CCCAAAIIIIAAAggggAACgRUgNAd26SgcAQQQQAABBBBAAAEEEEDAbwFCs9/CjI8AAggggAACCCCAAAIIIBBYAUJzYJeOwhFAAAEEEEAAAQQQQAABBPwWIDT7Lcz4CCCAAAIIIIAAAggggAACgRUgNAd26SgcAQQQQAABBBBAAAEEEEDAbwFCs9/CjI8AAggggAACCCCAAAIIIBBYAUJzYJeOwhFAAAEEEEAAAQQQQAABBPwWIDT7Lcz4CCCAAAIIIIAAAggggAACgRUgNAd26SgcAQQQQAABBBBAAAEEEEDAbwFCs9/CjI8AAggggAACCCCAAAIIIBBYAUJzYJeOwhFAAAEEEEAAAQQQQAABBPwWIDT7Lcz4CCCAAAIIIIAAAggggAACgRUgNAd26SgcAQQQQAABBBBAAAEEEEDAbwFCs9/CjI8AAggggAACCCCAAAIIIBBYAUJzYJeOwhFAAAEEEEAAAQQQQAABBPwWIDT7Lcz4CCCAAAIIIIAAAggggAACgRUgNAd26SgcAQQQQAABBBBAAAEEEEDAbwFCs9/CjI8AAggggAACCCCAAAIIIBBYAUJzYJeOwhFAAAEEEEAAAQQQQAABBPwWIDT7Lcz4CCCAAAIIIIAAAggggAACgRUgNAd26SgcAQQQQAABBBBAAAEEEEDAbwFCs9/CjI8AAggggAACCCCAAAIIIBBYAUJzYJeOwhFAAAEEEEAAAQQQQAABBPwWIDT7Lcz4CCCAAAIIIIAAAggggAACgRUgNAd26SgcAQQQQAABBBBAAAEEEEDAbwFCs9/CjI8AAggggAACCCCAAAIIIBBYAUJzYJeOwhFAAAEEEEAAAQQQQAABBPwWIDT7Lcz4CCCAAAIIIIAAAggggAACgRUgNAd26SgcAQQQQAABBBBAAAEEEEDAbwFCs9/CjI8AAggggAACCCCAAAIIIBBYAUJzYJeOwhFAAAEEEEAAAQQQQAABBPwWIDT7Lcz4CCCAAAIIIIAAAggggAACgRUgNAd26SgcAQQQQAABBBBAAAEEEEDAbwFCs9/CjI8AAggggAACCCCAAAIIIBBYAUJzYJeOwhFAAAEEEEAAAQQQQAABBPwWIDT7Lcz4CCCAAAIIIIAAAggggAACgRUgNAd26SgcAQQQQAABBBBAAAEEEEDAbwFCs9/CjI8AAggggAACCCCAAAIIIBBYAUJzYJeOwhFAAAEEEEAAAQQQQAABBPwWIDT7Lcz4CCCAAAIIIIAAAggggAACgRUgNAd26SgcAQQQQAABBBBAAAEEEEDAbwFCs9/CjI8AAggggAACCCCAAAIIIBBYAUJzYJeOwhFAAAEEEEAAAQQQQAABBPwWIDT7Lcz4CCCAAAIIIIAAAggggAACgRUgNAd26SgcAQQQQAABBBBAAAEEEEDAbwFCs9/CjI8AAggggAACCCCAAAIIIBBYAUJzYJeOwhFAAAEEEEAAAQQQQAABBPwWIDT7Lcz4CCCAAAIIIIAAAggggAACgRUgNAd26SgcAQQQQAABBBBAAAEEEEDAbwFCs9/CjI8AAggggAACCCCAAAIIIBBYAUJzYJeOwhFAAAEEEEAAAQQQQAABBPwWIDT7Lcz4CCCAAAIIIIAAAggggAACgRUgNAd26SgcAQQQQAABBBBAAAEEEEDAbwFCs9/CjI8AAggggAACCCCAAAIIIBBYAUJzYJeOwhFAAAEEEEAAAQQQQAABBPwWIDT7Lcz4CCCAAAIIIIAAAggggAACgRUgNAd26SgcAQQQQAABBBBAAAEEEEDAbwFCs9/CjI8AAggggAACCCCAAAIIIBBYAUJzYJeOwhFAAAEEEEAAAQQQQAABBPwWIDT7Lcz4CCCAAAIIIIAAAggggAACgRUgNAd26SgcAQQQQAABBBBAAAEEEEDAbwFCs9/CjI8AAggggAACCCCAAAIIIBBYAUJzYJeOwhFAAAEEEEAAAQQQQAABBPwWIDT7Lcz4CCCAAAIIIIAAAggggAACgRUgNAd26SgcAQQQQAABBBBAAAEEEEDAbwFCs9/CjI8AAggggAACCCCAAAIIIBBYgf8HRdqecEl26UMAAAAASUVORK5CYII=;" vertex="1" parent="1">
          <mxGeometry x="10" y="-20" width="883.05" height="589" as="geometry" />
        </mxCell>
        <mxCell id="2_r-YzMSc-Yv-g5JIegG-2" style="edgeStyle=orthogonalEdgeStyle;rounded=0;orthogonalLoop=1;jettySize=auto;html=1;exitX=0.5;exitY=1;exitDx=0;exitDy=0;" edge="1" parent="1" source="KEVvODekhNoehom56Cam-1" target="KEVvODekhNoehom56Cam-1">
          <mxGeometry relative="1" as="geometry" />
        </mxCell>
        <mxCell id="2_r-YzMSc-Yv-g5JIegG-7" value="" style="shape=image;verticalLabelPosition=bottom;labelBackgroundColor=default;verticalAlign=top;aspect=fixed;imageAspect=0;image=data:image/png,iVBORw0KGgoAAAANSUhEUgAAA60AAALjCAYAAAD5gON3AAAAAXNSR0IArs4c6QAAIABJREFUeF7svQt0VdW1/z+TkIRAEkiiQBIhEIOokADaGsQraFO11wK1rajQO2yp/OWqBfRX3g9RsbyVClaNF6W1V8DSjtEiVUpF8cXDq2LCQylo5BUUkhCSQAghyX/Mpet0n5Pz2Gfvvc7e5+zvGcNROGevueb8rHno+p4599pxbW1tbVWnz9L8P/6Tdn/xFZ0+c47wAgEnEujSuSMNvDSHZv9XCV3UpZMTXYRPIAACIAACIAACIAACIAACFhOIq6470/bI7/9JV/buRrcPK6IEImppbbN4GpgDAXMEEuLjqIWI/rS1jPYfqaLHxt1MLGLxAgEQAAEQAAEQAAEQAAEQiG0CcXNf/EdbZnoK/eKmq+lCS2tsR4voop5Ah4R4emHTh3Tm3Hl6+O7vR308CAAEQAAEQAAEQAAEQAAEQCA4gbhbpv1P2x9n3kVxPsXV5uYWOvbV19TQ0EjNF7jGZd0rsUMCpaV1opzu3SgxkWu7eIGAfgItbW30i8V/otcX36N/EK4EARAAARAAARAAARAAARCISgJxV93727Y3lv5/1KKpsrJIPf7VSeqS1ol65nSjpKQOlgZ3/vwFOlx5gurqz1JO9sXUIQHC1VLAMW4sISGevj/1f+ij0skxHinCAwEQAAEQAAEQAAEQAAEQEKL1H4u8K1ZHK09Qp5Qkuiz/EqWE9n9+lM41nafc7G5K54Hx2CNwy4wXIFpjb1kREQiAAAiAAAiAAAiAAAi0I+BXtO7bX0HFV11OyUmJSpGxYP1g1366sl8fpfPAeOwRgGiNvTVFRCAAAiAAAiAAAiAAAiDgj4Bf0bpr97/opmFXRYTYP9/5mAYXXhaRuTBJ7BCAaI2dtUQkIAACIAACIAACIAACIBCMgGnReuTIEXr99depsbFRzNOpUye69dZbKTc3Vxd5iFZdmHCRDwGIVqQECIAACIAACIAACIAACLiDgGHRumnTJnrxxRfpo48+8kvqu9/9Lj3wwAN0/fXXByUJ0eqORLM6SohWq4nCHgiAAAiAAAiAAAiAAAg4k0DYorW6uprmzJlDmzdv9kRUWFhIAwcOFH/ftWsX7d271/PZbbfdRo888gilpaX5JQDR6szEcLpXEK1OXyH4BwIgAAIgAAIgAAIgAALWEAhLtJ44cYJuv/12OnbsmGf2yZMn06RJk7y8eeKJJ+iZZ57xvNevXz9at24dpaent/MaotWahXSbFYhWt6044gUBEAABEAABEAABEHArgbBE6+jRo+njjz/2sPrRj35ETz75JH355Zf07LPPivfvu+8+6t27N02YMIHeeOMNz7V8n+vKlSshWt2aaRbHDdFqMVCYAwEQAAEQAAEQAAEQAAGHEtAtWjds2EAPPfSQVxj8Xrdu3eimm26i+vp68VnXrl3pzTffpAMHDtCdd97pdf0f//hHGjp0qNd7qLQ6NDMc7hZEq8MXCO6BAAiAAAiAAAiAAAiAgEUEdItWrqBq72Pl+cvLy2nLli3txOzTTz9N1113HQ0ePNjLzR/+8Ie0YsUKiFaLFs/NZiBa3bz6iB0EQAAEQAAEQAAEQMBNBHSLVhan9957rxebv/71r5SSkkK33HKL1/vcFlxbWyvuf9W++LTh4cOHQ7S6KcMUxQrRqggszIIACIAACIAACIAACICAwwjoFq3s9913303vv/++J4RRo0bR8uXLiduEly5dSklJSTR16lT6wQ9+IO5t1VZmS0pK6Pnnn28XPtqDHZYRUeIORGuULBTcBAEQAAEQAAEQAAEQAAGTBMISrfy4mzvuuEMcvCRfDz74IE2cONHLDRawzz33nOc9Pj14zZo14n5X3xdEq8kVdOlwiFaXLjzCBgEQAAEQAAEQAAEQcB2BsEQr0+G239mzZ9OmTZs8sPg5rXz/aktLizhd+NNPP/V89uMf/5jmzZuH57S6LrXUBgzRqpYvrIMACIAACIAACIAACICAUwiELVql43yPKz/mZteuXX5jufbaa+n+++9vd1qw78WotDolFaLLD4jW6FoveAsCIAACIAACIAACIAACRgkYFq1yQm4V5qprU1OTeCstLY34lODu3bvr8gmiVRcmXORDAKIVKQECIAACIAACIAACIAAC7iBgWrSaxQTRapagO8dDtLpz3RE1CIAACIAACIAACICA+whAtLpvzWMiYojWmFhGBAECIAACIAACIAACIAACIQn4Fa379lfQkKuvoKTEDiENmLng/PkL9P6He6nwikvNmMFYFxKAaHXhoiNkEAABEAABEAABEAABVxLwK1qPVp6gjC6dKe8SffelGiVXcfgrqq0/Qz1z1M5j1D+Mcy4BiFbnrg08AwEQAAEQAAEQAAEQAAErCfgVrc0XWuj41ycpPbUT9crtZnnFtampmY5UnqS6+rPUvXsWJSclWhkTbLmAAESrCxYZIYIACIAACIAACIAACIAAEfkVrUympbWVamvrqKrmNJ1t/OZkYKtenVKSKTMjnbqmp1Gi4hZkq3yGHWcRgGh11nrAGxAAARAAARAAARAAARBQRSCgaFU1IeyCgBUEIFqtoAgbIAACIAACIAACIAACIOB8AhCtzl8jeOiHAEQr0gIEQAAEQAAEQAAEQAAE3EFAiNb1s+5wR7SIMmYIjF7wJ/qodHLMxINAQAAEQAAEQAAEQAAEQAAE/BMQohWbf6RHtBG4esJTEK3RtmjwFwRAAARAAARAAARAAAQMEIBoNQANQ+wnANFq/xrAAxAAARAAARAAARAAARCIBAGI1khQxhyWE4BotRwpDIIACIAACIAACIAACICAIwlAtDpyWeBUKAIQraEI4XMQAAEQAAEQAAEQAAEQiA0CpkVrzccfCxKZV10VG0QQRVQQgGiNimWCkyAAAiAAAiAAAiAAAiBgmoAp0XqqrIx2P/64cKJwzhzKGDjQtEMwAAJ6CEC06qGEa0AABEAABEAABEAABEAg+gkYFq2n9+6lTx5+mAonTRIUdq9YQYMee4y69O8f/VQQgeMJQLQ6fongIAiAAAiAAAiAAAiAAAhYQsCQaBWCdd48Kpw4kTKLioQjNeXltHvlShr06KMQrpYsDYwEIwDRivwAARAAARAAARAAARAAAXcQCFu01n32Ge2aM8dLsEpUUrgOfvxxSr/8cncQRJS2EIBotQU7JgUBEAABEAABEAABEACBiBMIS7SyYOWW4AEPPPDvCmtZmXA689v7WVm47vnd70SrsNXCdefOnTR27Fhas2YNFRcXe8E6ePAgjRs3jpYtW0ZFRUU0a9Ysys7OpmnTpkUcKiZUTwCiVT1jzAACIAACIAACIAACIAACTiCgW7TWHzxIu2bN8hKs1XwQ0/LlIo7Chx6iLB/hOnjBAkorKLAsTr2i1VfQWuYADDmGAESrY5YCjoAACIAACIAACIAACICAUgK6RCsL1k/mzKH+993nqbBKwdra3CwcjE9MbCdc9z77LA1etIhSe/f2CkKKzwkTJlBpaan4TFZPtcJUVkz58wULFlB5ebmotPobF6zSWlNTQ+PHj6eyb6vC/iq1SinDuOUEIFotRwqDIAACIAACIAACIAACIOBIAvpF69y5NOBXv6KMK68UgXAbcNmTT1JbANF6at8+2vP00zRo/vx21VataOX23fXr19PatWtp1apVdODAAU8LcDDR6juOham/9uCJEyeKVmEpfDdu3OiZKzMz05GLAqdCE4BoDc0IV4AACIAACIAACIAACIBALBDQJVo5UNEePHu2eMSNr3CN82kPZsHKj8AZ/Jvf+G0P9m3z1f6d55L3rQYSrf6qsllZWX5FK1dY+b8xY8bQ6NGjY2HNEAMRQbQiDUAABEAABEAABEAABEDAHQR0i1bGIQ5i4kfdaIWrz0FMUrDyo28CHcQE0eqO5FIZJUSrSrqwDQIgAAIgAAIgAAIgAALOIRCWaPUI14cfpsLJkz0VVxmOEKxPPRXy5OBg7cGyzXfSpElUUlIiqqR5eXnt7mk12h7M98VOmTKFVq9eTQUWHhLlnCV1hycQre5YZ0QJAiAAAiAAAiAAAiAAAmGLVkZ2eu9eKnv0US/hKgXrwHnzqEv//kHJBjuIqbGxUdyDumHDBrrhhhuEnfT0dBzEhFz1IgDRioQAARAAARAAARAAARAAAXcQMCRapXDlVuGihx4SpMqXLyduCQ4lWPnaYI+ucQd2RGmWAESrWYIYDwIgAAIgAAIgAAIgAALRQcCwaOXwTvFzWh9/XERaOGcOZXz7nNZQoUO0hiKEz0MRgGgNRQifgwAIgAAIgAAIgAAIgEBsEDAlWhlBzccfE8XFUebgwbFBBFFEBQGI1qhYJjgJAiAAAiAAAiAAAiAAAqYJmBatpj2AARAwQACi1QA0DAEBEAABEAABEAABEACBKCQA0RqFiwaX8ZxW5AAIgAAIgAAIgAAIgAAIuIUARKtbVjrG4kSlNcYWFOGAAAiAAAiAAAiAAAiAQAACEK1IjagkANEalcsGp0EABEAABEAABEAABEAgbAJCtK6fdUfYAzEABOwkMHrBn+ij0sl2uoC5QQAEQAAEQAAEQAAEQAAEIkAAldYIQMYU1hNApdV6prAIAiAAAiAAAiAAAiAAAk4kANHqxFWBTyEJQLSGRIQLQAAEQAAEQAAEQAAEQCAmCEC0xsQyui8IiFb3rTkiBgEQAAEQAAEQAAEQcCcBiFZ3rnvURw3RGvVLiABAAARAAARAAARAAARAQBcBiFZdmHCR0whAtDptReAPCIAACIAACIAACIAACKghANGqhiusKiYA0aoYMMyDAAiAAAiAAAiAAAiAgEMI6BatT+xsoGc+aqA2nY7HEdH9V6fSr4tTdY7AZSCgnwBEq35WuBIEQAAEQAAEQAAEQAAEopmAbtE64pWTtOj6ZMpLYzn679cf9jVTWxvRL/oner1/qK6NZrzXRBvvvDia+cB3hxKAaHXowsAtEAABEAABEAABEAABELCYgG7ReusrVfTksETKTY33cuHFPc3URm10z4Akr/ePNbTS/3unmV678yKLXYY5ECCCaEUWgAAIgAAIgAAIgAAIgIA7CIQlWh8bmkg9UrwrrS9/+o1o/a8rvEXrV41t9PA2iFZ3pFHko4RojTxzzAgCIAACIAACIAACIAACdhAIS7QmxrVSdWOrl58trd/c5ZoQ7y1mu3WKp3Ot8ai02rGqLpgTotUFi4wQQQAEQAAEQAAEQAAEQICIwhKt/tqDv66pE/e09shK9wIaqj14/fr1NGPGDDFm1KhRtGDBAkpJSaGDBw/SuHHjqLKyUny2Zs0aKi4uJr5+xYoVdNFFF1FVVRWtXr2adu3a5bExcOBAWrVqFWVmZmJhXUAAotUFi4wQQQAEQAAEQAAEQAAEQMAu0bpz504aO3asEKR9+/al8ePH05gxY2jEiBE0a9YsGjp0KI0ePZqWLFlCx48fF4J248aNQqBKEVtTUyPGDRkyRPyvtMHj8Ip9AhCtsb/GiBAEQAAEQAAEQAAEQAAEmEBYldZHixooKc77oTdNzd+cHtwxyfv04PNtcTSvPNVvezBXTdeuXRuwMuqvCsuilSutXGEtKCigxsZGIXA3bNjQrlqLpY19AhCtsb/GiBAEQAAEQAAEQAAEQAAEwhati68lykr2Fq2n6s8K0ZqZ3smLaHVTHE3fTmGJVlk9zcvLE9XVlStXelVataJVTiartvx3bZsxlje2CUC0xvb6IjoQAAEQAAEQAAEQAAEQkATCqrRadU+rtj24qKhIVEyzs7PpJz/5ibifddKkSZ5WYXZUtgdrRasUuNxW7NtKzPfG4hXbBCBaY3t9ER0IgAAIgAAIgAAIgAAIhC1aR/6pipb8RyJdkub9nNYTp+qFrW4ZaV5Uj9S30vT3munVO/w/pzXQQUx8H2tpaamwNWzYMDp9+rRoI96yZYtXezB/rq2y5uTkeFqHsbyxTwCiNfbXGBGCAAiAAAiAAAiAAAiAABPQXWl9ZV8jzXn7NLV4dwcHpJgYT/TYsC5055WoeiLVrCcA0Wo9U1gEARAAARAAARAAARAAAScS0C1aneg8fHIvAYhW9649IgcBEAABEAABEAABEHAXAYhWd613zEQL0RozS4lAQAAEQAAEQAAEQAAEQCAoAYhWJEhUEoBojcplg9MgAAIgAAIgAAIgAAIgEDYBiNawkWGAEwhAtDphFeADCIAACIAACIAACIAACKgnANGqnjFmUEAAolUBVJgEARAAARAAARAAARAAAQcSgGh14KLApdAEIFpDM8IVIAACIAACIAACIAACIBALBIRoXT/rjliIBTG4iMDoBX+ij0onuyhihAoCIAACIAACIAACIAAC7iSASqs71z3qo0alNeqXEAGAAAiAAAiAAAiAAAiAgC4CEK26MOEipxGAaHXaisAfEAABEAABEAABEAABEFBDAKJVDVdYVUwAolUxYJgHARAAARAAARAAARAAAYcQgGh1yELAjfAIQLSGxwtXgwAIgAAIgAAIgAAIgEC0ErBUtJ4/c4wa6z6nLtnDopUH/I4SAkZF64oVK6itrY0mT8YhTlGy1HATBEAABEAABEAABEDA5QQsEa2Npw/Q59v+m1pbGij14hy60BhHPa74NaV3v87leBG+KgIQrarIwi4IgAAIgAAIgAAIgAAIOIuAadF69tRuqtg5iXIGD6LkzmlEcXF05uRXdGj7Vhr0k+3UITnTWRHDm5ggANEaE8uIIEAABEAABEAABEAABEAgJAFTorWttZnKNlxPfUtuorj4OKrctZdSMjIoo3cunT52iBprkil/SGlIJ3ABCIRLAKI1XGK4HgRAAARAAARAAARAAASik4Ap0dpQtYuOfDKF8oZcR0c/3EUZvX5BdZVvUkpWA3Xt1ZuOl31KPfrNo85Z/aOTDrx2LAGIVscuDRwDARAAARAAARAAARAAAUsJmBKtzeeqaN/mW6lvyX/S1/v+RR0SrqSaQ69RZp+elNGngA6+tZkG3fZhO4d37txJ69atowULFlBKSorn85qaGpo6dSrNnDmTCgoKQr7PF6xfv54qKipo2rRpAcHouebgwYO0cOFCWrp0KWVmoqXZ0ixTYAyiVQFUmAQBEAABEAABEAABEAABBxIwJVo5nv1v/Yhyr+pP8R060InPPqXElGTKyLuUao9UUFNtV+ozZIXusI2IVt3GQ1zIQnrx4sW0atUqiFaroCq0A9GqEC5MgwAIgAAIgAAIgAAIgICDCJgSrWV/u47yh/0HJSR1pMZT1dSxS1eKi0+ghpPHqXJXGRWNepfiE5LahauttPKHs2bNog0bNtCoUaOorq4uYKU1NzeXXn75ZcrJyaHVq1eLaqy2isp2x44dKz6/8cYbKTU1VVRg5TXjx48XlVxfO1xZ5c/KyspowoQJQau2Dlo7V7vCovXyhg/CZnD06FEx5pJLLgl7LA/g/MMLBEAABEAABEAABEAABEAgcgQMi9bdrw6nvKHF1KFjCp0+epwaa4hqj31AyWkXUVLKJdR32O8DRqEVrRs3bqRt27aJVuHy8nKaMmWKR5BKA1yBZVE5ZMgQjwiVY3g8twfz5/zf9OnTqaioSAjh7OzsdqKVrxkzZgyNHj2alixZIqZgYYtKa+SSzoqZWLReVrcjbFPHjh0TY/iHi3BfPPanP/0pnvEaLjhcDwIgAAIgAAIgAAIgAAImCBgSrXv+/n3qWTyYElM6UVP9eTp9+AL1vmapcKOp/hAlp+UFdUmK1rlz59L8+fNp6NChQkQGaw+WgrS4uJi0959u2bJFiNbhw4d7tfdqK7DaSqvWjm+VFu3BJjIpwkPtaA9esWIFtbW1QbRGeK0xHQiAAAiAAAiAAAiAgLsJhC1a97x2C13ynQGU1DlVkDu8/T3KGfAYpfe4TjdJiFbdqHBhAAIQrUgNEAABEAABEAABEAABEHAHgbBE675NP6TsQZdRclo6NTeeoa92l1Nip2Q6c7KeCkds1U3M7vZgbiHmii0qrbqXzHEXQrQ6bkngEAiAAAiAAAiAAAiAAAgoIaBbtFbseJC69mqj5C5dqamulpLTu9L+Ta9S98vG0dna3dRz8FxKTu2py0kjBzHJe1pLS0tNHcQUqD2YW47HjRtHI0eOxEFMulbR3osgWu3lj9lBAARAAARAAARAAARAIFIEdInWluZ6+mzLHdTn+muo9sghavi6iS40nRCPt+nS/S7qdtndkfJX1zyNjY3iICZ5r6yuQbgoqghAtEbVcsFZEAABEAABEAABEAABEDBMQJdoZet8wNIXOyZTRs/vUY/LJ9HZU/voyw+mU1xcEl1x818MO2DVQHnCMD+2hl/8+Bw+kTglJcWqKWDHQQQgWh20GHAFBEAABEAABEAABEAABBQS0C1a2YfWliaKT0j2cqex9gCldO2r0EWYBoH2BCBakRUgAAIgAAIgAAIgAAIg4A4CYYlWdyBBlNFAwKhoNRMbHnljhh7GggAIgAAIgAAIgAAIgIAxAhCtxrhhlM0EIFptXgBMDwIgAAIgAAIgAAIgAAIRIgDRGiHQmMZaAhCt1vKENRAAARAAARAAARAAARBwKgGIVqeuDPwKSgCiFQkCAiAAAiAAAiAAAiAAAu4gIETr+ll3uCNaRBkzBEYv+BN9VDo5ovHgntaI4sZkIAACIAACIAACIAACICAIoNKKRIhKAqi0RuWyeZxuaWmlk9W1dK7pPLW2tkV3MPA+ZgnEx8dRx+QkujirKyUkxMdsnAgMBEAABEAABJxOAKLV6SsE//wSgGiN3sRoaW2lk1WnKTmpAyUlJ9H58xeoBcI1ehc0Rj1PiI+jpKQO1NR0XuRot4u6EotYvEAABEAABEAABCJPAKI18swxowUEIFotgGiTiRNVtaJqlZDQgS60tNrkBaYFAX0EOiTEU0vLBdERcHFWF32DcBUIgAAIgAAIgIClBCBaLcUJY5EiANEaKdLWz3Po6NfU7aIMOtN43st4c3MLHfvqa2poaKTmCy2WTpzYIYHS0jpRTvdulJiYYKltGIt9Ap1Skuhk1SnKu6R77AeLCEEABEAABEDAgQQMi9bdtSeo+txZr5CyOnaiwq7dHBgmXIo1AhCt0buiXxw6ThkZXYjva5UvFqnHvzpJXdI6Uc+cbqIt08oXt3cerjxBdfVnKSf7YuqQAOFqJd9Yt8WdAadOnab8vOxYDxXxgQAIgAAIgIAjCRgSrW9UfkGzP9hMmR07ewVV3dhAC4f8gEqy+zgyWDgVOwQgWqN3LVm0pqeneQVwtPIEcTXrsvxLlAa2//Oj4vCn3Gz8uKYUdAwar6urh2iNwXVFSCAAAiAAAtFBwJBo/cPBMjrQcIruHTTUK8rnP9lGfVMz6OcFA6MjengZtQQgWqN26cifaN23v4KKr7qckpMSlQbGgvWDXfvpyn74YU0p6Bg0DtEag4uKkEAABEAABKKGgKNEa2NjI82aNYvuuusuKi4uDghx/fr1VFFRQdOmTTMFeufOnbR48WJatWoVZWZmmrKld/DBgwdp4cKFtHTp0ojNqce3mpoamjp1Ks2cOZMKCgr0DGl3Da/fypUrafz48eIz/t+ysjLx50WLFtHo0aPFn5csWUKlpaXizzk5ObR69eqw54RoNbREjhjkT7Tu2v0vumnYVRHx75/vfEyDCy+LyFyYJHYIQLTGzloiEhAAARAAgegjYEi0Lix7h1bt/YBSkzp6Rdxw/hyN738NzRw4zBAJvaKVRQ+/olG02iGUDS2GgUH8Y0KvXr3EDw68Rn369BFClYX6uHHjaNmyZVRUVKTrh4lQ00O0hiLk3M/NitYjR47Q66+/TvzvBb86depEt956K+Xm5uoKGqJVFyZc5EMAohUpAQIgAAIgAAL2ETAkWp/et5M2H/ucrs3t7eX5P774jG7P70+/ujJwlZQHsHBbt24dpaWl0csvv0yjRo2iBQsWCFvaSqu2Ijdw4EBRET1w4ACNHTtWXLtmzRqPQJKVO21FT+sczynHTZgwQQheKSDz8vJow4YNHj9SUlI8QquyslKYkXZZmG3bto0OHTpEY8aMoREjRgifeTy/ZCxsQ+s/+9q3b19P9VH6wPZmzJghxsr3pHjPzs6mV1991asS6Vuplf4wv/Lyck+MWj5an7/3ve/Rrl27PJVeKS5LSko8ldbq6mp6/vnnhU9bt24NyIX9PX78uFg79pnXZ+LEicSxa1/aHyOYgdmKLtuGaLXvHw2zMxsVrZs2baIXX3yRPvroI78ufPe736UHHniArr/++qAuQrSaXUF3jododee6I2oQAAEQAAFnEDAkWgPd0/rIe6/T8B69Q97TKgUkCzlZeRs6dKhHAHJ7MIubU6dO0aWXXioEka+YZXwsPLWtwoFaXPl9blWdPn26V6WPbbCQ1QpKvoYrhbt37xYtqyzApMhmcbZx40Zau3atp6VYilpuc9XOz8JPth7z+7IlmEW3fJ//zOLdV7BLJixafavJ/lgMHz5c+Mx+yrZqLRf+s/SZ42Ff7r77btGeLAWk9s/s+5QpU4RY5vd92fFacQWVBa8UrSyY3377bb/Vb63Q1v7ooBXq4X4dIFrDJeac68MVrZyPc+bMoc2bN3uCKCwsJP4hi1/8I8zevXs9n9122230yCOPiB/F/L0gWp2TC9HkCURrNK0WfAUBEAABEIg1AoZFa/nJSrozf4AXj6f2bKeb8/rpEq1SrLGIkgKLq3S+97T6Vitl66kUrdrPpTO+1dZA95FqW3XZD9+5ZVsrC1NZQWXRypVWFpqyoiiFJFdb5T2avJH2d9+tds4tW7Z4qqzSd65eSg5SHPomHfPiF1dH58+fT3PnzvXcH+uvoqytxkrePH7w4MH00ksviftYOQYpYLWCW8slKytLXMP347Kg9xXzbFPetyp9DnavrOQWKM5gXzaI1uj9pygc0XrixAm6/fbb6dixY56AJ0+eTJMmTfIC8MQTT9DCw9e7AAAgAElEQVQzzzzjea9fv37iB6H09PR2oCBaozd37PQcotVO+pgbBEAABEDA7QQMi9ayk5U0xke0Lt+znW6xSLSyQOL7IHlzKltw5QFN2ntatfdOBlpMI6KV7e7YscPTkixFtq9o1VaNta2vekWrP2EbSsxxPCw2b7zxRvq///s/Ud2UY5iBrAhL276iVY7Pz8+nzp07C6EZqEpsRrTqOXTK6P3JEK3R+09XOKKVc/Pjjz/2BPujH/2InnzySfryyy/p2WefFe/fd9991Lt3b9Fe/8Ybb3iu5ftc+WAw3xdEa/Tmjp2eQ7TaSR9zgwAIgAAIuJ2AYdHq75E34bQHy/ZTPjyFK5y+7cEsWmVLLQsqeZCPb6VV2/rKiylbWbWnD/trD+b5+NAg2arrW2nVimFtG6w/0SoFLbfIyrh824NlhVL7PrfKBuMQqALJApXZcAsz3w/LsWrbhn3bi31FK3PiqhQL3tmzZ4uqqR7Rqm3lDtUeLIUxV3G197iyyJdtxNp1CXZatL8vKURr9P7TpVe0cufCQw895BUov9etWze66aabqL6+XnzWtWtXevPNN8X97nfeeafX9X/84x/Fvy3aF0Rr9OaOnZ5DtNpJH3ODAAiAAAi4nYBh0bq/rpruKfQ+cGn+9s10Y06+rvZgFmsXXXSRODzI30FMUiDJA5L4/jS+j43Fkjy8KJyDmPy1+vLcgUSrts2W22/fffdd0RbLLb3a9mApvPjRLj/72c/ERlpWhLWHLMmWZenHyJEjPffkBjqIKVjbrL9TiOV83KJ8zz33iMfNyKqrb0uztrWXRaUe0crCUsvR9yAm2aosfwCQh1PJL5m/9ZKHT4X7RYRoDZeYc67XK1q5gqq9j5Uj4O8sfwd9xezTTz9N1113nWh5175++MMf0ooVKyBanbP8UesJRGvULh0cBwEQAAEQiAEChkXrB0craGT3Pl4IXji0h0YUDNAlWiP9fNQYWCtLQ9DTVh1qQt/WXu0jb0KNNfs5RKtZgvaN1ytaWZzee++9Xo7+9a9/FZX7W265xet9bguura0V979qX3zaMB9Upn2h0mrf2kfzzKpEa0tLK52srqVzTeeptbUtmhHB9xgmEB8fRx2Tk+jirK6UkBAfw5EiNBAAAacSMCxazbYHQ7TakxKyjZgf2cOPqOHTgfW+tAdO8Rj5GCJpg6u1vgdD6bUd7nUQreESc871ekUre8ynXL///vse57krY/ny5eIRU9z5kJSUJA4H+8EPfiDubdVWZvmgMvnoJohW56x/tHqiQrS2tLbSyarTlJzUgZKSk+j8+QvUAuEarSkSs34nxMdRUlIHamo6L3K020VdiUUsXiAAAiAQSQK2iNZIBoi5YpMARGv0rms4opXvAb/jjjvEwUvy9eCDD4oTtrUvFrDPPfec5y0+PZjb0fl+V98XKq3Rmzt2eq5CtJ6oqhVVq4SEDnShpdXO8DA3CIQk0CEhnlpaLoiOgIuzuoS8HheAAAiAgJUEDInWNyq/oCfK36ere/T08mXr4QP0yHdK6Ps5+Vb6CFsg0I4ARGv0JkU4opWj5LZfPjBs06ZNnqD5/na+f7WlpUWcLvzpp596Pvvxj39M8+bNw3NaozdFHOm5CtF66OjX1O2iDDrTeN4r5ubmFjr21dfU0NBIzRdaLOWR2CGB0tI6UU73bpSYmGCpbRiLfQKdUpLoZNUpyruke+wHiwhBAAQcRcCQaOUIXvliN1XU1XoFU9Alk27v099RAcKZ2CQA0Rq96xquaJWR8gnBXE396KOP/AZ/7bXX0v3339/utGDfi1Fpjd7csdNzFaKVvwsZGV2I72uVLxapx786SV3SOlHPnG6iLdPKF7d3Hq48QXX1Zykn+2LqkADhaiXfWLfFnQGnTp2m/LzsWA8V8YEACDiMgGHR6rA44I7LCEC0Ru+CGxWtMuIjR47Q3//+d2pqahJv8cnifEpw9+76fvmHaI3e3LHTc1WiNT09zSuso5UniKtZl+VfojTc/Z8fFYc/5WZ3UzoPjMceARXfhdijhIhAAASsJgDRajVR2IsIAYjWiGBWMolZ0WrWKYhWswTdOV7FRt3fd2Hf/goqvupySk5KVAqaBesHu/bTlf28nwKgdFIYjwkCKr4LMQEGQYAACCglANGqFC+MqyIA0aqKrHq7EK3qGWMG6wmo2KiH8104deoUnT59mnr37m1ZcPgBxzKUrjKk4rvgKoAIFgRAwBAB20QrP+OztLRUOJ2Tk0OrV6+mgoICeuaZZ+jmm28Wf8YLBAIRgGiN3twIVF0acvUVlJRo7f17vpT4fr73P9xLhVdcGr0A4bktBFRs1MMRrQsWLKA//vGP9Ic//IGuueYawYBP1ebHPPHjyPjVqVMnuvXWWyk3N1cXI4hWXZhwkQ8BFd8FQAYBEACBUARsEa3yeZ933XUXFRcXe/nIz/rk54fyIy1SUlJC+Y/PXUoAojV6F97fRp3v48vo0ln5iZQVh7+i2voz1DNH3/2v0UsZnltNQMVGPRzRWlVVRXwyNv/v73//e/H/nS+//DI9/PDD7UL97ne/Sw888ABdf/31QTFAtFqdJe6wp+K74A5yiBIEQMAMAVtEKwvTqVOn0syZM/1WVNevX0+9evVqJ2jNBIqxsUUAojV619PfRl2cmPr1SUpP7US9crtZXnFtamqmI5UnxYmp3btnKb9fMHpXB54HIqBiox6OaGW/Pv/8c9GJ1LFjR9GdxBVXFq6VlZXU0NBAu3btor1793pCuO222+iRRx7B45+Q1pYSUPFdsNRBGAMBEIhJAraI1p07d9LYsWM9QCdMmEDTpk3z/J0/f/vtt73ei0n6CMowAYhWw+hsH+hvo85OtbS2Um1tHVXVnKazjd+cDGzVq1NKMmVmpFPX9DRKVNyCbJXPsOMsAio26uGK1jlz5tDatWsFGBau3Cr8ne98xwvUE088IW6zka9+/frRunXrKD09vR1QVFqdlWPR4o2K70K0xA4/QQAE7CNgi2jVhitbhYcOHUqjR48WHx08eJBeeuklUYlFi7B9yeHkmSFanbw6wX0LJFqjNyJ47gYCKjbq4YjWxYsX0/PPP++FmoXriy++KLqS9u/fT62trXTFFVcQ/xD8xhtveK7l+1xXrlwJ0eqGRI1AjCq+CxFwG1OAAAhEOQHbRSvz40OZ+CWrrRCtUZ5VEXAfojUCkBVNAdGqCCzMKiWgYqOuV7Tu3r2buNVX+2IR+5vf/EY8r/iFF16ga6+9lv7yl7+I/z1+/DjdcccdXtfzIU7847D2hUqr0pSJWeMqvgsxCwuBgQAIWEbAFtGqbf/l+1vHjx9P06dP99zDivZgy9Y3Zg1BtEbv0vJGHS8QiEYC+XnZlrqtV7TywYSvvfaa19z79u2jv/71rzRr1ixKTk72CFe+6MyZM1RUVOR1/ciRI+m3v/0tRKulK+hOYxCt7lx3RA0CdhOwRbRy0NpH3vje08qfDR8+HAcx2Z0dDp4fotXBixPCNd6oW735j14a8DxaCKjIW72idcuWLXTvvfd6oWLByrfP3HLLLZ73//d//1dUWvlgJt+Tg+VnWiOotEZL9jnLT4hWZ60HvAEBtxCwTbQGAoxH3rgl9czFCdFqjp+do1Vs/u2MB3O7g4CKvNUrWpnw3XffTe+//74H9qhRo2j58uX0t7/9jfjwpWPHjnlVXPn+V24h5tdNN91Ezz33XLuFgmh1R+5aHSVEq9VEYQ8EQEAPAceJVlRZ9SwbroFojd4cULH5j14a8DxaCKjI23BEa3V1tbhP9csvv/Qge/DBB8UzzflVUVFBd955p3j0DT/rnO9fffrpp2njxo305z//mVJTUyFaoyXZHO4nRKvDFwjugUCMEnCcaI1RzgjLYgIQrRYDjaA5FZv/CLqPqVxKQEXehiNaGXttbS3Nnj2bNm3a5FmFwsJCGjx4MHXt2pXeeust4kObtPe4nj59mrp06eJ31VBpdWkymwwbotUkQAwHARAwRCDu5qn/07Z27ljKTOtkyAAGgUCkCVSdPku3P/ISbV3+3xGdesWKFdTW1kaTJ0+O6LyxNpnZzX/Nxx8LJJlXXRVraBCPgwmYzVt/oYUrWqWNN998U7T7fvTRR0GJ+TsxWDsAotXBCedg1yBaHbw4cA0EYphA3MOr/9E2qCCHvj8onzp3TqH4uLgYDhehRTOB1rY2ajjTSK//3wEq/+I4/eaeH0Q0HIhWa3Cb2fyfKiuj3Y8/LhwpnDOHMgYOtMYpWAGBEATM5G0g00ZFq7R35MgR+vvf/y4ee8OvuLg4cWpwbm4u/fKXvxQHMgUTrhCtSHsjBCBajVDDGBAAAbME4qpOn2lbsm4r3T68kAp6ZFBDw1lqvtBi1i7Gg4ClBBI7JIgfVSq+Pk3r3iqjB2+/nnIvSrd0jlDGIFpDEdL3udHN/+m9e+mThx+mwkmTxES7V6ygQY89Rl3699c3Ma4CARMEjOZtsCnNitZgtk+cOEE///nP6dy5c6Jt2N8LotVEQrh4KESrixcfoYOAjQTi2tra2hqbmul/3/iYXt+5nw59fcpGdzA1CAQmkNc9g75/dV8aPbyILu7aOeKoIFqtQW5k8y8E67x5VDhxImV++/zJmvJy2r1yJQ169FEIV2uWBlaCEDCSt6GAqhStPHddXR1VVVVRfn4+RGuoxcDnuglAtOpGhQtBAAQsJCBEq4X2YAoEYpYARKs1Sxvu5r/us89o15w5XoJVeiKF6+DHH6f0yy+3xkFYAQE/BMLNWz0Q/YnWffsraMjVV1BSYgc9Jgxfc/78BXr/w71UeMWlhm1goDsJQLS6c90RNQjYTQCi1e4VwPxRQwCi1ZqlCmfzz4KVW4IHPPDAvyusZWXCkcxv72dl4brnd78TrcJWC9edO3fS2LFjac2aNVRcXOwF4ODBgzRu3DhatmyZuI9w1qxZlJ2dTdOmTbMGFKw4ikA4eavXcX+i9WjlCcro0pnyLumu14yh6yoOf0W19WeoZ47aeQw5h0GOJgDR6ujlgXMgELMEIFpjdmkRmNUEIFqtIap3819/8CDtmjXLS7BW80FMy5cLRwofeoiyfITr4AULKK2gwBpHiUivaPUVtJY5AEOOIaA3b8Nx2J9o5TMljn99ktJTO1Gv3G6WV1ybmprpSOVJqqs/S927Z1FyUmI4LuNaECCIViQBCICAHQQgWu2gjjmjkgBEqzXLpmfzz4L1kzlzqP9993kqrFKwtjY3C0fiExPbCde9zz5LgxctotTevb2cleJzwoQJVFpaKj6T1VOtMJUVU/58wYIFVF5eLiqt/sYFq7TW1NTQ+PHjqezbqrC/Sq01NGElUgT05G24vvgTrWyjpbWVamvrqKrmNJ1t/OZkYKtenVKSKTMjnbqmp1Gi4hZkq3yGHWcRgGh11nrAGxBwCwGIVresNOI0TQCi1TRCYUDP5l+I1rlzacCvfkUZV14pxnEbcNmTT1JbANF6at8+2vP00zRo/vx21VataOX23fXr19PatWtp1apVdODAAU8LcDDR6juOham/9uCJEyeKVmEpfDdu3OiZKzMz0xqIsBJxAnryNlynAonWcO3gehCIJAGI1kjSxlwgAAKSAEQrcgEEdBKAaNUJKsRlejf/oj149mzxiBtf4cpPk9a2B7Ng5UfgDP7Nb/y2B/u2+Wr/zu7K+1YDiVZ/VdmsrCy/opUrrPzfmDFjaPTo0dZAgxXbCejN23AchWgNhxaudQoBiFanrAT8AAF3EYBoddd6I1oTBCBaTcDTDA1n8y8OYuJH3WiFq89BTFKw8qNvAh3EBNFqzdq52Uo4eauXE9vECwSikUB+XnY0ug2fQQAEopgARGsULx5cjywBiFZreIe7+ZcnCBdOnuypuEpPhGB96qmQJwcHaw+Wbb6TJk2ikpISUSXNy8trd0+r0fZgvi92ypQptHr1aiqw8JAoa1YDVvQSCDdv9dhVYVPPvLgGBMwQQN6aoYexIAACRglAtBolh3GuIwDRas2SG9nwnN67l8oefZS0wlUK1oHz5lGX/v2DOhfsIKbGxkZxD+qGDRvohhtuEHbS09NxEJM1yx0zVozkbajgVdgMNSc+BwGzBJC3ZgliPAiAgBECEK1GqGGMKwlAtFqz7EY3PCxcuVW46KGHhCPly5cTtwSHEqx8bbBH11gTFazEOgGjeRuMiwqbsb4OiM9+Ashb+9cAHoCAGwlAtLpx1RGzIQIQrYawtRtkZsNzip/T+vjjwmbhnDmU8e1zWkN5BtEaihA+D0XATN4Gsq3CZqg48DkImCWAvDVLEONBAASMEIBoNUINY1xJAKLVmmU3u+Gp+fhjorg4yhw82BqHYAUEdBAwm7f+pjBrU3wXiCjzqqt0RIBLQMAaAmbz1hovYAUEQMBtBCBa3bbiiNcwAYhWw+i8BmLDYw1HWIksARV5a8am0a6DyFLDbLFIwEzexiIPxAQCIBAZAhCtkeGMWWKAAESrNYuIDY81HGElsgRU5K1Rm+L+7ocfFo+C4hc/o3jQY4/pur87stQwWywSMJq3scgCMYEACESOAERr5FhjpignANFqzQJiw2MNR1iJLAEVeWvEpjyQrHDiRMosKhIQasrLaffKlboPJossOcwWawSM5G2sMUA8IAACkScA0Rp55pgxSglAtFqzcNjwWMMRViJLQEXehmuTn1m8a84c0gpWSUEK18GPP07pl18eWTiYzVUEws1bV8FBsCAAAsoIQLQqQwvDsUYAotWaFeUND14gEI0E8vOyLXU7nM0/C1ZuCR7wwAP/rrCWlQl/Mr89RZuF657f/U60ClstXIOdwH3w4EEaN24cLVu2jIqKisRzj7Ozs2natGmW8oIxZxAIJ2+d4TG8AAEQiAUCEK2xsIqIISIEIFqtwYwNjzUcYSWyBFTkrV6b9QcP0q5Zs7wEazU//mn5cgGh8KGHKMtHuA5esIDSCgosg6RXtBYXF1s2Jww5k4DevHWm9/AKBEAgWglAtEbrysHviBOAaLUGOTY81nCElcgSUJG3emyyYP1kzhzqf999ngqrFKytzc0CQnxiYjvhuvfZZ2nwokWU2ru3FygpPidMmEClpaXiszVr1hCLTa0wlRVT/nzBggVUXl5OY8eOJX/jglVaa2pqaPz48VT2bVVYzhXZ1cNsVhLQk7dWzgdbIAACIMAEIFqRByCgkwBEq05QIS7DhscajrASWQIq8laPTSFa586lAb/6FWVceaUImtuAy558ktoCiNZT+/bRnqefpkHz57ertmpFK7fvrl+/ntauXUurVq2iAwcOCGHKwjKYaPUdx8LUX3vwxIkTRauwFL4bN270zJWZmRnZBcRslhHQk7eWTQZDIAACIPAtAYhWpAII6CQA0aoTFESrNaBgxVEEVGzU9doU7cGzZ4tH3PgK1zif9mAWrPwInMG/+Y3f9mDfNl/t3xl4KNHqryqblZXlV7RyhZX/GzNmDI0ePdpR6wlnjBPQm7fGZ8BIEAABEGhPAKIVWQECOglAtOoEBdFqDShYcRQBFRv1cGyKg5jmzfMWrj4HMUnBOujRRwMexATR6qi0ikpnwsnbqAwQToMACDiSAESrI5cFTjmRAESrNauCDY81HGElsgRU5G24NuUJwoWTJ3sqrpKCEKxPPRXy5OBg7cGyzXfSpElUUlIiqqR5eXnt7mk12h7M98VOmTKFVq9eTQUWHhIV2UzAbOHmLYiBAAiAgBUEIFqtoAgbriAA0WrNMuvd8Dyxs4Ge+aiB2nROy22S91+dSr8uTtU5ApeBgH4CevNWv0UiIzZP791LZY8+SlrhKgXrwHnzqEv//kFdCHYQU2Njo7gHdcOGDXTDDTcIO+np6TiIKZxFdcG1RvLWBVgQIgiAgGICEK2KAcN87BCAaLVmLfVueEa8cpIWXZ9MeWksR//9+sO+ZmprI/pF/0Sv9w/VtdGM95po450XW+MorICAhoDevA0HmlGbLFy5VbjooYfEdOXLlxO3BIcSrHxtsEfXhOM7rnUvAaN5615iiBwEQMAKAhCtVlCEDVcQgGi1Zpn1bnhufaWKnhyWSLmp8V4Tv7inmdqoje4ZkOT1/rGGVvp/7zTTa3deZI2jsAICDhWt7NYpfk7r448LDwvnzKGMb5/TGmrRIFpDEcLnoQjo/Tc8lB18DgIgAALhEIBoDYcWrnU1AYhWa5Zf74aHRetjQxOpR4p3pfXlT78Rrf91hbdo/aqxjR7epla0Btrwy7bK7Oxs4vv98Io9AnrzNpzIzdqs+fhjorg4yhw8OJxpcS0ImCJgNm9NTY7BIAACriUA0erapUfg4RKAaA2XmP/r9W54WLQmxrVSdWOrl6GW1m/uck2I9xaz3TrF07nWeKWVVlSprMmBaLSiN2/DiU2FzXDmx7UgYIQA8tYINYwBARAwSwCi1SxBjHcNAYhWa5Za74YnUHvw1zV14p7WHlnpXg4Faw8OdvgMG1myZAmVlpYKe6NGjRIHz3D1lE9PbWtro6qqKho5ciQNHz7c8xxLvpafablo0SIaMWKEOMBGVlrZ3v79+4W9rVu30sCBA2nVqlWUmZlJBw8eFM+0rKysFHMdOnQIz7G0JrWUWtGbt+E4ocJmOPPjWhAwQgB5a4QaxoAACJglANFqliDGu4YARKs1S613w6NKtPo+ruPAgQO0ePFiISrlIz+WLVtGffv29XrkR0pKiucQm7lz59ILL7wghCzb820PZtH66quvikd78ItFKj9GRIpbfo+FMT8CRArf0aNHWwMYVpQQ0Ju34UyuwmY48+NaEDBCAHlrhBrGgAAImCUA0WqWIMa7hgBEqzVLrXfDw6L10aIGSorzfuhNU/M3pwd3TPI+Pfh8WxzNK0/12x7s29br+3cWq1xVLSsrE0GuWbPGI1qHDBniuU9VjuNrcnJyPM+b9Cdajx8/7lWxHTNmjOfZl/xnFqlyXvl3awjDigoCevM2nLlV2AxnflwLAkYIIG+NUMMYEAABswQgWs0SxHjXEIBotWap9W54WLQuvpYoK9lbtJ6qPytEa2Z6Jy+HqpviaPp2Clu0Hj58mGbMmCGEalZWlqiKaiut/kRrUVGRp2U4UKUVotWafHGKFb15G46/bBMvEIhGAvl52dHoNnwGARCIYgIQrVG8eHA9sgQgWq3hrXfzH6n2YG4L3rFjh2gP5lZhbtcNVWnlz/k1ZcoUUW3Nzc1td0+rP9GK9mBrcsgOK3rzNhzfVNgMZ35cCwJGCCBvjVDDGBAAAbMEIFrNEsR41xCAaLVmqfVueEb+qYqW/EciXZLm/ZzWE6fqhSPdMtK8HDpa30rT3mumV+9o/5zWYAcxaQ9GkhVUvv+0pKREtAz7q7SyaOVr+fAlfvE9rvPnz/c6iMmfaOWWYBzEZE0eRdqK3rwNxy8VNsOZH9eCgBECyFsj1DAGBEDALAGIVrMEMd41BCBarVlqvRueV/Y10py3T1OLd3dwQCcS44keG9aF7rwypd01TnlUjbz3lR3UnlCMe1qtyS2VVvTmbTg+qLAZzvy4FgSMEEDeGqGGMSAAAmYJQLSaJYjxriEA0WrNUtux4XGKaGWC2sOc+O/yETt8OjFeziWgIm9V2HQuQXgWKwSQt7GykogDBKKLAERrdK0XvLWRAESrNfCx4bGGI6xEloCKvFVhM7JUMJsbCSBv3bjqiBkE7CcA0Wr/GsCDKCEA0WrNQmHDYw1HWIksARV5q8JmZKlgNjcSQN66cdURMwjYTwCi1f41gAdRQgCi1ZqFwobHGo6wElkCKvJWr80ndjbQMx81kM7buymOiO6/OpV+XZwaWUiYzRUE9OatK2AgSBAAgYgRgGiNGGpMFO0EIFqtWUFseKzhCCuRJaAib/XaHPHKSVp0fTLlpbEc/ffrD/uaxTOLf9E/0ev9Q3VtNOO9Jtp458WRhYTZXEFAb966AgaCBAEQiBgBiNaIocZE0U4AotWaFcSGxxqOsBJZAiryVq/NQM8sfnFPM7VRG90zIMkLxrGGVvp/7zTTa3e2f/xTZKlhtlgkoDdvYzF2xAQCIGAfAYhW+9hj5igjANFqzYLxhgcvEIhGAvl52Za6rXfzz6L1saGJ1CPFu9L68qffiNb/usJbtH7V2EYPb/MvWuVzgpctW0bFxcVe8QT7zDfw9evXU69evdrZsBRQDBrjx16tXLlSPAM6MzMzKiPUm7dRGRycBgEQcCwBiFbHLg0ccxoBiFZrVgQbHms4wkpkCajIW702WbQmxrVSdWOrV9Atrd/c5ZoQ7y1mu3WKp3Ot8X4rreEI00CErbAR2dVzzmws9teuXUurVq2CaHXOssATEACBKCAA0RoFiwQXnUEAotWaddC7UbdmNlgBAWsIqMhbvTYDtQd/XVMn7mntkZXuFWSw9mApOAsKCuidd94R4xYtWkSjR48mXzHKAmvGjBnimoEDBwqhxS+uEpaVlXnGjhgxgmbNmkUbNmwQ702YMIGmTZtGXFXk97/88kuqqqqiQYMGUVxcHCUkJNCCBQvEtfx5dna2uF77qqmpEfMMGDCA3nrrLaqsrKRf//rX9MYbb4i5tc83lvP4zs/PRJ4yZQqtXr2aOF5fwbhkyRIqLS31YhDOvJIX+yb5cPWU7e7fv1/Y3bp1q+ezAwcO0NixY8X7OTk5Hr+sydDIWdGbt5HzCDOBAAi4gQBEqxtWGTFaQgCi1RKMhA2PNRxhJbIEVOStXpsqROvIkSOFUGSBtWPHDiFIWbCNGzeOuHW4b9++QjQOGTJE/C//N2bMGL/i1p+NSZMmkRSzhw4d8lQWtUKSV1DO59uqLMVjXl6eELjcUvvqq68KoVddXS3E35o1a0R7cqD5S0pKPH5LX6RAZgG7bds2YfvYsWPt4g41r+Qzffp0jw/Hjx9v56uMkXnwDwOotEb2e4vZQAAEYocARGvsrCUiUUwAotUawHo36tbMBisgYA0BFYQ6GIUAACAASURBVHmr1yaL1keLGigpzvuhN03N35we3DHJ+/Tg821xNK88VVd7sFZEaUVrUVGRV/VUW9nUVmSleJOClmmziGQBN3fuXJo/f75YABaHKSkpQhizAGaxd/jw4YCtsvI6aTeUuPY3vxS77Msvf/lLuv/++4Ug941NZghXnLVCl0VmoHl5jKyayvGy2so/AEgBy1VgreCHaLXm+wgrIAAC7iMA0eq+NUfEBglAtP4bnBkWejfqepbp/Jlj1Fj3OXXJHqbnclwDAoYJWJm30gm9Nlm0Lr6WKCvZW7Seqj8rRGtmeievuKqb4mj6djIlWmXlkyujUpxJ4eqvMqlXtEpR29DQQPX19Z7WYClSufWXxd/SpUtp6tSpnuquUdFaXl4uWoRvvPFGMZ+2LVkrpiVAvWJZilZZ7dUugBTtPBdEq+GvHAaCAAiAgBcBiFYkBAjoJGBGqOmcImouM8NC70Y9GIzG0wfo823/Ta0tDZR6cQ5daIyjHlf8mtK7Xxc1DOFodBGwIm99I9ZrU0V7sDw9OFCl1beCqhViWtEarD1XtuT6ikOtEPYn+vh6veIx2PxcKdXe7yrv3WX7HDf/OybbjeW9r3xPqrYyGkosc/v0xIkTve7NhWiNru82vAUBEIgOAhCt0bFO8NIBBMwINQe4b6kLZljo3agHcvjsqd1UsXMS5QweRMmd04ji4ujMya/o0PatNOgn26lDcnQ+RsLSBYIxywmYzVt/Dum1OfJPVbTkPxLpkrR4LzMnTtWLv3fLSPN6/2h9K017r5levaP9c1r9HbYkT7PVtgezGNSKS+3BQdqqKAvBUAcx+YpWOZ7fD3SKbjiiNdBBTBKKVqDygUz88h0jBW0482r5+B7EFKg9WI7BQUyWf0VhEARAIMYJQLTG+AIjPOsImBFq1nnhDEtmWOjdqPuLtK21mco2XE99S26iuPg4qty1l1IyMiijdy6dPnaIGmuSKX/IN6eB4gUCVhIwk7eB/NBr85V9jTTn7dPU4t0dHDC8xHiix4Z1oTuvTLESgWW2fIWhZYZhKCIE9OZtRJzBJCAAAq4hANHqmqVGoGYJmBFqZud22ngzLMxseBqqdtGRT6ZQ3pDr6OiHuyij1y+orvJNSslqoK69etPxsk+pR7951Dmrv9OQwZ8oJ2Amb82K1ihH5+W+fIyOtjIZS/G5IRYV3wU3cEOMIAAC5ghAtJrjh9EuImBGqMUaJjMszGx4ms9V0b7Nt1Lfkv+kr/f9izokXEk1h16jzD49KaNPAR18azMNuu3Ddri5JW/dunWeE0zlBVzx4cNeZs6cKZ7jGOp9/pw33RUVFe2eK6mdVM813Ka5cOFCceAM30eHl7MJmMlbiFZnry28C4+Aiu9CeB7gahAAATcSgGh146ojZkMEzAg1QxM6eJAZFmY3PPvf+hHlXtWf4jt0oBOffUqJKcmUkXcp1R6poKbartRnyArd5IyIVt3GQ1zIQnrx4sUB7+mzah7YsYaA2bz154UKm9ZECysgEJgA8hbZAQIgYAcBiFY7qGPOqCRgRqg5NeCf/exnhlw7evSoGHfJJZeEPX7+gmWUn5cd9jgeUPa36yh/2H9QQlJHajxVTR27dKW4+ARqOHmcKneVUdGodyk+IamdbW2llT+cNWsWbdiwgfgRHnV1dQErrbm5ufTyyy+T9tAUbRVVe6gKP1IjNTVVVGDlNXwKKVdyfe3IE0r58R4TJkwIWrU1BAqDLCegYqOuwqblgcMgCPgQQN4iJUAABOwgANFqB3XMGZUEYk20cjx//vOfhaAK98WPvOCXkbG/WfSkIdG6+9XhlDe0mDp0TKHTR49TYw1R7bEPKDntIkpKuYT6Dvt9wDC0onXjxo20bds20Sosn+HIj73wbQ9mwcmPs5AiVI7h8dwezJ/zf9OnT6eioiKvR15oRavv4zPYSbaJSmu4WWfv9So26ips2ksJs7uBAPLWDauMGEHAeQQgWp23JvDIoQRiUbS2tbXR5MmTwyZuhoWRDc+ev3+fehYPpsSUTtRUf55OH75Ava9ZKvxuqj9EyWl5QWOQonXu3Lk0f/58Gjp0KPEzHIO1B0tByo/+0N5/umXLFiFahw8f7tXeq63A+opWFrZsx7dKi/bgsFPPtgFG8jaUsypshpoTn4OAWQLIW7MEMR4EQMAIAYhWI9QwxpUEzAg1JwIzE4+ZseFuePa8dgtd8p0BlNQ5VWA8vP09yhnwGKX3uE43VohW3ahwYQAC4eatHpBsEy8QiEYCRm/xiMZY4TMIgIAzCEC0OmMd4EUUEDAj1JwYnpl4zIwNZ/O/b9MPKXvQZZSclk7NjWfoq93llNgpmc6crKfCEVt1Y7W7PRiVVt1L5dgLw8lbvUGosKl3blwHAkYJIG+NksM4EAABMwQgWs3Qw1hXETAj1JwIykw8Zsbq3fBU7HiQuvZqo+QuXamprpaS07vS/k2vUvfLxtHZ2t3Uc/BcSk7tqQutkYOY5D2tpaWlpg5i0rYZa9uDueV43LhxNHLkSBzEpGsV7b1Ib96G46UKm+HMj2tBwAgB5K0RahgDAiBglgBEq1mCGO8aAmaEmhMhmYnHzFg9G56W5nr6bMsd1Of6a6j2yCFq+LqJLjSdEI+36dL9Lup22d2OQtrY2CgOYpL3yjrKOThjCQE9eRvuRCpshusDrgeBcAkgb8MlhutBAASsIADRagVF2HAFATNCzYmAzMRjZqzeDQ8fsPTFjsmU0fN71OPySXT21D768oPpFBeXRFfc/BfbkfIhTlxF5cfW8Isfn8MnEqekpNjuGxywnoDevA1nZhU2w5kf14KAEQLIWyPUMAYEQMAsAYhWswQx3jUEzAg1J0IyE4+ZseFseFpbmig+IdkLX2PtAUrp2teJSOFTDBMIJ2/1YrDS5vkzx6ix7nPqkj1M7/S4DgQMEbAybw05gEEgAAKuJADR6splR9BGCJgRakbmUz3Grniw4VG9srCvgoCKvLXCZuPpA/T5tv+m1pYGSr04hy40xlGPK35N6d31n66tghdsxi4BK/I2dukgMhAAAVUEIFpVkYXdmCNgl8hTBdKueLDhUbWisKuSgIq8NWvz7KndVLFzEuUMHkTJndOI4uLozMmv6ND2rTToJ9upQ3KmSiSw7VICZvPWpdgQNgiAgEkCEK0mAWK4ewjYJfJUEbYrHmx4VK0o7KokoCJvzdhsa22msg3XU9+SmyguPo4qd+2llIwMyuidS6ePHaLGmmTKH1KqEglsu5SAmbx1KTKEDQIgYAEBiFYLIMKEOwjYJfJU0bUrHmx4VK0o7KokoCJvzdhsqNpFRz6ZQnlDrqOjH+6ijF6/oLrKNyklq4G69upNx8s+pR795lHnrP4qscC2CwmYyVsX4kLIIAACFhGAaLUIJMzEPgG7RJ4qsnbFwxsevEAgGgnk52Vb6raZzX/zuSrat/lW6lvyn/T1vn9Rh4QrqebQa5TZpydl9Cmgg29tpkG3fdjOX+0zi7UnXfNp2FOnTqWZM2dSQUGBpXHCWGwRMJO3sUUC0YAACESSAERrJGljrqgmYJfIUwXNrniw4VG1orCrkoCKvDVrc/9bP6Lcq/pTfIcOdOKzT8VzjDPyLqXaIxXUVNuV+gxZoRsJRKtuVK6/0Gzeuh4gAIAACBgiANFqCBsGuZGAXSJPFWu74sGGR9WKwq5KAiry1ozNsr9dR/nD/oMSkjpS46lq6tilK8XFJ1DDyeNUuauMika9S/EJSUErrfzhrFmzaMOGDeI5w3V1dai0qkyiGLFtJm9jBAHCAAEQsIEARKsN0DFldBKwS+SpomVXPNjwqFpR2FVJQEXeGrW5+9XhlDe0mDp0TKHTR49TYw1R7bEPKDntIkpKuYT6Dvt9QBTa9uCNGzfStm3baMGCBVReXk5Tpkyh1atXoz1YZSLFgG2jeRsDoSMEEAABGwlAtNoIH1NHFwG7RJ4qSnbFgw2PqhWFXZUEVOStEZt7/v596lk8mBJTOlFT/Xk6ffgC9b5mqQi9qf4QJaflBcUgRevcuXNp/vz5NHToUBo9ejShPVhl9sSWbSN5G1sEEA0IgIAdBCBa7aCOOaOSgF0iTxUsu+IxuuHZXXuCqs+d9cKR1bETFXbtpgoR7IKAh4DRvA2GMFybe167hS75zgBK6pwqzB7e/h7lDHiM0ntcp3ulIFp1o8KFAQiEm7cACQIgAAJWEIBotYIibLiCgF0iTxVcu+IxsuF5o/ILmv3BZsrs2NkLR3VjAy0c8gMqye6jChPsgoAgYCRvQ6ELx+a+TT+k7EGXUXJaOjU3nqGvdpdTYqdkOnOyngpHbA01ledztAfrRoULIVqRAyAAAg4iANHqoMWAK84mYJfIU0XFrnjC2ajL2P9wsIwONJyiewcN9cLx/CfbqG9qBv28YKAqTLALAraL1oodD1LXXm2U3KUrNdXVUnJ6V9q/6VXqftk4Olu7m3oOnkvJqT11rZRWtPIAHMSkCxsu0hAw8m84AIIACICAWQIQrWYJYrxrCNgl8lQBtiseIxsep4hWu+/7a2xsFCJD3oeoKjcC2bVr/iVLllCfPn3EvZd2vYzkbShf9dhsaa6nz7bcQX2uv4Zqjxyihq+b6ELTCfF4my7d76Jul90dahp8DgKWEtCTt5ZOCGMgAAIgQEQQrUgDENBJwC6Rp9O9sC+zKx4jG56FZe/Qqr0fUGpSR684G86fo/H9r6GZA4eFHb+RAQcPHqSpU6fS0qVLbTlh1S7RKFnZMb8dc/rLDSN5GyrH9NrkA5a+2DGZMnp+j3pcPonOntpHX34wneLikuiKm/8Sahp8DgKWEtCbt5ZOCmMgAAKuJwDR6voUAAC9BOwSeXr9C/c6u+IxsuF5et9O2nzsc7o2t7dXmP/44jO6Pb8//erK4pDhc7WutLRUXLdmzRoqLv5mzPr162nGjBniz4sWLfJU87TXT5gwgSZOnOjVSsmPCUlJSWk3rxRZAwcOpBdeeIEqKysDzsd2p02b5jm5NTc3l/bs2UOrVq2izMzMgLbT0tLorbfeamebWz/Hjh0rxmltjx8/nqZPny5i5ngrKirEvPxnfuTJoUOHaMyYMV6VTBkHP8MzJydHPAqF/eNKb6D5tcw4fo6DXyz0tbEdOHDA46d2PfhHgXHjxom4+LmhzJgfy8LrI31gLhxPWVmZ572CggLi2J9//nkxX79+/UR88qVtieU1Yz/5xdf489kfeyN5Gyopw7HZ2tJE8QnJXiYbaw9QSte+oabB5yBgKYFw8tbSiWEMBEDA1QQgWl29/Ag+HAJ2ibxwfAznWrviMbLhCdQe/Mh7r9PwHr1D3tPKomXx4sVCRHGL78KFC0W1lMWTfJ/ZSXGXlZXluUaKrpkzZ3oEWLBKqxR7fLF8/qWcg+dbt26deJ9fLADvuusu6tu3r5jbVzj6rqevbe1zNo8dO+apAktxyW3EJSUlnrj8ida1a9f6FclS0MoY2G/5mBQZm3Z+9u3UqVN06aWXkvQzUGy8HtofDVhEyx8FZOuzbAkeMWKEpyVa/pnt8nitGA32nFFtWzez4fW/++67xQ8D/nyWvmn5G8nbUN9HFTZDzYnPQcAsAeStWYIYDwIgYIQARKsRahjjSgJ2iTxVsO2Kx8iGh0Vr+clKujN/gBeOp/Zsp5vz+oUUrdrqotaA7/u+QomrjLJiyeP0tAdrBRuLH61g2rVrl6eqK/1g+yxYtdXQQGvu2yrrK9qkIOZqoozN17a/Squ/qrG/+0iDzS+rzr4VbSnIZaVXxuZbFWY/uSLLPw5w5VS+tHNKAc5VVvmSFdjq6mrPDxD+KqXs1/Dhw4l/kHjppZfEPIF8hmhV9a8O7MYCASP/hsdC3IgBBEDAXgIQrfbyx+xRRMAukacKkV3xGNnwsGgtO1lJY3xE6/I92+kWBaJVHvjDglO2onJLMQueUPe0hhKtsjVXu65yHl9h57v2ThatXOnl1t5JkyaRtiLqK1r9VYuZiV7R6k/YMidtNd2faOXP3377bXGgE794jWU7sq/PEK2q/tWB3VggYOTf8FiIGzGAAAjYSwCi1V7+mD2KCNgl8lQhsiseIxseq9uDpfDUVueYs7Y9WFbj+H3ZxhuOaM3Ozhb3TGrFFLcHT5kyxev+UH8tvIHWPJhoDdQe7K+9VvqmbQH2vT/Xtz2YW5xXrlxJy5Yt85xerK308vyy7ZpFOAtYvjaQaOUW36KiIsGW/fHXHswctO/LWAKxlW3Y/kSrrHi3trbS7NmzRTWXRas/nyFaVf2rA7uxQMDIv+GxEDdiAAEQsJcARKu9/DF7FBGwS+SpQmRXPEY2PCxa99dV0z2F3gcuzd++mW7MyQ/ZHswMAx24pOd930ON8vLyxH2pwQ5iqq2tpXfeeUcsX6CDnwIdlmREtLIv/g5i0sbOrbQ33ngjpaameh3EFCgW31ZfKTLlfafBnvnJhzUVFha2u6fW15977rlHHKrEPrAol5VteZATC1D249VXXxViP9hBTMFEq5yXD56S8WoPm+KDn6TP/h6tYyRvQ3132SZeIBCNBPLzsqPRbfgMAiAQxQQgWqN48eB6ZAnYJfJURWlXPEY2/yxaPzhaQSO7f9PaKV8vHNpDIwoG6BKtqjj62nXKI1oiFa9b5jGSt6HYqLAZak58DgJmCSBvzRLEeBAAASMEIFqNUMMYVxKwS+Spgm1XPEY2PGbbg61mqK3Q+dr+5S9/SVVVVZ4W2nDnDmZbeyhUuHZxvTkCRvI21IwqbIaaE5+DgFkCyFuzBDEeBEDACAGIViPUMMaVBOwSeapg2xWPkQ2P00SrqjWBXecSMJK3oaJRYTPUnPgcBMwSQN6aJYjxIAACRghAtBqhhjGuJGCXyFMF2654jGx43qj8gp4of5+u7tHTC8fWwwfoke+U0Pdz8lVhgl0QEASM5G0odCpshpoTn4OAWQLIW7MEMR4EQMAIAYhWI9QwxpUE7BJ5qmDbFY/RDc8rX+ymirpaLxwFXTLp9j79VSGCXRDwEDCat8EQGrW5u/YEVZ8762U6q2MnKuzaDSsGAsoJGM1b5Y5hAhAAgZgmANEa08uL4KwkYJfIszIGrS274sGGR9WKwq5KAiry1ohN7jqY/cFmyuzY2Svc6sYGWjjkB1SS7X1YmUomsO1OAkby1p2kEDUIgICVBCBaraQJWzFNwC6RpwqqXfFgw6NqRWFXJQEVeWvEZqD7u5//ZBv1Tc1w1EnaKtcDtu0jYCRv7fMWM4MACMQKAYjWWFlJxKGcgF0iT1VgdsWDDY+qFYVdlQRU5K0RmxCtKlcZtvUQMJK3euziGhAAARAIRgCiFfkBAjoJ2CXydLoX9mV2xePkDc/69eupoqKCpk2bFjZPOeCZZ56hm2++mXJzc2nWrFm0YcMG8ZH2cTU7d+6ksWPHeuZYtGgRjR49mnwfdzNw4EBatWoV1dTU0ObNm+n+++837BcGmiOgIm+N2FxY9g6t2vsBpSZ19Aqo4fw5Gt//Gpo5cJi5QDEaBEIQMJK3gAoCIAACZglAtJoliPGuIWCXyFMF2K54YnnDw2L08OHDQoBqBTCLzvHjx9OYMWPafaZdX75u6tSpNHPmTCooKPBaerbXq1cvKi4uVpUSsBuEgIq8NWLz6X07afOxz+na3N5e3v7ji8/o9vz+9Ksr9eeH/JHkrrvuCppXBw8epIULF9LSpUspMzMzInlixQ9IEXHUhZMYyVsXYkLIIAACFhOAaLUYKMzFLgG7RJ4qonbFY8eGh8Xk888/L1D269dP/G+fPn2EgNRuyLds2SIqrSwwWTxytfTll1+mnJwcWr16tRCS2mroqFGjqK6uTohMvnblypVirL+N/ZIlSzxzav+sXd9g4oAFLVddJ06cSCkpKarSAnYDEFCRt0ZsWvnMYr2ilb8/ixcvFvkXKdHK3xF+mel6QDKrIWAkb9V4AqsgAAJuIgDR6qbVRqymCNgl8kw5HWSwXfHYseHhTfeUKVM8wpP//vbbb4sNsbaiI//MwlNbGdVuoPmabdu20YIFC6i8vNxjl1G/9NJLQsD6ikptBZU3/Wy7rKxMrI5sAeb32faMGTM8qybbhvkNFhhc7br77rvbVWFV5Qjs/puAirw1YpNFa/nJSrozf4DX8jy1ZzvdnNdP10FMnM+lpaV0ww03CBv33nuvqLTyjybjxo2jyspK8T7nX0lJiSdfZYu7Nk+1be/B8kXOKe3yD0bye+H741B1dbWnfX7NmjWie4G/c4cOHaKf/vSn9OGHH5KsDvN3ed26deL7iB9zIvONNZK3kfEMs4AACMQyAYjWWF5dxGYpAbtEnqVBaIzZFY8dGx7fShFvlufPn09z584V1aPhw4eLTbuvaJ0+fbrX+1zl5PtUhw4dKqq0WjHKG20phLVrFqqapRXB2k23bCmWPrBN3vhLX1XlBez6J6Aib43YZNFadrKSxviI1uV7ttMtOkSr9rvAOcYiddmyZSLPd+/eLX4Q4TzUikH+cUZWWg8cOOARiUyKvw+h2ot9W+VlC7z8AUe2zWt/HPL9oWjt2rWeSi/b4xd/BwN1LSCP1REwkrfqvIFlEAABtxCAaHXLSiNO0wTsEnmmHQ9gwK547Njw+Gtv5M3ugAED6J///KcQr7LSKduDuRpqVrQGu0dVLkug1kspdqVAhmhV9U3QZ1dF3hqxabY9WCsG/f2goq22cvu77CiQopVb6LXdAEwvVLVVW2WVtLVVXN/vGXdABOpuYEHNPnJXw4MPPki//e1v0X2gL4Utu8pI3lo2OQyBAAi4lgBEq2uXHoGHS8AukReun3qvtyseOzY8/oQhb3x/97vfUXZ2tue+uVCVVtlOrKc9WFvN1d4H6Pu+7+ZcVpDYP65I8eE38l5atAfrzW7rr1ORt0ZssmjdX1dN9xR6H7g0f/tmujEnP2R7cDDRyp/t2LFDVDS1FVVtpVXe9x3OvaaBqqG+3QTaimww0Spb5YcMGSL89deSb30GwKIkYCRvQQ8EQAAEzBKAaDVLEONdQ8AukacKsF3x2LHh8Sda/VWZ9IjWYAcxaUVloOoStzRqH3mjvafV95E32ntaZXUJG3RV34jgdlXkrRGbLFo/OFpBI7v38XL4hUN7aETBgJCiNVh7sO9hYcePH29XaWUxK+8Pl4910nYD+KPI3yvZ3sufyy6Gvn37ev6sbc8PVWllGxzHc889R7feeqtoE8YrcgSM5G3kvMNMIAACsUoAojVWVxZxWU7ALpFneSDfGrQrHqdseKx4jIevGNY+8sbqdcMjb6wmGp49FXlrxKbZ9mCOOtBBTNofU7hl/t133xWVfnnv68iRIz2Hl8kW4VCtwZJyoIOY/LXhy44GnkN7EJP2sCU9rffhrTCu1kvASN7qtY3rQAAEQCAQAYhW5AYI6CRgl8jT6V7Yl9kVjxM2PHJzrq1k6gXoe8Ivb6rls1NVnfCLKqve1VF3nYq8NWLTCtGqjlLkLOPU4Mix9p3JSN7a5y1mBgEQiBUCEK2xspKIQzkBu0SeqsDsigcbHlUrCrsqCajIWyM236j8gp4of5+u7tHTK9ythw/QI98poe/n5KvEENC2v3Z4vlge5mTl42jkD0faH4xsCdqlkxrJW5eiQtggAAIWEoBotRAmTMU2AbtEniqqdsWDDY+qFYVdlQRU5K1Rm698sZsq6mq9wi3okkm39+mvEgFsg4AgYDRvgQ8EQAAEzBCAaDVDD2NdRcAukacKsl3xYMOjakVhVyUBFXmrwqZKBrANAhCtyAEQAAG7CEC02kUe80YdAbtEnipQdsXDG3W8QCAaCeTnZVvqNkSrpThhLEIEkLcRAo1pQAAEvAhAtCIhQEAnAbtEnk73wr7Mrniw4Ql7qTDAAQRU5K0Kmw5ABRdinADyNsYXGOGBgEMJQLQ6dGHglvMI2CXyVJGwKx5seFStKOyqJKAib1XYVMkAtkGACSBvkQcgAAJ2EIBotYM65oxKAnaJPFWw7IoHGx5VKwq7KgmoyFu0yqtcMdhWScDqVnmVvsI2CIBAbBCAaI2NdUQUESBgl8hTFZpd8ajY/KtiBLsgIAmoyFsVNrFiIKCaAPJWNWHYBwEQ8EcAohV5AQI6Cdgl8nS6F/ZldsVjdMOzu/YEVZ876xVnVsdOVNi1W9ixYwAIhEvAaN4Gm0eFzXDjwvUgEC4B5G24xHA9CICAFQQgWq2gCBuuIGCXyFMF1654jGx43qj8gqZse42yU7t44TjecJqeuO6HVJLdRxUm2AUBQcBI3oZCp8JmqDnxOQiYJYC8NUsQ40EABIwQgGg1Qg1jXEnALpGnCrZd8RjZ8PzhYBkdaDhF9w4a6oXj+U+2Ud/UDPp5wUBVmGAXBCBakQMgoCFg5N9wAAQBEAABswQgWs0SxHjXELBL5KkCbFc8RjY8ThWtNTU1NHXqVJo5cyZVV1fTunXraMGCBZSSkqJq2YTd9evXU0VFBU2bNk3ZPDt37oxIPFqGBQUFyuLRGmZ+27ZtC2utjORtqGCM2kSrfCiy+FwlAaN5q9In2AYBEIh9AhCtsb/GiNAiAnaJPIvcb2fGrniMbHgWlr1Dq/Z+QKlJHb3iaDh/jsb3v4ZmDhymCpNuu5ESebodMnlhpOI5ePCgEP5Lly4liNbQi8at8rM/2EyZHTt7XVzd2EALh/wArfKhEeIKkwSM/BtuckoMBwEQAAGCaEUSgIBOAnaJPJ3uhX2ZXfEY2fA8vW8nbT72OV2b29srzn988Rndnt+ffnVlccj4ubo2Y8YMcd2ECRNElbKxsZFmzZpFAwcOpBdeeIEqKytp1apVtGHDBvGf73X8Hr9GjRolqnQ8PtxK65IlS6i0tFTY4Xl5vszMTNK+L+flKuT48eOprKxMXL9mzRoqLi72qrSy6Bs3bpzwnccdP35c+LZx40ZRTTx06JAYL22yHe0YrQ+BbAWqHMsq6fXXX0/z58+nZWwkJwAAIABJREFUnJwcWr16tRCfkq0vs/Lycnr++edFPPn5+VRVVSVYM9MpU6bQww8/TLm5ufTyyy972dOy0M7D4lra69evX7vqs5arlt+mTZuED1u3bvViEyiRjORtqKQ0YtOpXQehYsXnsUPASN7GTvSIBARAwC4CEK12kce8UUfALpGnCpRd8RjZ8ATaqD/y3us0vEfvkPe0aquGzJOF6l133UVFRUXiz/ySQo+5sPDidt/FixcLUXnu3DlxDYslbTsri81wRCuPPXXqFF166aUeUcd+ZGVl0cKFC0W1kV/S5q5duzxtwNoYWJBye/DEiROF/0OHDqXRo0cL4asVrWvXrhX+S5/ZvtZnFpey1TiYrWCilUX1kCFDhFjUtt1ynP6YMVcWp1Lcaiut7BvbGzNmjCcetiF9Y1Ys2rUsWARr7Wm/L3ydXENmIBlv2bKF5DpL3qEqvUbyNtR314hNiNZQVPG5agJG8la1T7APAiAQ+wQgWmN/jRGhRQTsEnkWud/OjF3xGNnw8Ea9vKqSxuQXesWxfM82urlXv5CiVVtllQa48ugr1LRi6NixYx6Rw2JKWzmUlb5wRauc27f6J8WztrrL12orn7JKyO9LofmTn/zEq7XWV9jK+za1FWEeLyuz0h+uts6ePZsef/xxT5uunvZg3/tR2V8pDAMx0/4YwNf4E63Tp0/3qiizkNVWnKUY9v1xge1pX4Hu/dWKay2bYO3JRvI21HfXiM1oaJUPFTc+j24CRvI2uiOG9yAAAk4gANHqhFWAD1FBwC6RpwqOXfEY2fCwaC07UUl35vf3wvHU3h10S54+0erv4CIpRGWlMpBoPXDgAI0dO1a05/bt29dTCQ1XtEoROmnSJBoxYoSn4svVQ35pW2C1IpX94vllKy9XCjkeo6JVKywlUN97S82K1kDMjIpWWX32FZbaaqobRKsVrfJyzWX+ywp2oH9rfH+MUPVvkp4fHCIxN+YITsDIv+FgCgIgAAJmCUC0miWI8a4hYJfIUwXYrniMbHisaA+WLaR8v6RsqZXCUY9olScDa9tRjYhWKRhZoHLFc9myZaI9+KWXXhKnEPNLti8fPnxY/J1bf7XCQYrWUO3B/iqtvi24suo4d+5ccV+qv1bjUO3Bsp1XW8FkTv6YGRGtMs7s7GzRhqwVqiyOZQuwr2j1bQ+WBz5x27U/NtFQaTX7XdD+e6JXtAb7YUDVv0/cjcAvlSdkq/I91u0a+Tc81pkgPhAAAfUEIFrVM8YMMULALpGnCp9d8RjZ8PBG/V/11XRP4RAvHPO3/4NuyM4P2R7Mg4IdxBRKtPJ42Z76s5/9jOrr68U9sdqqq55H3mhbjPngobS0NCosLBSiNJh/8jAjIwcx+R4YxcLMyoOYmEuXLl3onXfeCXhwkpYZs9SKTFldzsvLE/emskD1bQ9m4RLsIKZAotV33RctWuRhHc2itfwkdx0M8PouPLVnO92so+uAB8n29BtuuEHYuPfee0U7tjYv+H3mVVJS4sl9eZiXv1wN9e+UdoxcB7mmvus9fPhw0VnAL23HQag58HlkCBj5NzwynmEWEACBWCYA0RrLq4vYLCVgl8izNAiNMbviMbLhYdG688gXNKJ7Hy8cLx7aQyP7FuoSrao4OslupKtTvqLDSSys9sVI3obywYhN0Sp/ku/v9haty/ds19Uq71t9ltV+Fq27d+8WJz9zZd33sCv5wwBXtmUFneOTXQGyxd1fzNo55Q9ALFT5Rx/+0cPfjxSRzuVQa4XP/03ASN6CHwiAAAiYJQDRapYgxruGgF0iTxVgu+IxsuGxsiVSFU9pV3vIknYu+ZicQK22RvzyfayM9vE1Ruz5G+NbfdNe89xzz9Gzzz7rER1WzelEO0byNlQcRmya/S5oxaC/9mDtesuc5VZvKVq5NV0+OkrGp32ckr+YfQ/EYh/69OnjqeJCtIbKFGd9biRvnRUBvAEBEIhGAhCt0bhq8NkWAnaJPFXB2hWPkQ2P2Y26Koaw6x4CRvI2FB0jNvm7sL+OW+W9n008f/tmujEndKt8MNHKn+3YsUM8JklbUfUVrf4ONQsWK0RrqEyIrs+N5G10RQhvQQAEnEgAotWJqwKfHEnALpGnCoZd8RjZ8LxR+QU9Uf4+Xd2jpxeOrYcP0CPfKaHv5+SrwgS7ICAIGMnbUOiM2GTR+sHRChrp0yr/wqE9NKJgQMhW+WDtwbIC6vvMX61oZTHr71AzHhPoFag9WD7qie8pl4eiycO20B4cKnvs+9xI3trnLWYGARCIFQIQrbGykohDOQG7RJ6qwOyKx+iG55UvdlNFXa0XjoIumXR7H+/H4KjiBbvuJmA0b4NRM2LTiq6DQAcxyUcrsc98mvS7774rntsrT7oeOXKkOM3XqoOYeB5pi599fOONN1JqaqrXHDiIyXnfOyN567wo4BEIgEC0EYBojbYVg7+2EbBL5KkK2K54sOFRtaKwq5KAirw1YtMK0aqSE2zHPgEjeRv7VBAhCICAagIQraoJw37MELBL5KkCaFc82PCoWlHYVUlARd4asenUVvlIHkCmcp1hOzQBI3kb2iquAAEQAIHgBCBakSEgoJOAXSJPp3thX2ZXPNjwhL1UGOAAAiry1qhNtMr//+ydCXxVxfXHT4AkBAhLUCSg7IgCYVELiCIqLlQRl4IK9k9FqYgKLmVf3LDsLhUqQhGUlsViqwVURGlR2Ytiwi47SFAgEJJA2BL+nzM66X0vb5k7995373vvdz8fP6V5d86c+c65efeXM3PGAwERxy7oxm0cI8PQQQAEbCAA0WoDRJiIDwJuiTyn6Lo1nlh74fGvjOrUfJm1azxnU/eYHbaxf/9+4iI7xn2MxqN1/I/EMR5/Ysy+8Z7FWbNmUe3atWny5MnifM60tDSzw3Ltfifi1gmbrgFCx3FDAHEbN1ONgYKApwhAtHpqOuCMlwm4JfKcYuLWeGLthSdWq5xy8R0++qR///508OBBGjt2rCjKw0KTx3zo0CEaM2YMcWXZ+fPni38bxXGgM0BlLLPQXbp0KT3xxBNOhbftdp2IWyds2j5wGAQBPwKIW4QECICAGwQgWt2gjj6jkoBbIs8pWG6Nx60XHmPWT2YKWWQNHz6c+JiNRYsWiUxgTk4O9ezZswS7rF4qRdjChQtJZg2N98r7jP2MGzdOZCk5Yzl9+nRhs0mTJqI6qrz8M6JGERzIZ243aNAgkbHctGkT9evXjz755BMhGvni8Tz44IPi3ywmuQrs6NGjxRinTZsmfm6syBqskixnVuvUqUNt2/qeB8rtjT4vXryYAp3byaKX/Rw2bBg1atSoVBi/9dZbdNtttwX8zKmYt2LXibh1wqaVMaItCKgQQNyqUMI9IAACdhOAaLWbKOzFLAG3RJ5TQN0ajxsvPCygjh8/Tg0bNiRjBlCeEynPhpSCTAo149Jf/veqVatKZRd5qStf8igQKeCMoo3FrTzb0l/AGe9jIcoZzV69eomMZiCfGzduLJbW9ujRQwhibs+ilMUp/1tmRPk8TX/RKn00jmP8+PEioyqPNZk0aRIxF+lHIMEpz/OUZ2uykOdLinluYzw+hT8zLhvm/888+Qp1vqdTsa9j14m4dcKmztjQBgTMEEDcmqGFe0EABOwiANFqF0nYiXkCbok8p8C6NR43X3iMmUvONkrR2r59ex/xZBRcUmxJoeYvsoJlRuW8cbaVM5ZSHAbax8k2OnbsSNWrV6fZs2eL7KRcauvvsxStQ4YMKcmCyvbc55dffikEtMyGykyrHKMxS2oU3EYxz31IIezvb6g9vGw70DilbSNnvlf66lSM22nXibhlm7hAIBoJNKibHo1uw2cQAIEoJgDRGsWTB9cjS8AtkefUKN0ajxMv/+EYyWJBAwYMIJkd5CW0/qJViiu2x8ttjUtfVUVr/fr1S2UPg4k56bcUcNyWLxbGwXwOJFple27L4pczxU6I1mAM5DjYZ14SzHtf/TO0/nt/IVqJ3HgWwj0r+BwEwhFA3IYjhM9BAAScIADR6gRV2IxJAm6JPKdgujUeN154WEzJZbP+y2B5D6jMAIZaOuy/PFhmFHlpLV9y6e28efPEclu+eBkvZ0T5CpVplUuEi4uLacSIEULwBfM5kGhlvzlrun379pJiSSqilYsoqS4Pltlc4x5X7te4jNifkcyk8vgkC+PSaynQnYpxO+06EbdO2LRzzLAFAoEIIG4RFyAAAm4QgGh1gzr6jEoCbok8p2C5NR43XniMRZS6du1KqamplJGRUZJ1NS5blUe78P7MRx99lDIzM0sq4/ov1WUBJu8PV4gplGjlOTYKPl4aHMznTp06lRKAsr2xIJKKaOV+QhVikqLSf38q/5w5cjaaKwv37t2bsrOzffa08j1GXsY9rf5i16kYt9OuE3HrhE07xwxbIADRihgAARDwCgGIVq/MBPzwPAG3RJ5TYNwaD17U7Z/RUMfLqPbmv7TXeOSN7jmvwfrGkTc/k8GzoBqduM9LBBC3XpoN+AIC8UMAojV+5hojtUjALZFn0e2gzd0aD1547J1RufS2bt26pc5KDdeTfwZVHtEj2zlR4Tcas6xOCUzdZ2Fj7mHKOX3KZ3qrl69AGVVrhJtyfA4Clgnoxq3ljmEABEAgrglAtMb19GPwZgi4JfLM+GjmXrfGgxceM7OEe71CwIm41bH5RfZuGrFuKaWVr+iDJqewgMa260yd0n8u5oULBJwioBO3TvkCuyAAAvFDAKI1fuYaI7VIwC2RZ9HtoM3dGg9eeJyaUdh1koATcatj872dmbSj4Dg91qq9z3Cnf7eKGleqRr9r1NJJDLANAljWjhgAARBwhQBEqyvY0Wk0EnBL5DnFyq3x6LyoO8UAdkFAlYATcatjE6JVdcZwn1MEdOLWKV9gFwRAIH4IQLTGz1xjpBYJuCXyLLrtyUyrU2OCXRBwkkCDuum2mtd5+R+b+RXN2LyOKiWV9/Gl4Oxp6tOsDQ1reYOtPsIYCPgT0IlbUAQBEAABqwQgWq0SRPu4IQDRas9U44XHHo6wElkCTsStjs0pW9bS0oO76Nra9XwAfLZ7G3Vr0Iyeato2JBh5FBIfV2SsCi3PCh42bJg4J9ipi/sPdPwTF/0yHtnkVP+wa52ATtxa7xUWQAAE4p0ARGu8RwDGr0wAolUZVcgb8cJjD0dYiSwBJ+JWx2aw5cEvrviUOtasp72n1W3RGtnZRG9WCOjErZX+0BYEQAAEmABEK+IABBQJQLQqggpzG1547OEIK5El4ETc6thk0Zp1JJseaNDcB8CfNq2m2+o2CStajZlWNjB8+HBauHAhde3alfLy8ihUplWeB9yyZUt65513KDs7m+bOnUtt27Yl+Rnb4ovtcTaXfz5o0CCqXbs2bdq0ifr160dTp06lGTNm0LJly4h/r86aNYs2bNggMq39+/cXPqWnp9O0adOErUB9qPgb2QiJn9504jZ+6GCkIAACThGAaHWKLOzGHAGIVnumFC889nCElcgScCJudWyyaM08kk09/ETr65tW0+0mRevixYtp1apVQlxmZWXRwIEDhYAMtjxYClMmL9vIpb6nT58WE1KrVi0yZm3T0tKoT58+1KNHD+revTvJ5cH8s88//7zkbGG5PNgoWgcPHkz8c+mjWX8jGyHx05tO3MYPHYwUBEDAKQIQrU6Rhd2YIwDRas+U6r7wbMw9TDmnT/k4Ub18BcqoWsMex2AFBEIQ0I3bUFB1bFpdHiwzraNGjaLRo0dT+/bthZhUWR4sReuDDz4osqv+bYzZVhavLIClaB0yZIhow/337NlTiFujQPYXrdIvK/4ioJ0hoBO3zngCqyAAAvFEAKI1nmYbY7VEAKLVEr6SxjovPCsPH6Anv/oXpVeq4uPEoYIT9Op1d1Kn9Pr2OAcrIBCEgE7choOpY5NF6/a8HHo0w7fg0ujVS+mmWg2UlwfbLVpzcnKEGOWlvI0bNxZLgnmpcSDRytnZcJlWiNZw0ePe5zpx65636BkEQCBWCEC0xspMYhyOE4BotQexzgsPzqa0hz2s6BPQidtwvenY5Gdh3Q976K5LfP9Q886+TdSlUXNl0crLe80ut5WZVN5vykt3jZWAd+zYQfPnzy+11DiYaOU9rfxf/fr1RaY3XKZVx99w/PG5HgGduNXrCa1AAARA4H8EIFoRDSCgSACiVRFUmNt0XnggWu1hDyv6BHTiNlxvOjbtWh7MIpAvnUJMubm59NVXX4n2skgSLxXm7GlmZiY99NBDlJ+fT7yMmLOu/HPj8mC5D1YuL544cWKpQkz+mVYdf8Pxx+d6BHTiVq8ntAIBEAABiFbEAAiYJgDRahpZwAY6LzxjM7+iGZvXUaWk8j42C86epj7N2tCwljfY4xysgEAQAjpxGw6mjk2rojWcT6E+l5lWKSit2LLaNth5r1bton14AjpxG94q7gABEACB0ASQaUWEgIAiAYhWRVBhbtN54ZmyZS0tPbiLrq1dz8f6Z7u3UbcGzeippr77++zxNLQV/6I0kejTa334M5gwYULJcs9wvqryk8tGeTmqm5dO3IbzV8fmF9m76dWslXR1zct8zC/fv4NevKYT3VKrQbhuQ36+c+dO6t27tzjOxv/iwkkffvhhSfEmSx1pNOZYGDp0aElLmeXVMIUmFgjoxK2F7tAUBEAABAQBiFYEAggoEoBoVQTlgGh1M7tkz6hj34pTWTgWwnxBtP4vht7fvZH25OX6BFWjKmnUrX6z2A80jNB1AhCtrk8BHACBuCQA0RqX045B6xCAaNWhVrqNzgsPi9aNRw9Rz0YtfAy+lrWSbq1zuXLxmdTUVJozZw517dpV/Md77YxHb/hnmcaNG0ddunQR+/7kkkjO9sybN48mT55MkyZNKtm3x9VSO3ToII4RYZv8Ge/d4z1+bEcWm5FnTrLIkxVWufIqF7EJ51+oGWBxN23aNHGLzEAZjyDhn/OY5fma/v3xz1NSUigQA/Y90HEmtWvXFmx47+L+/ftFFozH/uKLLwofeK8iF+IJlIE1ZlpltVm2x/Mj50RWpDWOyThOyZU/Nx6lctNNN1GlSpWE0DXutTTONd8/ffp0watJkyZhRbFO3IZ7YpywGa5PfA4CVgkgbq0SRHsQAAEdAhCtOtTQJi4JQLTaM+06LzwsWr/76SB1r3+ljxNTtqyj2+tdoSRajcdxsFht164d9e/f30eQbty4kRo1aiTEmzwfksUcCywWo0899RRNmTKF+LgQvkcKNllshm2yUGJhtWbNGlEdddmyZSSFqrFaq79oVfEv2AwY9/exSBs7dqwQjKdPnxZNWKwZz9Q0Hk/SokULJQb+lWZZ9MpjU1i0Gu2w0GcfevXqJUSrFOfMVl7+opXnpEePHkLcG7Orxn8blwobx2OsUCv94Aq3cn7luaLGOc3KyqKBAwf6nBUaKsJ14jbcE+OEzXB94nMQsEoAcWuVINqDAAjoEIBo1aGGNnFJAKLVnmnXeeGxujzYKOqMYrNt27alsoDGTKPMTBozkJxB5XaBRJeskGoUV0ahFEq0yoqq4fwLNAuh9n0GypDKzK7Mrvq3D8SAM8vyeJJAwtNf/LJNvlq3bk2zZ88WZ3by2EKJ1kD8/AWszCZLO5xtrVOnjshq8x8JWMDK8bAQlhVt5f3GLK6xTbjo1olbN2yG6xOfg4BVAk48C1Z9QnsQAIHYJwDRGvtzjBHaRACi1R6QOi88LFq/zz9Gv2/ZzseJl1Z+Rjem11fKtKqIQmOG1HjupMy8cjZULkmNBtEql8zyUl25BJfFYyjRGoyBWdHKwpfFaoMGDahixYoig2q8VPn5i1Z/4cw2/SvJGkVroCxvoDbholsnbt2wGa5PfA4CVgk48SxY9QntQQAEYp8ARGvszzFGaBMBiFZ7QOq88LBoXXtgN91Zw7d68Kz9m+muxhm2ilYpilgsHTp0SOwBlcuDWQC9/fbbYtmrcT+n/1mUwTKtvCRVimcWxXJ5KotIFVEdbAb8lwezn7w82ChOjcth+eeybzkOuWfXuP/UyMB/eTD7a9zX659pZV/feust+u9//0sjRowQy66tila5n5gzqnzJ8z+N/AMtD+alwrxs28iJ+Xsh02rPUwUrIBBZAg3qpke2Q/QGAiAQ9wQgWuM+BABAlQBEqyqp0PfpitYdBcfpsVbtfYy/uOJT6liznm2iVWYmuRPer/n111+L/Z4sAuXSVSl8/AsxSQHFS4eDiVYWv3K5Ki89zsvLE8tmrYpW9td4HIjMBhuLED300EOUn58viibxxaL1oosuIhazxmXQgRgYCyoZiz1JgSj3jLLIXbRoUck+UePSaOPSYO5fNdMqxyWLS9lZiMkLohUv//b8XoGVyBHQ+R0eOe/QEwiAQKwSgGiN1ZnFuGwnANFqD1KdFx6re1rt8Tx2rPgvp3VqZGbObbXLB6eO3tGJ23BjcsJmuD7xOQhYJYC4tUoQ7UEABHQIQLTqUEObuCQA0WrPtOu88HyWvYveyFpFV9e8zMeJ5ft30KhrbqbbazW0xzkPWzFmGI1uGrOkqu47LVqlcNy3b19JcSRV33TuM2aUub0Ok3D96sStGzbD9YnPQcAqASeeBas+oT0IgEDsE4Bojf05xghtIgDRag9I3Reev+3eSHvzjvs40bBKdepRv5k9jsEKCIQgoBu3oaA6YROTCAJOE0DcOk0Y9kEABAIRgGhFXICAIgGIVkVQYW7DC489HGElsgSciFtdmxtzD1PO6VM+AKqXr0AZVWtEFgp6i0sCunEbl7AwaBAAAdsIQLTahhKGYp0ARKs9M4wXHns4wkpkCTgRtzo2v8jeTSPWLaW08hV9AOQUFtDYdp2pU3r9yIJBb3FHQCdu4w4SBgwCIGA7AYhW25HCYKwSgGi1Z2bxwmMPR1iJLAEn4lbHZrCiZNO/W0WNK1ULW0k7stTQWywS0InbWOSAMYEACESWAERrZHmjtygmANFqz+ThhccejrASWQJOxK2OTYjWyM47eitNQCduwREEQAAErBKAaLVKEO3jhgBEqz1TzS88uEAgGgnYfaaqzsv/2MyvaMbmdVQpqbwPwoKzp6lPszY0rOUN0YgWPkcRAZ24jaLhwVUQAAGPEoBo9ejEwC3vEYBotWdO8MJjD0dYiSwBJ+JWx+aULWtp6cFddG3tej4APtu9jbo1aEZPNW3rOJgFCxbQqlWraMyYMZSSkiL6k8ccPfjgg9S2rfM+OD5IdBCUgE7cAicIgAAIWCUA0WqVINrHDQGIVnumGi889nCElcgScCJudWwGWx784opPqWPNehHZ0xpItEZ2NtCbmwR04tZNf9E3CIBAbBCAaI2NecQoIkAAotUeyHjhsYcjrESWgBNxq2OTRWvWkWx6oEFzHwB/2rSabqvbJKxoXbt2Lc2fP59SU1Npzpw51LVr15KM6c6dO6l3796UnZ0tbI8bN466d+9OUqTu27ePevToIT6TmdbJkyfTmjVriP930qRJxJlWvqZPny7+d/ny5UH76Nu3Lx06dMgnY+s/q8eOHaNBgwZR7dq1hb+1atWiWbNmUaNGjSiYv4HGyOPs06ePT3u2zT/LzMz0+XlkIyv6etOJ2+gbJTwGARDwGgGIVq/NCPzxLAGIVnumBi889nCElcgScCJudWyyaM08kk09/ETr65tW0+2KorVnz540d+5catGiBQ0fPpzat28vxOnGjRuFGOQlv1L48RLgxYsX07x582jGjBmUlpZWImJbtmxJhw8fpsGDB/ssD+aZGThwoBCXfD8LwyFDhpTqb8KECUqilduzWGYfuQ1f3Gcwf7OyskiOsXHjxqL/du3aUf/+/UvG26VLF/FvuZzZOF655DmyERY9venEbfSMDp6CAAh4lQBEq1dnBn55jgBEqz1TovvCszH3MOWcPuXjRPXyFSijag17HIMVEAhBQDduQ0HVsWl1ebC/OOMs6p49e4QI5MuYvZRZWBatxj2s3Gbo0KHEolUKWeOeVrYzfvx48RkLQCkOq1evLrKmEydOFOJYRSjKbCiLXt4rq+Ivi9ZA/XN7Fr3169enTp06lWRZ5RwZs7h4GIIT0Ilb8AQBEAABqwQgWq0SRPu4IQDRas9U67zwrDx8gJ786l+UXqmKjxOHCk7Qq9fdSZ3S69vjHKyAQBACOnEbDqaOTRat2/Ny6NEM32JHo1cvpZtqNVBeHiyLKBlFIAs6XurLYnPHjh1iGbHMtPqLVv7/oTKtkRCtwfxVFa0soIcNGyYENC51Ajpxq24dd4IACIBAYAIQrYgMEFAkANGqCCrMbTovPDib0h72sKJPQCduw/WmY5OfhXU/7KG7LvH9Q807+zZRl0bNlUSrXLrL+0SNy4NlFlIuw5X7TQNlWlm0jho1ikaPHi2W2MqlxnJPayDR6r8c2czy4ECZ1mD+qohWuTw4PT1dZJk56yt95iXNuIIT0Ilb8AQBEAABqwQgWq0SRPu4IQDRas9U67zwxKpodaMKq//ySntm1boVlaWi4XphG/v37y8pHsRLWPkyLmP1L97DxYDk0thQ9nXiNpy/OjbtWB7MovWiiy4iFnfGQkzMj/eC8sWC9OuvvxZLeZctW1ZqebDMvEqB6F+IKdjyXCN/1UJMck+s//LgYP5yljjc8mAW5ijEFC5CA3+uE7d6PaEVCIAACPyPAEQrogEEFAlAtCqCCnObzgvP2MyvaMbmdVQpqbyP9YKzp6lPszY0rOUN9jgXYStuiFZjIZsID9fR7liA8LJWLrZz8OBBGjt2rBBcnDUzZvRYZMllr2YK7ujEbbgB69i0Q7R6JaMYq7EYbt6j/XOduI32McN/EAAB9wlAtLo/B/AgSghAtNozUTovPFO2rKWlB3fRtbXr+Tjx2e5t1K1BM3qqqe/+Pn9POSOjcgQHtzMe88HVSfPz82nhwoXEWSEu4OJfgMaYOTJm9Px94Bf0adONiLutAAAgAElEQVSmiR9z5VaZNVqyZIn4GR8NYsz6Ge+XdmVRG17SuGjRIlGdNScnpyQ7ZrQtC+Ow77LAjPFe6YOxHzl2I68mTZr4ZCL9M6JG4RHIZ/ZJHlmyadMm6tevH33yySdiryRfskgP/5vFpFxyymP058X3yD5uvPFG0f6xxx4rYVmnTh3x70Dzb9yfaSw8pBrVOnEbzraOzS+yd9OrWSvp6pqX+Zhfvn8HvXhNJ7qlVoOQ3bq5DNYYk+ykjGvOjMoMr9F5FEYKF0HufK4Tt+54il5BAARiiQBEayzNJsbiKAGIVnvw6rzw2JFdCnQEBwucUMd88JyzMOSLz68cMGBASdVR3mPHx2kYi7kEW3prFAqcEZRZQF52aexDVlbl7ODx48epYcOGPkeJyD2Bch8e+8W2pVAz9m/M4hqzi7yMky9eEmu8X56HyYVpWNxKXv5Faoz38Z5IHkuvXr1ERjOQz/LIEXlkCbfnfZAsTo0sZOEfo2iVPvovReWMKrflOeGzQZmL9CNQUR2591HuY2Qhz5cZUaQTt+GeGF2b7+/eSHvycn3MN6qSRt3qNwvXJT4HAcsEdOPWcscwAAIgENcEIFrjevoxeDMEIFrN0Ap+r84LD4vWjUcPUc9GLXwMv5a1km6tc7lS8Zlge9zYYLhjPjhDJMWpLF7DBWf4CA8WTtnZ2SV+Bcq2BhOzRmFp7EMKL//srH8hG9mpcW+fzNYai9QYoQXLjMp7ONvKGctQS0jZRseOHcX4Z8+eLSqwyqW2/j5L0SoL6XA/sj3/+8svvywphGPMtMqzQ42ZXaPgNh6xwn1IIexfRCfUHl4zWUeduA33xDhhM1yf+BwErBJA3FoliPYgAAI6BCBadaihTVwSgGi1Z9p1XnhYtH7300HqXv9KHyembFlHt9e7wpJoVTnmI5RoNe6dDEbIrGhlOzKzK7ODxgqtUtBJ4cb3y6NJ5NJXVdHKS565KI3xCifm+HMWm9yWL24vhT9no40+BxKtsj23ZfHLmWIpTmWm1Q7RGoyBHCv7bDw3NFSE68RtuCfGCZvh+sTnIGCVAOLWKkG0BwEQ0CEA0apDDW3ikgBEqz3TrvPCY8fyYJVqosaCPcZjPoKJVv+lr8EKK/kvD5ZCacOGDSVVWY19MGkphv2XwRqPKDFmG/2XDvsvD5bj56W1fMmlt/PmzRMFjPiSVVr536EyrXKJcHFxMY0YMUKcc8kCMJDPgUQr+81Z0+3bt5cUS1IRrcajTMItD5bZXOMeV+7XuIzYTCEsnbgN98Q4YTNcn/gcBKwSQNxaJYj2IAACOgQgWnWooU1cEoBotWfadV54WLR+n3+Mft+ynY8TL638jG5Mr28p06pyzEcw0cqCSLUQEwskeQSLsdiT3K8ZqA/ee8lHkqSmplJGRkZJBlNmIRmGtMv7Mx999FHKzMwUWVderhus+BP7Ea4QU7gKs/6Cz1hkx+hzp06dSsSwUUD6Z59VRKtxTIEKMTEPzvoa51QGjDzahSsLyyXd0bqn1Z4nEVZAQI+Azu9wvZ7QCgRAAAT+RwCiFdEAAooEIFoVQYW5TeeFh0Xr2gO76c4avtWDZ+3fTHc1zggrWu3xHFbsImDMEAeq9qvSj//SXuORN2aOslHpi+/RidtwttkmLhCIRgIN6qZHo9vwGQRAIIoJQLRG8eTB9cgSgGi1h7fOy7/V5cH2eA4rdhBgccnLkOvWrVuSEVa1659BlRlr2Z6zt3z579FVtR/qPp24DdevEzbD9YnPQcAqAcStVYJoDwIgoEMAolWHGtrEJQGIVnumXeeFB6LVHvawok9AJ27D9eaEzXB94nMQsEoAcWuVINqDAAjoEIBo1aGGNnFJAKLVnmnXeeH5LHsXvZG1iq6ueZmPE8v376BR19xMt9dqaI9zsAICQQjoxG04mE7YDNcnPgcBqwQQt1YJoj0IgIAOAYhWHWpoE5cEIFrtmXbdF56/7d5Ie/OO+zjRsEp16lG/mT2OwQoIhCCgG7ehoDphE5MIAk4TQNw6TRj2QQAEAhGAaEVcgIAiAYhWRVBhbsMLjz0cYSWyBJyIW12bG3MPU87pUz4AqpevQBlVa0QWCnqLSwK6cRuXsDBoEAAB2whAtNqGEoZinQBEqz0zjBceezjCSmQJOBG3Oja/yN5NI9YtpbTyFX0A5BQW0Nh2nalTev3IgkFvcUdAJ27jDhIGDAIgYDsBiFbbkcJgrBKAaLVnZvHCYw9HWIksASfiVsdmsKJk079bRY0rVcPxT5ENi7jsTSdu4xIUBg0CIGArAYhWW3HCWCwTgGi1Z3bdeuGZMGECTZs2TQyiVq1aNGvWLGrUqBG99dZbdNttt4l/4wKBYASciFsdmxCtiFG3CejErds+o38QAIHoJwDRGv1ziBFEiABEqz2g3XjhKSwspOHDh9ODDz5Ibdu29RkInxs6Y8YM6t+/P6WkpNgzSFiJOQJOxK2OzbGZX9GMzeuoUlJ5H8YFZ09Tn2ZtaFjLG2KOPQbkLQI6ceutEcAbEACBaCQA0RqNswafXSEA0WoPdjdeeFiYDho0iIYNGxYwo7pgwQKqU6dOKUFrz4hhJRYIOBG3OjanbFlLSw/uomtr1/PB+tnubdStQTN6qqnvH2VU2Yf6w47RBj8re/bsocGDB6uajsh9XvUrIoOPcCc6cRthF9EdCIBADBKAaI3BScWQnCEA0WoPVzdeeNauXUs9e/YsGUDfvn19Xrr58y+//NJzL+L2EIcVOwg4Ebc6NoMtD35xxafUsWY97T2tqqKVl9nzBdFqR1RFpw2duI3OkcJrEAABLxGAaPXSbMAXTxOAaLVnetx+4ZEv5+3bt6fu3buLQe3cuZNmz54tMrFYImzPPMeaFSfiVscmi9asI9n0QIPmPoj/tGk13Va3SVjRyn+gmT9/PqWmptKcOXOoa9euNGbMGGHLuITeuAe8ZcuWYgn9jh07Sv74M3fuXLEywXjfuHHjSp6pQPMvn7309PSS/eXSDmdKV61aJXzh++TKiLS0NPHvDh060OjRo8V+9EmTJtH48eMpMzOTZJ+y/b59+8TPjX+Y4s+GDh0qXJI/N/qyaNGikj3usRa3ToxHJ26d8AM2QQAE4osARGt8zTdGa4EARKsFeIamXnjh8c8WQbTaM7exbMWJuNWxyaI180g29fATra9vWk23K4pWXnXAYrFFixZCqPIfcLp06VIiWhs3bkzHjx+nhg0bCgHpL2Z5njnTalySG24JPrcxCkXZXgrVxYsXBxWtffr0oXbt2ok++dlds2aNENHLli0racPt+Xc0F1hjoctthgwZIkKSRbq/MJdjZwHttayx158jnbj1+pjgHwiAgPcJQLR6f47goUcIQLTaMxFuvPAYl//yy7V8oZVFmbA82J65jWUrTsStjk2ry4NlppVFHK8qkMKTC5H5FyszZlGNmVUpWo2fy7kPlW31X+Vg9CWcaGUBys+rUSgHa8/jYt/q1//5zFqZZZU+crZVjte44iKW49fOsenErZ39wxYIgEB8EoBojc95x6g1CEC0akAL0MStFx7jC7b/nlb+rGPHjijEZM8Ux6QVJ+JWxyaL1u15OfRohm/BpdGrl9JNtRooLw8OJVqrV69OvXv3pgEDBvhkYOVyYKNoZWEol9mHm3i3RGugwlGBtgmE8x+f/0xAJ27BDgRAAASsEoBotUoQ7eOGAESrPVPttRceHHljz7zGuhUn4lbHJovWdT/sobsu+TmLKK939m2iLo2aK4nWgQMHimW0tWvXDrg8mEXr2LFjaeLEicTPBwtY3kfqL1o56zlv3jyxVJcv/xUM/jERSrRmZWWJfapy76z00bjUN1ymNdjy4FDjRabV/JOrE7fme0ELEAABEPAlANGKiAABRQIQrYqgwtzmtRceZFntmddYt+JE3OrYtGN5MIu4iy66iFgoBirEJPd7Lly4UHzORZsyMjJERlUWNbJSiEkKRePyXha0LHq5iBL3mZeXJwqjmRGtS5YsEWG4fPly5UJMEK3mn1yduDXfC1qAAAiAAEQrYgAEtAhAtGphK9UILzz2cISVyBJwIm51bNohWmVGkwUhLhAwS0Anbs32gftBAARAwJ8AMq2ICRBQJADRqggqzG37fviJLq11MZUtU8Yeg7ACAg4TKCoqpgPZh6neZTVt7Unn5f+L7N30atZKurrmZT6+LN+/g168phPdUqtBSB85u+mkaOVK3LycODs7u5QfMjtrK0QYizgBnbiNuJPoEARAIOYIQLTG3JRiQE4RgGi1h+zho7mUUj6Jii9coMqVKlBCQoI9hmEFBGwmcOHCBcorOEUcoafPnKMaF1W1tQfdl//3d2+kPXm5Pr40qpJG3eo3s9U/GAOBQAR04xY0QQAEQMAKASFa+a/IR3Jy6fSZs1RcfMGKPbQFAccIlCmTQOWTk+ji6lWpbNnIZ+kgWu2Z2nPniyjn2AmqWLE8FZw8TWfwe8cesLBiOwH+fVOxQjIVnj5L1atVpsTEcrb2gZd/W3HCWIQIIG4jBBrdgAAI+BBIOF9UdOHI0ROUnFSOkpKT6OzZ81QE4Yow8RiBsmUSKCmpnBA4HKOc8WARG8kLotU+2mfPnaec43kQrPYhhSWHCLBwrVa1EqWUT7a9B7z8244UBiNAAHEbAcjoAgRAoBSBhJ+OHL/AWauyZcvR+aJiIAIBTxMoV7YMFRWdFysCLq5eJaK+QrRGFDc6A4GYJ4D93TE/xTE3QKf2d8ccKAwIBEDAdgIJew/8eKHGRdXoZOFZH+PnzhXRwR9/ooKCQuLlfHZeieXKUmpqBap1SQ1KTCxrp2nYigMCFVKS6MjR41T30ksiOlqI1ojiRmcgEPMEeH93clIinTt/nipWKE/JSUkRX0ES85AxQMsEioqL6ezZc3Ty5GkqV64s8UoZu/d3W3YSBkAABGKeQMKuvdkXqlWrQvzXM3mxSD304xGqklqBLqtVQyzLtPPi5Z37sw9TXv4pqpV+MZUrC+FqJ99Yt8UrA44fP0EN6qZHdKgQrRHFjc5AIOYJsBjg7TnyO/bkSfv/SBzzEDFAxwlwoiElpTxxzTwWrBenVRHiFRcIgAAIRJKAEK2VK6f69PlD9mHibNblDS511Jftu34QxZ9qp9dwtB8Yjz0CeXn5EK0WpzXWRLhFHGgOAq4Q4ArFuXknqaDglO2rmlwZEDqNSQIsXCtWTKEqqRVdKYQYk1AxKBAAAVMEAorWLdv3UNurrhDLlpy8WLCu27Cdmjap72Q3sB2DBCBarU8qRKt1hrAAAiAAAiAAAiAAAiDgPIGAonXDxu/p1huucr53Ivr8q2+pdcblEekLncQOAYhW63MJ0WqdISyAAAiAAAiAAAiAAAg4T8CyaD1w4AB9+umnVFhYKLytUKEC3XHHHVS7dm0l7yFalTDhJj8CEK3WQwKi1TpDWAABEAABEAABEAABEHCegLZoXbJkCc2cOZO++eabgF7+6le/oieffJI6dOgQchQQrc5Pciz24IZoffvtt4n3n/Xr1y8mkE6dOpXKlClDffv2jYnxYBAgAAIgAAIgAAIgAAKxScC0aM3JyaGRI0fS0qVLS4hkZGRQy5Ytxf/fsGEDbd68ueSze+65h1588UVKTfUt9iRvgGiNzcByelRuiNYpU6bQ2bNn6bnnnnN6eBGxP27cOEpLS6PHHnssIv2hExAAARAAARAAARAAARDQIWBKtB4+fJi6detGBw8eLOnr6aefpgEDBvj0/eqrr9Jbb71V8rMmTZrQ/PnzqXLlyqV8hGjVmTa0cUO0ckyfOnWKBg4cGBMT8NJLL1G9evXod7/7XUyMB4MAARAAARAAARAAARCITQKmRGv37t3p22+/LSFx991302uvvUZ79+4lXmrIFy+d5BdhXnL4xRdflNzL+1wnT54M0RqbcRTxUbkhWqdNm0a5ubk0ZMiQiI/XiQ5HjBhBzZs3px49ejhhHjZBAARAAARAAARAAARAwBYCyqJ14cKF9Oyzz/p0yj+rUaMG3XrrrZSfny8+q1q1Kv373/+mHTt20AMPPOBz/1//+ldq3769z8+QabVlHuPOiBuidfr06XTs2DEaOnRoTPDmjDE/j/fdd19MjAeDAAEQAAEQAAEQAAEQiE0CyqKVM6jGfayMIysri5YtW1ZKzPLev+uuu45at27tQ+3OO+8krlhqvCBaYzOwnB6VG6J1xowZxEvkhw8f7vTwImK/f//+1LlzZ+LnEhcIgAAIgAAIgAAIgAAIeJWAsmhlcepfsOWjjz6ilJQUuv32233Gx8uCeRkl7381XlxtuGPHjhCtXo2GKPLLDdE6a9Ys+uGHH2jUqFFRRCq4q/w833///XTLLbfExHgwCBAAARAAARAAARAAgdgkoCxaefi9evWilStXlpDo2rUrvf7668TLhCdOnEhJSUk0aNAgkb3xz8x26tSJeHml/4VMa2wGltOjckO0vvfee2L/9gsvvOD08CJi/+GHH6ZHHnmEbrjhhoj0h05AAARAAARAAARAAARAQIeAKdHKx91wZoZf3OX1zDPPEC8zNF4sYPlMS3lx9eC5c+eK/a4QrTrThDb+BNwQrbNnz6bdu3eLI5xi4eICTPz8tm3bNhaGgzGAAAiAAAiAAAiAAAjEKAFTopUZ8LJfrjq6ZMmSEiR8TivvXy0qKhLVhbdu3Vry2b333isyUzinNUYjyKVhuSFa58yZQ9u2baPRo0e7NGp7u+UCTM8//zy1atXKXsOwBgIgAAIgAAIgAAIgAAI2EjAtWmXfXCGYs6nffPNNQHeuvfZaeuKJJ0pVC/a/GcuDbZzNODLlhmidN28ebdq0if74xz/GBOkuXbrQhAkTqGnTpjExHgwCBEAABEAABEAABEAgNgloi1aJ48CBA/Txxx/TmTNnxI84o8rVSC+55BIlYhCtSphwkx8BN0Tr/PnzRcXsMWPGxMR88FFV/Ienhg0bxsR4MAgQAAEQAAEQAAEQAIHYJGBZtFrFAtFqlWB8tndDtC5YsIDWr19P48ePjwnoXICJ95pfeumlMTEeDAIEQAAEQAAEQAAEQCA2CUC0xua8xvyo3BCt//jHP2jNmjWiUnYsXFyAafHixXTxxRfHwnAwBhAAARAAARAAARAAgRglEFC0btm+h9pdfSUlJZZzdNhnz56nles3U8aVWJ7oKOgYNO6GaP3www9pxYoV9Oqrr8YEUS6etnz5cqpSpUpMjAeDAAEQAAEQAAEQAAEQiE0CAUXrD9mHqVqVilT3UrV9qbpo9uz/kXLzT9JltZztR9c/tPMuATdE67/+9S8h8vhs4li4uAATV/suX758LAwHYwABEAABEAABEAABEIhRAgFF67nzRXTopyNUuVIFqlO7hu0Z1zNnztGB7COUl3+KLrmkOiUnJcYoXgzLKQJuiNZFixbRF198QX/605+cGlZE7XIBpp07d1JCQkJE+0VnIAACIAACIAACIAACIGCGQEDRygaKiospNzePjh47QacKf64MbNdVISWZ0qpVpqqVUynR4SXIdvkMO94i4IZo5SrZfD7x5MmTvQVDw5tz585R8+bNafv27Rqt0QQEQAAEQAAEQAAEQAAEIkcgqGiNnAvoCQTME3BDtH766aeicNGf//xn8w57rEVBQYE4Q5mP8MEFAiAAAiAAAiAAAiAAAl4mANHq5dmBb0EJuCFaP/vsM/roo49o6tSpUT8zOTk51LlzZ/rvf/8b9WPBAEAABEAABEAABEAABGKbgBCtsT1EjC5WCTSomx7RoX3++ef0wQcf0LRp0yLarxOdHTp0iLp160YrV650wjxsggAIgAAIgAAIgAAIgIBtBIRojfTLv23ew1DcEti97xBFOm6XLVtG8+fPp7/85S9Rz33v3r30yCOP0L///W/tsRQVFdORnFw6feYsFRfjb1/aINHQUQJlyiRQ+eQkurh6VSpbtoyjfekYx3OkQw1tIk3A689RpHmgPxAAgcgTgGiNPHP0aAMBN0QrH3cze/Zsmjlzpg0jcNfE999/TwMGDBCFpXQuLtR25OgJSk4qR0nJScRnLhdBuOqgRBsHCZQtk0BJSeXozJmzIkZrXFSV+OXbKxeeI6/MBPwIRcDrzxFmDwRAID4IQLTGxzzH3CjdEK1ffvklvfvuuzRr1qyo57lx40YaOXIk8dmzOtfho7kia1W2bDk6X1SsYwJtQCBiBMqVLUNFRefFioCLq1eJWL/hOsJzFI4QPvcSAa8+R15iBF9AAAScIwDR6hxbWHaQgBui9euvv6YZM2bQe++95+DIImP6m2++oXHjxtGCBQu0Otz3w09U46JqdLLwrE/7c+eK6OCPP1FBQSHxec92XonlylJqagWqdUkNSkwsa6dp2IoDAhVSkujI0eNU99JLPDNaPEeemQo4okjAi8+Rouu4DQRAIMoJWBatx779ViBIu+qqKEcB96OJgBuiddWqVfTWW2/R3/72t2hCFdBXq2Nh/tWqVSHejycvFqmHfjxCVVIr0GW1aohlmXZevLxzf/Zhyss/RbXSL6ZyZSFc7eQb67Z4ZcDx4ycivhc+FFc8R7EedbE3Pi8+R7FHGSMCARAIRMCSaD2emUkbX3lF2M0YOZKqtWwJyiAQEQJuiNbVq1fTlClTaM6cOREZo5Od/Oc//xHi+5133tHqhvlXrpzq0/aH7MPEf4W/vMGlWjZVG23f9YMo/lQ7vYZqE9wHAoKAG0dlhROteI4QnNFGwGvPUbTxg78gAAJ6BLRF64nNm+m755+njAEDRM8b33yTWr38MlVp1kzPE7QCARME3BCta9eupTfeeIPmzZtnwlNv3mr1zNlAonXL9j3U9qorKDkp0dFBs2Bdt2E7NW1S39F+YDz2CHjtZRvPUezFWDyMyGvPUTwwxxhBAASItESrEKwvvEAZ/ftTWosWguOxrCzaOHkytXrpJQhXRJbjBNwQrevXr6cJEybQ3//+d8fH53QHCxcuFMfdsAjXuQK9bG/Y+D3dekNktgl8/tW31Drjch3X0SaOCXjtZRvPURwHYxQP3WvPURSjhOsgAAImCJgWrXnbttGGkSN9BKvsTwrX1q+8QpWvuMKEG7gVBMwRcEO0Wi1eZG6Ezt7NBZhYhI8fP16rI6sv2wcOHKBPP/2UCgsLRf8VKlSgO+64g2rXrq3kD0SrEibc5EfAay/beI4QotFIwGvPUTQyhM8gAALmCZgSrSxYeUlw8yef/F+GNTNT9Jr2y35WFq6b/vxnsVTYbuHKyzN79uxJc+fOpbZt2/qMdufOndS7d2+aNGkStWjRgoYPH07p6ek0ePBg81TQwvME3BCt3333Hb388sv0z3/+0/N8wjnI+3K3bdtGo0ePDndrwM91X7b5XFg+55b/ABDo+tWvfkVPPvkkdejQIaRfEK1a0xb3jbz2so3nKO5DMioBeO05ikqIcBoEQMA0AWXRmr9zJ20YPtxHsOZwIabXXxedZjz7LFX3E66tx4yh1EaNTDsVrIGqaPUXtLY5AEOeIeCGaM3KyqLnn3+ePvroI89w0HWEhWN2drY4q1XnMvuynZOTI/paunRpSXcZGRnU8pffGRs2bKDNmzeXfHbPPffQiy++SKmpvsWe5A0QrTqzhjZee9nGc4SYjEYCXnuOopEhfAYBEDBPQEm0smD9buRIatavX0mGVQrW4nPnRK9lEhNLCdfNU6dS63HjqFK9ej6eSfHZt29fmjZtmvhMZk+NwlRmTPnzMWPGEIsGzrQGahcq03rs2DHq06cPZf6SFQ6UqTWPDi3cJOCGaN24caMQXv/617/cHLotfU+dOpUKCgpo0KBBWvbMvGwfPnyYunXrRgcPHizp6+mnn6YBvxRxkz989dVXxZFC8mrSpAnNnz+fKleuXMpHiFataYv7Rl572cZzFPchGZUAvPYcRSVEOA0CIGCagLpoHTWKmj/1FFVr2lR0wsuAM197jS4EEa3Ht2yhTVOmUKvRo0tlW42ilZfv8v46rsg6Y8YM2rFjR8kS4FCi1b8dC9NAy4P79+8vlgpL4bt48eKSvtLS0kwDQwNvEHBDtG7ZskUsN+cYivbr9ddfp3LlyhE/HzqXmZft7t2707e/nOfMfd1999302muv0d69e4nFM1/9+vWjevXqiT9IffHFFyUu8T7XyZMnQ7TqTBLalCLgtZdtPEcI0mgk4LXnKBoZwmcQAAHzBJREK5sVy4NHjBBH3PgL1wS/5cEsWPkInNZ//GPA5cH+y3yN/5/7kvtWg4nWQFnZ6tWrBxStnGHl/3r06EH88owrNgi4IVp5D+hzzz1Hn3zySdRD5AJMVatWFSJR51J92eYqxc8++6xPF/yzGjVq0K233kr5+fniM/aFqxnzH60eeOABn/v/+te/Uvv27X1+hkyrzqyhjddetvEcISajkYDXnqNoZAifQQAEzBNQFq1sWhRi4qNujMLVrxCTFKx89E2wQkwQreYnCi18CbghWr///nuxpJWLCUX7xQWl6tSpQw8//LDWUFRftjmDatzHyp3xMv9ly5aVErNTpkyh6667jlq3bu3j05133klvvvkmRKvWTKGRkYDXXrbxHCE+o5GA156jaGQIn0EABMwTMCVaS4Tr889TxtNPl2RcZbdCsP7pT2ErB4daHiyX+bI46NSpk8iS1q1bt9SeVt3lwfzCPHDgQJo1axY1srFIlHn0aGGFgBuilfdNP/HEE6VEmJVxuNV2xIgR1Lx5c7ECQedSfdlmcfrYY4/5dMGFrFJSUuj222/3+TkvC87NzRX7X40XF43q2LEjRKvORKGNDwGvvWzjOUKARiMBrz1H0cgQPoMACJgnYFq0chcnNm+mzJde8hGuUrC2fOEFqtKsWUhPQhVi4nMbeQ8qLyG88cYbhR0uxIJCTOYnN5ZbuCFad+/eLQSYcc9ltDLmAkzt2rWj3/zmN1pDUH3ZZuO9evWilStXlohA+KUAACAASURBVPTTtWtX4j21/IxPnDiRkpKSREGozp07i72txsws/+Fq+vTppXzE8mCtaYv7Rl572cZzFPchGZUAvPYcRSVEOA0CIGCagJZolcKVlwq3+GW/WtbrrxMvCQ4nWLltqKNrTI8ADeKSgBuilQsHPfLII2LvZbRfvJLhtttuoy5dumgNxczLNh93c//994vCS/J65plnShWBYgH79ttvl9zD1YN5/zrvd/W/IFq1pi3uG3ntZRvPUdyHZFQC8NpzFJUQ4TQIgIBpAtqilXs6zue0vvKK6DRj5Eiq9suZi+G8gGgNRwifhyPghmjdv3+/yBouX748nHue//zxxx+n++67TwhXncvMyzbb52W/vCTZuB+Yz2nl/atFRUWiuvDWrVtLXLn33nvphRdewDmtOpODNkEJeO1lG88RgjUaCXjtOYpGhvAZBEDAPAFLopW7O8ZHWSQkUJpf8RTzrqAFCKgTcEO0/vDDD6Ky9VdffaXuqEfv5OOhuAiT/15RVXfNvmxLu5yl5mzqN998E7Cra6+9Vuwb9q8W7H8zMq2qM4X7jAS89rKN5wjxGY0EvPYcRSND+AwCIGCegGXRar5LtAAB6wTcEK3Z2dlimeuKFSusD8BlCw899BA99dRTxCJR59J92ZZ9HThwgD7++GM6c+aM+FFqaipxleBLLrlEyR2IViVMuMmPgNdetvEcIUSjkYDXnqNoZAifQQAEzBOAaDXPDC08QMAN0frjjz+KJbWrVq3yAAFrLnCFXi54dtVVV2kZsvqyrdWpoRFEq1WC8dneay/beI7iMw6jfdRee46inSf8BwEQUCMA0arGCXd5jIAbovXw4cPElW/XrFnjMRrm3bnrrrto3Lhx1CxMpe9glvGybZ45WrhPwGsv23iO3I8JeGCegNeeI/MjQAsQAIFoJADRGo2zBp/JDdHKVXD5WJb//ve/UT8DfEbqlClTqHHjxlpjCfSyvWX7Hmp39ZWUlFhOy6Zqo7Nnz9PK9Zsp48qGqk1wHwgIAl572cZzhMCMRgJee46ikSF8BgEQME9AiFbzzdACBNwn0KBuekSdOHbsmKi2u379+oj260RnfAby7NmzqU6dOlrmA71s/5B9mKpVqUh1L1Xbl6rVMRHt2f8j5eafpMtqOduPrn9o510CXnvZxnPk3ViBZ8EJeO05wlyBAAjEBwFkWuNjnmNulG5kWvnYlptvvlkczxLtFxdg+uijj5QLH/mPN9DL9rnzRXTopyNUuVIFqlO7hu0Z1zNnztGB7COUl3+KLrmkOiUnJUb7NMD/CBPw2ss2nqMIBwC6s4WA154jWwYFIyAAAp4nANHq+SmCg4EIuCFa8/Pz6frrr6fMzMyon5Srr76avvjiC6pWrZrWWAK9bLOhouJiys3No6PHTtCpwp8rA9t1VUhJprRqlalq5VRKdHgJsl0+w463CHjtZRvPkbfiA96oEfDac6TmNe4CARCIdgIQrdE+g3HqvxuitaCgQJwfmpWVFfXUmzdvTuvWraMKFSpojSXYy7aWMTQCgQgR8NrLNp6jCE08urGVgNeeI1sHB2MgAAKeJQDR6tmpgWOhCLghWgsLC+maa66hzZs3R/3kcAGmbdu2UdmyZbXGgpdtLWxo5DIBr71s4zlyOSDQvRYBrz1HWoNAIxAAgagjANEadVMGh5mAG6L1zJkz1KpVK9q6dWtUT8L58+epadOm9P3332uPg/njAoFoJBDpAm7h/vgWjQzhMwh46TnCbIAACMQHAYjW+JjnmBulG6L17Nmz1KJFC5GhjObr1KlT1KZNG9q0aZP2MNzgr+0sGoLALwS8Frde8weBAgIqBBC3KpRwDwiAgN0ElEXrq2sL6K1vCkj1fJwEInri6kr0h7aV7PYZ9kDAlUxrUVERXXHFFbRjx46onoHjx4/TLbfcQt988432OPDSoo0ODV0k4LW49Zo/Lk4Nuo4iAojbKJosuAoCMURAWbR2ef8IjeuQTHVTWY7+73pvyzm6cIHo4Wa+x0/sy7tAQ1ecocUPXBxDuDAUrxBw40vzwoUL1KhRI9q1a5dXMGj58eOPP9J9991Hq1at0mrPjdzgr+0sGoLALwS8Frde8weBAgIqBBC3KpRwDwiAgN0ElEXrHe8fpdduSKTalcr4+DBz0zm6QBfo0eZJPj8/WFBMz311jj554CK7fYY9EHBNNDVs2DDqRev+/fupV69etHz5cu1IwkuLNjo0dJGA1+LWa/64ODXoOooIIG6jaLLgKgjEEAFTovXl9olUM8U30zpn68+i9bdX+orWHwsv0POrnBWta9eupZ49e9LcuXOpbdu2JdPCVV6HDx9O6enpNHjw4BiaLgxFEnDrS9Nq1V0vzCAvb37qqafos88+03bHKv9j334r+k676iptH9AQBMwSsBq3ZvsLd79Vf/AchSOMz50gYDVunfAJNkEABGKfgCnRmphQTDmFxT5Uiop/3uVatoyvmK1RoQydLi7jaKY1mGiN/WnDCN360mzSpIkoYJSY6LscPppmhP3nP+osXLhQ220r/I9nZtLGV14RfWeMHEnVWrbU9gMNQcAMAStxa6Yf1Xut+IPnSJUy7rObgJW4tdsX2AMBEIgfAqZEa6DlwT8dyxN7WmtWr+xDLdTyYCk2+/btS9OmTRPtjNnSCRMmlPy8a9euNGbMGOLsaZ8+fYj3FR49epTuuusu6tixY0mmlW1w1nXcuHHUpUsXn0wr29u+fbvoh5dEtmzZkmbMmEFpaWm0c+dO6t27N2VnZxP3tW/fPurRowd17969VBQcO3ZM+JCZmenjs8zsShHA4+IMr7zf6DO3N9pgfwP1FT8hqDdSt740r7zySvruu+8oOTlZz3EPtPr222/FM/XBBx9oe6PL/8TmzfTd889TxoABou+Nb75JrV5+mao0a6btCxqCgCoB3bhVtW/2Pl1/8ByZJY377SSgG7d2+gBbIAAC8UfAddHK4m7BggU0b948ISR56eL48ePFv1n0saCcNGkS8bJMFnt169YVL9wpKSkkxe+oUaPonXfeEUKW7fkvD2bRumjRIpo1a5aYYbY5YMCAEnHLP2ObWVlZJcLXX0hKm/LexYsXl/i8bNkyUdRG2hg4cKDoi0Wxv8881jfffFN8vmHDhhIbfC8udQJufWk2a9aM1q9fL+IvWq/Vq1fTlClTaM6cOdpD0OEvXrRfeIEy+ventBYtRN/HsrJo4+TJ1OqllyBctWcDDVUJ6MStqm2d+3T8wXOkQxpt7CSgE7d29g9bIAAC8UnAlGh9qUUBJSX4Hnpz5tzP1YPLJ/kulzx7IYFeyKoUcHmw/7Je//8fKKMpRWu7du1K9qnKdjx1tWrVEkKQq7sGEq2HDh3yydhyNrVTp05CVMrMquw3UKY11GfcvzFjK32RojWYz9zOfz9ufIah+VG79aWZkZFBa9asoYoVK5p32iMteLXB7NmzaebMmdoemeWft20bbRg50kewys6lcG39yitU+YortH1CQxAIR8Bs3IazZ/Vzs/7gObJKHO3tIGA2bu3oEzZAAARAwJRoHX8tUfVkX9F6PP+UEK1plSv40Mw5k0BDVpNp0cqVTYcOHSrEXPXq1UtlWgMJwBYtWpQsGQ6WaTUrWqWg5aXAvJx44sSJNGjQoIBLh42Z3JycHPLPtBp9Zkj+y4khXM0/iG59aXIsrFixglJTU8077ZEWS5cupX/+85/09ttva3tkhj+/aPOS4OZPPvm/DOsvS+zTftnPysJ105//LJYK2y1cQ+19l39s4tUc/HsEBdy0QyIqGpqJ20gMyIw/eI4iMSPoQ4WAmbhVsYd7QAAEQECFgCnR6sSeVv/lwbwsmDNZcqmwrA4cKtPKoo8vKRZr165dak9rINEq975yW7PLg3kpMfc3depUsTRZ2uBlw3L5b6BMq3EptHH5s7H6scrExfs9bn1ptm7dWuyLrlKlStROAccoC1eOU91LlX/+zp20YfhwH8Gaw4WYXn9ddJ3x7LNU3U+4th4zhlIbNdJ1rVQ7VdGKZ9A25J41pBq3kRqAqj94jiI1I+hHhYBq3KrYwj0gAAIgoEpAWbTe9fejNOH6RLo01fec1sPH80VfNar5Zp4O5BfTkBXnaNH9pc9pDVWIybjMVmZQef+pzHwGyrSyaJVZEvaF97iOHj265MgbzoQGEq28b9WOQkzGZcrSZ+M+XKPPwYo2qU4Y7vuZgFtfmldffTV98cUXVK1ataidin/84x/iD0O8ekD3UuHPL9rfjRxJzfr1K8mwSsFafO6c6LpMYmIp4bp56lRqPW4cVapXz8e9UL83jMLU+LvA+MeoQIXfQmVagxVe02WGdu4TUInbSHqp4g+eo0jOCPpSIaAStyp2cA8IgAAImCGgLFrf31JII788QUW+q4OD9pVYhujlG6rQA01LF6zxylE1/sWVZIXiYNWDzYDFvc4ScOtL81e/+hUtWbJELF2P1ov/yLNlyxZ65ZdjZ3TGocJfvGyPGkXNn3qKqjVtKrrhZcCZr71GF4KI1uNbttCmKVOo1ejRpbKtRtEaqICbXJURSrT6tzOudjAuD+7fv79YrcEXC19j4TUUTdOJGG+0UYnbSHqq4g+eo0jOCPpSIaAStyp2cA8IgAAImCGgLFrNGA13r1dEK/tpzJLy/5dH7ERzddhw/GPhc7e+NHkJKQuYiy++OGoxvvvuu8R7x59//nntMajyF8saR4wQR9z4C1c+2dm4PJgFKx+B0/qPfwy4PDhUATceSDjRKveOG+0Y980bRas8mgp/wNIOEU82VI3bSDmv6g+eo0jNCPpRIaAatyq2cA8IgAAIqBJwRbSqOof7QCAYAbe+NNu3by+KGNWsWTNqJ4fPRs7NzaUhQ4Zoj8EMf1FAho+6MQpXv0JMUrDy0TfBCjFBtGpPFxr+QsBM3EYCmhl/8BxFYkbQhwoBM3GrYg/3gAAIgIAKAYhWFUq4x3ME3PrSvP766+nvf/+7OGIpWi8uwFRcXEzPPPOM9hDM8peVTzOefrok4yo7F4L1T38KWzk41PJguczXuP9dnuksz1/mPa26y4Nl4TV5rJY2ODR0lYDZuHXaWbP+4DlyekZgX4WA2bhVsYl7QAAEQCAcAYjWcITwuScJuPWl2aFDB5o/fz5xhepovbgAU6VKlahfv37aQ9Dhf2LzZsp86SUyClcpWFu+8AJVadYspD+hCjEZC5zdeOONwk7lypV9qoKjEJP2dMdMQ524dXLwOv7gOXJyRmBbhYBO3KrYxT0gAAIgEIoARCviIyoJuPWlyYJo9uzZVKdOnajkxk5zASbOFD/yyCPaY9Dlzy/cvFS4xbPPir6zXn+deElwOMHK93ppL7w2ODR0lYBu3DrltK4/eI6cmhHYVSGgG7cqtnEPCIAACAQjANGK2IhKAm59ad588800c+ZMqud3HEs0QeQjoa644gp66KGHtN22wv84n9P6S+XijJEjqdov57SGcwaiNRwhfB6OgJW4DWdb53Mr/uA50iGONnYQsBK3dvQPGyAAAvFJQIjW+Bw6Rh3tBBrUTY/4EPi84BkzZlD9+vUj3rddHfK+zjZt2lC3bt20TVp9aTn27bdECQmU1rq1tg9oCAJmCViNW7P9hbvfqj94jsIRxudOELAat074BJsgAAKxTwCZ1tif45gcoVtfmrfddhu99dZb1KhRo6jlygWYOGPMxzvpXm7x1/UX7UCACXgtbr3mD6IEBFQIIG5VKOEeEAABuwlAtNpNFPYiQsCtL83OnTsTV9+9/PLLIzJOJzrhAkz33HMP3X777drm3eKv7TAaggBEK2IABGwhgN//tmCEERAAAZMEIFpNAsPt3iDg1pfmr3/9a3rjjTeoSZMm3gCh4QUXYOrVqxfJKrsaJjyXsdIZA9rEHwG3fm8EI+01f+IvIjBiHQKIWx1qaAMCIGCVAESrVYJo7woBt740u3TpQhMmTKCmTZu6Mm47Ov3tb39LTzzxBLVv317bnFv8tR1GQxBAphUxAAK2EMDvf1swwggIgIBJAraK1rMnD1Jh3i6qkn6DSTdwOwiYI+DWlybvAx0zZgw1b97cnMMeurt79+40dOhQuvrqq7W9Yv64QCAaCbhRwC0YJzxH0RhB8JkJeOk5woyAAAjEBwFbRGvhiR20a9XjVFxUQJUurkXnCxOo5pV/oMqXXBcfFDHKiBNwS7TyXtCXX36ZWrRoEfEx29Xh3XffLc5qzcjI0DbpFn9th9EQBJBpRQyAgC0E8PvfFowwAgIgYJKAZdF66vhG2rN2ANVq3YqSK6aKYyxOHvmR9q1eTq3uW03lktNMuoTbQSA8Abe+NO+77z56/vnnqVWrVuGd9OgddhSTcou/R5HCrSgh4LW49Zo/UTKNcNNlAohblycA3YNAnBKwJFovFJ+jzIUdqHGnWymhTAJlb9hMKdWqUbV6tenEwX1UeCyZGrSbFqdoMWwnCbj1pclnmw4fPpyuuuoqJ4fnqG0+7mbmzJlUr1497X7c4q/tMBqCADKtiAEQsIUAfv/bghFGQAAETBKwJFoLjm6gA98NpLrtrqMf1m+ganUeprzsf1NK9QKqWqceHcrcSjWbvEAVqzcz6RZuB4HQBNz60rz//vtp8ODBdM0110TtFF133XX0wQcfUHp6uvYY3OKv7TAaggBEK2IABGwhgN//tmCEERAAAZMELInWc6eP0pald1DjTr+mn7Z8T+XKNqVj+z6htPqXUbX6jWjnf5ZSq3vWl3Jp7dq1NH/+fFHQJiUlpeTzY8eO0aBBg2jYsGHUqFGjsD/nGxYsWEB79uwRQiLYpXLPzp07aezYsTRx4kRKS8OSZpNxFPHb3frSfPDBB+m5556jNm3aRHzMdnXIgnvp0qWW4twt/nYxgJ34JOC1uPWaP/EZFRi1WQKIW7PEcD8IgIAdBCyJVnZg+3/uptpXNaMy5crR4W1bKTElmarVbUi5B/bQmdyqVL/dm8p+6ohWZeNhbmQhPX78eJoxY4all3m7/IGd0ATc+tLs2bMnDRgwgNq1axe1U8RFpFatWkWVKlXSHoNb/LUdRkMQQKYVMQACthDA739bMMIICICASQKWRGvmv66jBjdcT2WTylPh8RwqX6UqJZQpSwVHDlH2hkxq0fVrKlM2qZRLxkwrf8h7BBcuXEh8nEheXl7QTGvt2rVpzpw5VKtWLZo1a5bIxhqzqGyXRQV/ftNNN4mXcs7Aynv69OkjMrn+djizyp9lZmZS3759Q2ZtTfLF7Q4RcOtL044zTh1Comy2SZMmtGnTJkpMTFRu43+jKv9X1xbQW98U0AXFnhKI6ImrK9Ef2uoLasWucFscElCN20ihUfUHz1GkZgT9qBBQjVsVW7gHBEAABFQJaIvWjYs6Ut32balc+RQ68cMhKjxGlHtwHSWnXkRJKZdS4xveDeqDUbQuXrxYZH14qXBWVhYNHDiwRJBKA5yBZVHJ2S0pQmUbbs/Lg/lz/m/IkCHiOBIWwrxnz1+08j09evQgPqtywoQJogu+B5lW1ZDxxn1ufWn26tWLHnvsMbr++uu9AcKkF8XFxXT55ZcTL4e3cqny7/L+ERrXIZnqprIc/d/13pZzdOEC0cPNfIXzvrwLNHTFGVr8wMVW3ENbEAhIQDVuI4VP1R88R5GaEfSjQkA1blVs4R4QAAEQUCWgJVo3fXwLXda2NSWmVKAz+WfpxP7zVK/NRNHnmfx9lJxaN2T/UrSOGjWKRo8eTe3btxciMtTyYClI27ZtK1645f7TZcuWCdHasWNHn+W9xgysMdNqtOOfpcXyYNWwcf8+t740e/fuTQ8//LCIt2i8Tp8+LSofb9myxZL7qvzveP8ovXZDItWuVManv5mbztEFukCPNvddiXGwoJie++ocffLARZb8Q2MQCERANW4jRU/VHzxHkZoR9KNCQDVuVWzhHhAAARBQJWBatG765Ha69JrmlFTx5+V7+1evoFrNX6bKNa9T7VNkNbkQE0SrMjLc6EfArS/NRx55hDjbeuONN0blnJw4cUL4vmHDBkv+q/Lnl+2X2ydSzRTfTOucrT+L1t9e6Stafyy8QM+vcla08h+9+I8PkyZNIv4jWLCrsLCQJk+eLFZwuFGcze3+LQWIRxurxm2k3Ff1B8+RtRnhP4hzvYr+/fv7FH+0ZjV+W6vGbfwSwshBAAScIGBKtG5Zcielt7qcklMr07nCk/TjxixKrJBMJ4/kU0aX5cr+ub08mJcQ88sqMq3KU+a5G9360mQBw/um+azTaLwOHz4s9o6vWbPGkvuq/PllOzGhmHIKi336Kyr+eZdr2TK+YrZGhTJ0uriMJzKt/Pth3rx5rhVnc7t/SwHi0caqcRsp91X9wXNkbUZ4K9ChQ4dKnVhgzWr8tlaN2/glhJGDAAg4QUBZtO5Z8wxVrXOBkqtUpTN5uZRcuSptX7KILrm8N53K3UiXtR5FyZUuU/JRpxCT3NM6bdo0S4WYgi0PltmXu+66C4WYlGbR3Zvc+tLkQl3dunWjW2+91V0Amr0fOHCAuJjUl19+qWnh52aq/IMta/zpWJ7Y01qzemUfP0ItD5aF1m644Qb66quvaO7cudS4ceOSImrGAm1slF9U5e8LLszGxac428JZF2OmlcXh0KFDhR8tW7YU9+zYsUP8cYIvtjt16lR65513aO/evXT06FFq1aoVJSQkUNmyZcWLMF/GffT+cOXvl+zs7JI+OHvLPm7fvl3cvnz5csf6tzTZMdRYNW4jNWRVf/Ac/Twjsr4FF03ka9y4cSVbi/zrXrz55puiPgavKvF/vt1YORGpmIpEP6pxGwlf0AcIgED8EFASrUXn8mnbsvupfoc2lHtgHxX8dIbOnzksjrepcsmDVOPyXp4ixsvq+AVS7pX1lHNwxhYCbn1pPv7443TffffRbbfdZss4Im1k165dxGP4/PPPLXWtyt+Jl235our/nBszk1J0srCVhdn27dtXSrRK0ctF3mQxN1mozWiPz5Pm3ynSBr/0soiWheMYZrAlx/JFW67wMGZ9ePnxokWLxMu1tMFHKvEef7v6tzTRMdZYNW4jNWxVf/AcEcnnnedGFm7kPywZ/3hlLNYoRSufMoBMq70RrRq39vYKayAAAvFOQEm0MiQusLR7zdNU7bKbqeYVA+jU8S20d90QSkhIoitv+4frHP3/AstLIPmLjV82ccUeAbe+NJ944gmxvLZz585RCZULMHG1bK66beVS5c8v2y+1KKCkBN9Db86c+7l6cPkk3+rBZy8k0AtZlQIuD5aZVn5JlQXZWChy9lJeMtvK2RXj0l6jADRmWqWg5SO3+DL+3ggkGuULM/9eMYrR/fv3B11KLP028pYZXc7qymWL/FJurG5uV/9W5jnW2qrGbaTGreoPniMSBRiNfxiSIpZPCZB/cIJojUzkqsZtZLxBLyAAAvFCQFm0MpDiojNUpmyyD5vC3B2UUrVxvPDCOD1CwK0vTS7kwYL1zjvv9AgJc26wmHvllVfoH/+w9ocmVf78sj3+WqLqyb6i9Xj+KSFa0ypX8BlAzpkEGrKaTIlWmZk0GvLfDxpMtMpCTEZhKYUrC3spfGWm1Sha+d+cwSkoKKD8/PySI7aMS4HZ1r333itetqXYNvppzACZFa3B+jcXEfF1t2rcRoqKqj94jrrSo48+Sv369SspoAbRGqkoLd2Paty65yF6BgEQiEUCpkRrLALAmKKTgFtfmiyQeGlwly5dohIci7M33nhDiDErlyp/J5Y1SvHnv1yQl9rKrCWf+SyXDqosDzae3SxtqIhWo9gNJEqZsfGcaf6jh3Hvq1XRqtK/lXmOtbaqcRupcav6g+co9PJg+YzLPyoZl91jebD90awat/b3DIsgAALxTACiNZ5nP4rH7taX5rPPPiuOjLn77rujkh4XMJo5cya9++67lvxX5X/X34/ShOsT6dJU33NaDx/PF/3XqJbq48cP+cU0eMU5WnR/6XNa/ZcHc0NjVlO3EJNR+BltyJ8bCzHJl2K57UAKUv45L/UNVuDF2IdcGiwLMQVbHmxn/5YmO4Yaq8ZtpIas6g+eo59nJFghJv5MFlTj55ULr/3nP/8Re8VZtMrPjM9epOY4FvtRjdtYHDvGBAIg4B4BiFb32KNnCwTc+tL8wx/+QNdff71Y8hmNFxdg+uCDD0RVXSuXKv/3txTSyC9PUJHv6uCgXSeWIXr5hir0QFNre9H9Ba5Tx8fIl2iZqbXCVKet2/3r+OxmG9W4jZSPqv7gOYrUjKAfFQKqcatiC/eAAAiAgCoBiFZVUrjPUwTc+tIcNGgQcbGP3/zmN57ioerMxx9/TEuWLCFePmflcou/qs9y6bAssMTtgi3fVbXpf5/b2Ru3+9fl5mY7r8Wt1/zxn5t4eI7cjMdo7dvrcRutXOE3CIBAaAJCtAISCEQjgQZ10yPuNh9bcs0114gjSaLx+uc//0mrVq0SxUysXHhpsUIPbd0i4LW49Zo/bs0L+o0uAojb6JoveAsCsUIAmdZYmck4G4dbX5rDhg2jVq1a0QMPPBCVxLkA06ZNm+iPf/yjJf/d4m/JaTSOewJei1uv+RP3AQIASgQQt0qYcBMIgIDNBCBabQYKc5Eh4NaX5ogRI6h58+bEexij8Xrvvfdo79699MILL1hy3y3+lpxG47gn4LW49Zo/cR8gAKBEAHGrhAk3gQAI2EwAotVmoDAXGQJufWmOGjWKrrjiCnrooYciM1Cbe5k+fbqowDl06FBLlt3ib8lpNI57Al6LW6/5E/cBAgBKBBC3SphwEwiAgM0EIFptBgpzkSHg1pcmZyj5CIX/+7//i8xAbe5lypQpdPbsWXruuecsWXaLvyWn0TjuCXgtbr3mT9wHCAAoEUDcKmHCTSAAAjYTsE205uXlUUFBAfEZabhAwGkC/KU5ZvQo4sJIjRs3drq7EvsvvfQS1atXj37365j9ogAAIABJREFUu99FrE87O+ICTBUqVKAnnnjCklnmjwsEopGAGwXcgnHCcxSNEQSfmYCXniPMCAiAQHwQsCxaWazOnj2bzpw5QzVq1KCUlBTq1q1bfNDDKF0jwC97e3dtpfHjx4s9pixeOf6cvkaPHk2XXnop9e7d2+muHLE/ZswYwalPnz6W7OMv7ZbwobFLBLwWt17zx6VpQbdRRgBxG2UTBndBIEYIWBKtnFmdOnWqOLPy5MmTtHr1aioqKqLTp0+Ll/qqVavGCCYMw2sEjF+aH374oRCvv/71r8VezeTkZMfc5aq7NWvWpEcffdSxPpw0bNfyZry0ODlLsO0UAa/Frdf8cYo77MYWAcRtbM0nRgMC0UJAW7SyOJ0zZw7dcssttGfPHvFfmzZtKD09nXbv3k0ffPCBELN8PAguELCbQKAvTa6MO27cOOrbty8988wzdncp7LH9tLQ0euyxxxyx77RRFvVXXXUV3X///Za6wkuLJXxo7BIBr8Wt1/xxaVrQbZQRQNxG2YTBXRCIEQLaopXHP2HCBJHdWrdunXgJPnLkCK1atYo6d+5MJ06coM8//5wef/zxGEGFYXiJQKgvzTfffFOsAGCBZvfeU87o8goCFsbReD377LN044030t13323Jfby0WMKHxi4R8Frces0fl6YF3UYZAcRtlE0Y3AWBGCFgSbTOnDlT7I87d+4cNWvWjJYvX04dOnSgJUuW0MMPP0wrV64UlVb5iJBIXIWFhTR8+HB68MEHqW3btiVdBvs537BgwQKRJR48eLCPi2vXrqX58+cT7wHkfbqBLpV7+HiRQYMG0bBhwwQLXPYQCPelyXusOSv66aefiv2u9957r+iYxSxnZPniCsBPPvmkKYcmTpxIlSpVon79+plq55WbebxdunQRf2yycoXjb8b22ZMHqTBvF1VJv8FMM9wLAqYJ2Bm3pjsP0MBOf/Ac2TEjsKFCwM64VekP94AACIAAE9AWrbxv9S9/+Qt17NiR1q9fT927dxciLzExUZwD+fvf/54mT55MAwcOpKSkJFdp64hWuxzeuXOnEK0sdiBa7aJKpPqlefjwYbHfddOmTaJg08cffyz+yMIXx2r//v1NCdfXXntNxPNTTz1l32AiaIkLMPXs2ZNuvvlmS72q8g/VSeGJHbRr1eNUXFRAlS6uRecLE6jmlX+gypdcZ8k3NAaBYATsiFs76drhD54jO2cEtlQI2BG3Kv3gHhAAARAwEtASrSxY33jjDfGyz6KM/+MlwefPn6dt27YJcbB161bau3dv0L1zvLR42rRpwpe5c+eKzKgUlwsXLhQ/79q1q8h08s9Z+NWuXVuIjxkzZoh9hf6XvziVffBySL54H6IxA8s/40wrL2net28fZWZmimWfnHU1ZlH5Ps7gsl/sE1dM5sxpTk5OSTZ28eLFpeywIDK2C5W1RViaI8BfmqOGD1RudOrUKdq4cSNduHDBpw0L16uvvlrZDre/9tprhdiNxouzy7xk/7rrrAlDqy8tp45vpD1rB1Ct1q0ouWIqUUICnTzyI+1bvZxa3beayiWXfr6jkTd89hYBq3Fr92is+oPnyO4ZgT0VAlbjVqUP3AMCIAAC/gRMi9azZ88Sn/XIL+0sIHft2iX2x3H1YF4ezOe0cvXWrKwscaxGQkJCKeosCDn7xeKTs7Jjx44VmUgWw3yxDeOyWhaobKtHjx4ioxvsMopWvsfYB1czZr8DiVbeAzlr1iwhhLkfXk7Kl1weLAUpi04eF2eP+X5/0Tpv3rySMcnsKttBptX+B4+/NEcMfU7ZMMcGx2sg0dq6dWtlO+3ataOnn35a+X6v3fjAAw+I+P3Vr35lyTUrLy0Xis9R5sIO1LjTrZRQJoGyN2ymlGrVqFq92nTi4D4qPJZMDdr9/ActXCBgJwErcWunH9KWFX/wHDkxI7CpQsBK3KrYxz0gAAIgEIiAKdHKmVQWggMGDKDNmzeLvaC8P+7gwYNi/2qLFi1EMaby5cuHXH4YbB8pO2jMtrJ49ReT/qLTOCijaP3yyy/FR5w1Dbc8mDOtMgvK2dn69etTnTp1hGgdNWoU8dmc7du3F4LZKKYDZVqNmWHOxkK0OvPgqX5pGpcHN23aVGTLjRfvTWURFy/XPffcQy+//LJ4Vq1cqvwD9VFwdAMd+G4g1W13Hf2wfgNVq/Mw5WX/m1KqF1DVOvXoUOZWqtnkBapYvZkVF9EWBEoRsBK3TuC04g+eIydmBDZVCFiJWxX7uAcEQAAELInW4uJi4jMq+SiRLVu2iAzrXXfdRcePH6evv/6aHnroIWXCoYof8X47Xi7cuHHjkgJGxgwoRKsy5pi+MdyXZrBCTLysnf8YwRdnHbmabjxdXICJGTRp0sTSsMPxD2X83OmjtGXpHdS406/ppy3fU7myTenYvk8orf5lVK1+I9r5n6XU6p71pUwEK3wWrNhZqCJoof5wJjtWuYe3RsiVIoG2LFiCjMa2E7ASt7Y7Q+p78wP1jefIiRmBTRUCXnuOVHzGPSAAAtFPQDnTyhlPrsD6/fffi3NY77zzTrEkeM2aNWKPJ4tM3uuncvkvD5bLZ42ZS+MyXB3Ryn5EenmwzNjKPbjItKpEg949ob40nTzyRs9b77Tq1KmTWMLOqwmsXFZfWrb/526qfVUzKlOuHB3etpUSU5KpWt2GlHtgD53JrUr1272p7J6OaFU2HuZG4+8yiFa7qDpnx2rc2u2ZVX/wHNk9I7CnQsBq3Kr0gXtAAARAwJ+Akmhlcfq3v/2NGjZsSLm5uXT77beLDCsXsXn33XepXr16VFRURL/97W+VCXMWg8/R5IuPJpFLb3lPKRdE4sxtfn6+OL6GBbHca6qaaeX7VAsx8RE9fPGeXKuFmPyXB0vBXbdu3ZDH5yiDw42CQKAvTT7KhmOJ55BXBOAqTeD666+nv//972LfuJXLyktL5r+uowY3XE9lk8pT4fEcKl+lKiWUKUsFRw5R9oZMatH1aypTtnTFcZXiaMYK3VLMcgG3OXPmiDHzH9/4HmMWle3yCg/+/KabbhJHGvG2AnkP/+6RheCMduSzbSzgZoUp2jpPwErcOuGdFX/wHDkxI7CpQsBK3KrYxz0gAAIgEIiAkmjlhiwg+VxW3hPHmVXew8qFk/gMU37Ru/zyy+OCMDIr3phm45fmhx9+KLLqvPSV/xDChcBwBSbABZj4jzTVq1e3hEj3pWXjoo5Ut31bKlc+hU78cIgKjxHlHlxHyakXUVLKpdT4hneD+mUUrcGKo/mLVhacXDxLilC5GoLb8558/lz+QYz3+XK17/T09FKi1VgIjv8YxpesMi5XdCDTaimkItJYN26dck7XHzxHTs0I7KoQ0I1bFdu4BwRAAASCEVAWrWyAl71Onz5dZFy5ANOPP/5ILBi4aBEvF47ExXvIuBJwdnZ2qe7k0Tl2+2HMCrNtp/qx2+9Ytsdfmnt3bRVilY9Y4orPNWrUiOUh2zK2li1b0ooVKyg1NdWSPZ2Xlk0f30KXtW1NiSkV6Ez+WTqx/zzVazNR+HEmfx8lp9YN6ZMUraGKowUSrRwbvPLCuP902bJlQrTyOdNG0WnMwBozrcaVHv5ZWohWS6EU0cY6ceukgzr+4DlyckZgW4WATtyq2MU9IAACIBCKgCnRKl4uz5wplckqKCgQS+pwgUCkCPCX5pjRo4RY5eXjuNQIXHnllfTdd99ZzkabfWnZ9MntdOk1zSmp4s+/J/avXkG1mr9MlWuqnxcL0ao2x7grOAGzces0S7P+4DlyekZgX4WA2bhVsYl7QAAEQCAcAdOiNZxBfA4CkSCAL009yrxKgit/W73M8N+y5E5Kb3U5JadWpnOFJ+nHjVmUWCGZTh7Jp4wuy5VdcXt5sMzYItOqPGWeu9FM3EbCeTP+4DmKxIygDxUCZuJWxR7uAQEQAAEVAhCtKpRwj+cI4EvT/JTwKolWrVrR1q1bzTf2a6HKf8+aZ6hqnQuUXKUqncnLpeTKVWn7kkV0yeW96VTuRrqs9ShKrnSZkj86hZjkntZp06ZZKsQUbHmw3K7Ax3/xHldc3iagGreRGoWqP3iOIjUj6EeFgGrcqtjCPSAAAiCgSgCiVZUU7vMUAXxpmp8OLqbG1YO52q3VS4V/0bl82rbsfqrfoQ3lHthHBT+dofNnDovjbapc8iDVuLyXVTdsbc979rkQU/v27UU1c1yxR0AlbiM5ahV/8BxFckbQlwoBlbhVsYN7QAAEQMAMAYhWM7Rwr2cI4EvT/FQcPXqU7rjjDlq3bp35xn4tVPlzgaXda56mapfdTDWvGECnjm+hveuGUEJCEl152z8s+2HVAB+LI4/ZYltdu3bF0VRWoXq4vWrcRmoIqv7gOYrUjKAfFQKqcatiC/eAAAiAgCoBIVpVb8Z9IOAlAg3qpnvJHc/7cvDgQXHu8ddff23ZVzMvLcVFZ6hMWd9jiApzd1BKVRTQsjwRMGCKgJm4NWVY82Yz/uA50oSMZrYTMBO3tncOgyAAAnFLAJnWuJ366B44vjTNz588l5SPe7F6gb9VgmjvBgGvxa3X/HFjTtBn9BFA3EbfnMFjEIgFAhCtsTCLcTgGfGman/Rt27bRc889R5988on5xn4twN8yQhhwgYDX4tZr/rgwJegyCgkgbqNw0uAyCMQAAYjWGJjEeBwCvjTNzzoXYHrxxRfpww8/NN8YotUyMxhwn4DXfm94zR/3ZwgeRAMBxG00zBJ8BIHYIwDRGntzGhcjwpem+WnmAkyvvfYazZ8/33xjiFbLzGDAfQJe+73hNX/cnyF4EA0EELfRMEvwEQRij4BtojUvL48KCgrEWYi4QMBpAvylOWb0KBoyZAg1boyCPiq8V6xYQdOnT6fZs2er3B7yHuaPCwSikYCXCrjhOYrGCILPTMBLzxFmBARAID4IWBatLFb5JfjMmTNUo0YNSklJoW7dusUHPYzSNQL8srd311YaP348NW/eXIhXjj9cwQlwASbOsv7lL3+xjAl/abeMEAZcIOC1uPWaPy5MCbqMQgKI2yicNLgMAjFAwJJo5czq1KlT6Te/+Q2dPHmSVq9eTUVFRXT69Gnq3bs3Va1aNQYQYQheJGD80uQ9mixef/3rX9PQoUMpOdn3eBUv+u+GT1yAif+bMmWK5e7x0mIZIQy4QMBrces1f1yYEnQZhQQQt1E4aXAZBGKAgLZoZXE6Z84cuuWWW4iP0uD/2rRpQ+np6bR792764IMPhJht1apVDGDCELxGINCX5nvvvUfjxo2jvn370jPPPOM1l13356OPPqKvvvpK7Gu1euGlxSpBtHeDgNfi1mv+uDEn6DP6CCBuo2/O4DEIxAIBbdHKg58wYYLIbnGBl/vvv5+OHDlCq1atos6dO9OJEyfo888/p8cffzwWOGEMHiMQ6kvzzTffFCsAOOv6u9/9zmOeu+fO+++/T9999x2NHTvWshN4abGMEAZcIOC1uPWaPy5MCbqMQgKI2yicNLgMAjFAwJJonTlzpthHeO7cOWrWrBktX76cOnToQEuWLKGHH36YVq5cSY0aNaIrrrjCdlQLFiwQAnnMmDFiHy1fhYWFNHz4cHrwwQepbdu2tvV57NgxGjRoEA0bNkyMR17Bfh7KD/abs9KDBw8O6p/KPTt37hTiY+LEiZSWlmbbWKPFULgvTd5jzVnXTz/9VOx3vffee8XQWMxyRpav//u//6Mnn3wyWoZs2U/ee86rIPjYG6tXOP7B7G/MPUw5p0/5fFy9fAXKqIr9yFbnBO3DE9CN2/CW9e7Q9QfPkR5vtLKHgG7c2tM7rIAACMQrAW3RyvtWuaBLx44daf369dS9e3dR5CUxMZFYzP3+97+nyZMn08CBAykpKcl2voFEq+2dhDGoI1rt8nHt2rViH+eMGTMgWkNAPXz4sOC0adMmUbDp448/Fn9k4YtjtX///nEjXDlWmAf/YcfqpfPS8kX2bhqxbimlla/o031OYQGNbdeZOqXXt+oW2oNASAI6ceskUh1/8Bw5OSOwrUJAJ25V7OIeEAABEAhFQEu0smB94403xMs+Z/z4P14SfP78edq2bZsQB1u3bqW9e/eKZcP+FwsuFripqaliX2zXrl1LMqZsi4s4ZWdni2acLWNBLEXqvn37qEePHuIzmWllcbxmzRohkidNmiQyrXzx8R58cQY4WB+8//HQoUM+GVt/f43itPb/t3f/QVZUZ8LHH/LDQIQ1AeM6sAEGh/hGhUnKVMBJbTBho7UR2a2UVABTpEx4pZI3uLXv8tsi5bvU8tPsvqvRXShcEioiW1Rt6kXKRA0laDKR5A8zA/omAWHBZcgaBwgQYVHhrad5z825Td97u8/tnj59+3urtuIOfU8//TnPmTnPPaf7jhoVTPq3b98etKlPTw6vwJqVVr2/d/369UFzW7ZsCVZ/7VVU+1rtOHbs2BGsxmpBpecKt6Nf8TJ37lzp6ekJ7t+st2rbqumvfzSXL1sQ+/LefPNN2bt3r1y8eLHqPVq43nzzzbHbSXMFP/ZJUzrw5z//eXCP+d/8zd803aLLpOW7B3pk/5kTcu/HuqrOv+EX3TJ+6Aflyx2dTcdFAwjUE3DJ2yxFXeJhHGXZI7QdR8Alb+O0yzEIIIBAPYHERev58+eDwlALKl29evXVV+Uv/uIvgqcHa3Go39OqT2/t7e0NCqtBgwZddn4tWmfPnh0UchMnTgwKs66urqA41cJCt+Dqll9T3OoWYC3knnjiicrKoiliOzs7g9UjLdzsbbl6Ul3l3bRpU7ASqbHoNtHw+fS+3CRF60svvVQplvUazTnsbcMmDo1BY9fjzKqofu2IXZCa67bjiCpa9frs1WW7zbJuD75/yf+MPbq1TzRfo4rWj3/847HbmTx5cuxjfTzwr/7qr1IJy2XSkuZkO+6tAHlso4+zvb9eJ9gx79+/P/iAz74NIpUOtBrR3z3t7e3B718fXvaHhBqPuQ1CLZrdXeKSt1mauMRT9nFk54f+7Yu6dSfNPmt2PKcZi7YV/t1nxu+0adOq5lLNnrfedbvkbbPx8H4EEEAgUdGqK6k6abjvvvvk5ZdfDoov/UV59OjR4P5VLQj1YUyDBw+Wz372szV17WJUi9PwL0d7BdKskGohZ9/Dqu/RB+1o0Wq2yIaLVjPB0XOYe11HjBgR/JHTe0G10AzHEhW0+SP513/91/LYY49VCuxG24NNQWofp0Wvun3hC1+oGUe4aDXt2LFStB6L9eXm9vbgG264IVght19f+9rXgg8eeCUTcJm0rOp5Xja+/DMZesXgqpOdOX9O5t74SVna+enYQcQtWvPYRq+TSH257oAYyJiNo/kdE7sDBuhA24Ki9RJ62ceRzg/sv+FZp2Kz4znL+Ozxm3bRWu+6XX7/Z+lA2wggUA6B2EXrhQsX5O/+7u+CrxJ55ZVXghXWO++8U06cOCEvvPCC3H333bHF6hWt+otSt/pqIWqvMkQVrVrE1ltppWiN3SWFO7DRH81aD2LSbe26cqWvL37xi6IfRPBKLtDIP6rFb7+yR545+qrcMmps1T8/ffCXcte4G+UbNzR+eJr+ftAt97feemvQxr333htsu4+6rWDq1KmXbaM3H3bpe+NurTfn1PeY2xXMB1F6u4De4qA7THRXR39/f7CLRF+6k+TIkSPBh216W4N+BZje/28eFBf1gZm2a2/912cGaL4uX75cVqxYEfy+0w/O9PYJ/R2pH8Lo/9nXUusa7Z/bHwbqh38mfo271u0Zugvm9OnTlfPp6qz9waG+V4sJfRifxmrajNqFYgzsVV7z4aVev7ajHyjpCrO5DUIt9Hf6mDFjKrdnmBVoM3lXi6jzmoRzydvkoyP+O1ziKeo4svPPHkdmF5R9+4z2tT2OzG0Zdj9rDusHjt/85jeDW3R07IVvO9JjtH07J+wxZv/c/h1SazybnVrmw08zjjSucO7rjjTNV81f+zan8DgKf7hlf4hv/47QxQHddfC3f/u3ldug9PeLGb/6kEH93aC3XT333HPB7whzW5JmZBr+vo6j+COOIxFAoMgCsYtWnZDpE1h//etfB08gveOOO4ItwVpg6n2dep/lLbfcEstCfxGbbbXmHlF7m6zZqhbeMhteadX/30zmdBJk/qCYe1qjitYibg9mpfXytOIrb2INtcwOcpls19rW+MCPfyBTrh3b8J5We9VNJ55aXOnEUCe0tW4rsHck2B+CKUycJ43bE8jwtkSdDOv99bqt1l6VsP9b3x++rUHPbd4TtS03vLpoF636XnO7hH61kymUze+6Wteov5/NNkrzO9f+nRnn9gxzPlPY6o4b88GA3nph7rXXLfTh2xnME97N5NncIqHxm/b0mQTqoW2aWLUQsa/N3FZizqXn1f63zeutVLvkbWaDSERc4iniOLL7RD1NoRruR3u81Vrps1da7e3B5gMjLdTsXDTPhtAcN6uRUR8cmfwzz9AwT/m34zDP2tCiNur3gcl9+8N3vSXIzF30w3czjuzbluxnJdi3B+j8Sm9r0Z1ZpiiPmvPY12b/jjDntX8PNuuv73fJ2yzHEW0jgEA5BGIVrVqcfu9735PrrrtOTp48KbfffnuwwqoPsfnOd74jY8eOlXfeeUe+9KUvxVIzRevVV18d3O9pPyTJ3O+qDekvZ13F1a289i9+s6U4/As5/CCmqKI1vCqT5YOYoj7xdHkQU1TRqp+66qRdV7tdtyHG6ixPD4r6o6lfZaOfaGuf6o4AXtkJuExadLLd+9s++eK4m6oC+8d9P5XbxlzfsGi1J49R24OjbisI30+uqxL2q9Fqq73Kat6nOWYXa+EHrIWLVvvDNo1Rv3pI81NX/efMmVP1NVp6jnpFa63fBea+T/09WesazbXYv2+jtgc3uj3DrCrp6pZdANuFsa6u1rqf2KwefeUrXwl+v1955ZXyuc99Tv75n/858AgXInbRWu+DSFOI1Lptw8fJdlnGUfgWILPCHncc2WO2XtFa629++Hy6+mle4VXV8Ep9uHiOWtUPF6C1VkvNrT/mb3bU/eQmf/V3hH5lmz7YUm9r0lVVfdmFt/0hfHh7cPiZIPZX7TXj7+M4yu4vHS0jgIBPArGKVg1Yt4Xp97L+5V/+ZbCyqvew6lOEtYD8zGc+Ix/5yEdiX9dA3rPVKChf7lfxJY5GXr78uz3Z+/73vx+sxvz5n/95MGHXB4HxylbAdbLd89s+mRUqWv9h30/l9iaL1lq3FUQ9BC3Jhzy1HlJkthialb5aK0Thr+bSCa8WmLoio6soWvjZq5BpFK31vgfannBr8R2e6Ma5PaPZolXtdPuwFqpmMq4fjOoOHvWw2w+vtFK0iuiHP0UbRz4VrY0e3GS20ZoPd/TDcH3p7w37IZL2hzRpFq16Lh2HWqzqM0I+9alPyb/927/JmTNngg91au2UoGjN9m8erSOAQP4CsYtWDVUnE/o1Mrriqr8gf/Ob34gWDKNHjw62C8d95Vm02pM2jdc8yEm31Zl7aOzrqHd/VNzrjTquVhxlfBKwi6MWTf/+6v8NilX9467FwzXXXOPSFO9xEHAtWqO+8iaN7cF2cWnfVhDeHlzrtoRaBPb2Xj0m6bbGqO+T1t9/uqr4+c9/PvKJvc2stOrvsahr1BUtLRR194r+jqn1xNFajvYzBeoVrfaW6VrfpW0K99dee03uv//+gP6RRx4JvtpLCwN7pTRO0cr24EvZ6/M4qrU9OGql0OSBy/bgRiutprAz57Dj0nvE9V5azSd7lTJctJqnedvfHpCkaDW3C9i/T8JfpaZj56mnngp+R2jMGsOvfvWrYNeZ/WDJuCuttbYHu/hr3C6//x3+zPAWBBBAoEogUdGq79QH3IRXsvQTwKFDh0KLwIAJ6B/NlSuWB8WqfuLNa2AFXCYtukL0q1P98tUJ1Q9cWvHTZ+QzI8c13B6sV1jrQUy1bisw976abfRpPogp6gEy5l5OXfG3H8Rkf2VNve2reo1me67GHH4QU6PtwTp5rnWNtpG9RVhNn3zyycseJFXr9oxGRetVV10lzz//fN0HItX6MEAn7+GvvDG3QZgHMWlxYU/c9T1lehBTUcdR1IOANN/Nz/UDYt21pXOJ8Diyizqzy0EfyBV+EFOjolXvV631IKZaPzfx2ffK6vZiffik7kDTben17s0Nb9PVdt54443gQUm1bk8wvwPMPfv1bo0w49c8iCnqd4S5pcrcOmAeDOXiT9E6sH9rORsCCPxBIHHRCh4CPgi4FE0+xN0qMbj462T7Z/9xSO784/YqhscO75NpHTfFKlpbwS/O12wV8TrDW6Z9vAaXvM3yOlziYRxl2SPZtl1r90G2Z02/dZe8TT8KWkQAgbIJULSWrcdb5Hr5o5lvR7r4N/vU06yuOOphS3ouezUyrXPbqzbhLYFpnSOvdihak8szjpKbFfkdFK1F7j1iRwCBvAUG/ftrv7n4JyM/JO9+17vyjoXzIxBL4J13Lshrfa/L2A9fG+t4DkpfoJUm2+nr0KKvAi55m+W1uMTj64c/WTrRtl8CLnnr1xUQDQIIFFFg0H/+9sTF913xXnnr7bflyvcPlvddcYW8612DingtxNzCAu9cuCDnz78lv//9OXnPe94t5996W665+gMtfMV+X5rLpOVHfQflW70/kZuv/XDVxe06sl8e+MRU+bOR4/y+aKIrvIBL3mZ50S7xMI6y7BHajiPgkrdx2uUYBBBAoJ7AoLffeefib9/4nVxxxXuC437/+7Py1tvvoIaAVwLvfc+7ZciQwTJokAQF64eGXxUUr7zyEXCdtPzrwb1y6NTJqqA7rhoud7XfmM+FcNZSCbjmbVZIrvEwjrLqEdqNI+Cat3Ha5hgEEECglsCgi5decvLU7+XMmTcpWMkVbwW0cL3yyiFy1bAr5d3vZjt7nh3FpCVPfc7tKuBb3voWj6sr7yuXAHlbrv7lSJ/UAAAgAElEQVTmahHwRSAoWn0JhjgQQKAYAkxaitFPRFkt4Fve+hYP+YJAHAHyNo4SxyCAQNoCFK1pi9IeAiUQYNJSgk5uwUv0LW99i6cFu5xLykCAvM0AlSYRQKChAEVrQyIOQACBsIBvkxb9KolDhw7JokWLqkLVr2FZuHChLF26VIYPH175746OjsJ16tmzZ+Xhhx+WuXPnBtei3/c6e/bs4DrmzZsXXPuBAwfkmWeeka9//euFu76BCNi3vM0jnlYaE5ozjz76qNx2222iYzpqTITHzUDkWaufI4+8bXVTrg8BBBoLULQ2NuIIBBAICfg2adHvWtVXuGjVIk6L1nXr1gWT2iK/tDAfPXq06Pe76nWtWrUquK4hQ4YE/z1nzpzgGu3jiny9WcTuW97mEU8rjQktUo8cOSIzZsyoOyb4MCfd0ZRH3qZ7BbSGAAJFFKBoLWKvETMCOQvkMWnRCeqaNWtk48aNQaG2bNkymTlzZiBhVhy3bNkSFHX60hUWPWb79u0yffp0WbBggXzzm98MVl1feukl2bt3r5w+fTr4d12pbG9vlyVLlkhnZ2dwDl3N1MnuPffcI319fVU/t/m1SNT3mZf9fvvfVq9eHUyu9To2bNgQHL5r164gtpUrVwbXpKtgupLa09MjI0eOlE2bNgWFqP5cY5o/f35wnLarL20v/Aofm3OqeHX6PPK2HsBAx1NvTPT398vWrVtl2LBh8vjjjwd5qf+n+RjOxagcbWZMmNXfUaNGBeeOc77wCmq9MaGx2SuyXiVlAYMZ6LwtIBEhI4BABgIUrRmg0iQCrS6Qx6SlVtGqRWqclVZ7e7AWrQ899FBQFOpLC9P77rtPpk6dGkzSFy9eLOPHj6/aTlxrC3J4sm6KSTte/ZlpV/9bC2g9t8Zkfj5x4sRKIa7XpO/XIkIL2t7eXtm9e3dlJVlj0aL7ueeeCwpqsz3YFOv2ymur52KS68sjb30qWjUWe6XVHhNatOqHP/rBj+a+5uXkyZODD0r0w5+uri6ZNm1azRzVD1OiXnYxWWtMmPPNmjUr+CDGjGdzbv1wKjwmjh49Kps3bw4+hDIf5NQaExpXo6I2SR6V/VjfxlHZ+4PrR6AsAhStZelprhOBFAXymLSkXbR2d3cHBaGu2Jj7XnWlx6zgjhgxorLKaujsVdQwZ3hSHC5ydSKuq7m6xTdqxdhM3HWV1bzMipMW2aYY1v/Vto4dO1aJ3xS+ZpVZ/33KlCmVVecUu77QTeWRt0UqWqPy0nwopLlrPtSJytGo7fdxx4T9YZGez4wdzWuzqhseE1pk2x/kNBoT+vvDPr7QiZxz8L6No5w5OD0CCAyQAEXrAEFzGgRaSSCPSUseRau5b1RXpOq9oibELkWrKZ7DBUC9yb/Z8qkrYWa7MEVrdG/lkbetVrTWytHwdSYZE/WK1lrnC7dvj7eoMUHRmt5fIN/GUXpXRksIIOCzAEWrz71DbAh4KpDHpMXe1qgsuqX3wQcfDFYTXbYHN1ppDW9Z1EmxeY+9FbLWZLje9uCoFS2zPbitrS3YBmy/f//+/VWrRPaDmNTCXmnVCTvbgylaa/3qqLc9uNFKq9keHJWj9gc7SceEGWu6Ld9eaTXbg6POp/fB2tuD640JtWB7cHp/TPL4/Z9e9LSEAAJFFaBoLWrPETcCOQrkMWmxHyJz6623Bld/7733Via5+jAk+0FM+u/mwUZjxoy57EFMjYpW85Teeg9ismMy3WE/RKbWg5hqFQf1HsS0YsUKWb58eXAfrJmEmwdAmYc86c918m5P5nNME+9OnUfe1kPII55aY0K32zYqWnUlv1aOmut0GROmzXDRqh/e1Dpf1IczUeNN4+KDnHSHYh55m+4V0BoCCBRRgKK1iL1GzAjkLMCkZeA7IO5X2cQ9buCvIP8z+pa3vsWTfw8li8D+ypt67+Qrb5K5NjqavG0kxL8jgEAWAhStWajSJgItLsCkZeA7WFecwqut4ShYZa3fL77lrW/xDHxWN3fGOCuocY5pLoryvZu8LV+fc8UI+CBA0epDLxADAgUTYNJSsA4j3EDAt7z1LR7SBIE4AuRtHCWOQQCBtAUoWtMWpT0ESiDApKUEndyCl+hb3voWTwt2OZeUgQB5mwEqTSKAQEMBitaGRByAAAJhASYt5EQRBXzLW9/iKWKfEvPAC5C3A2/OGRFAQISilSxAAIHEAjpp4YVAEQXGjWnzJmzGkTddQSAJBXwaRwlD53AEECioAEVrQTuOsBHIU4BP2vPU59yuAr7lrW/xuLryvnIJkLfl6m+uFgFfBChafekJ4kCgQAJMWgrUWYRaEfAtb32Lh1RBII4AeRtHiWMQQCBtAYrWtEVpD4ESCDBpKUEnt+Al+pa3vsXTgl3OJWUgQN5mgEqTCCDQUICitSERByCAQFiASQs5UUQB3/LWt3iK2KfEPPAC5O3Am3NGBBDgQUzkAAIIOAi4Tlr2nnxd+s+9WXXGEYPfLxM+cI1DFLwFgWQCrnmb7Czxj3aNh3EU35gj0xdwzdv0I6FFBBAokwArrWXqba4VgZQEXCYtP+o7KAu6n5K2oVdVRXHszO/kW5+6Q6a2tacUHc0gEC3gkrdZWrrEwzjKskdoO46AS97GaZdjEEAAgXoCFK3kBwIIJBZwmbR890CP7D9zQu79WFfV+Tb8olvGD/2gfLmjM3EcvAGBJAIueZuk/aTHusTDOEqqzPFpC7jkbdox0B4CCJRPgKK1fH3OFSPQtIDLpIXJdtPsNNCkgEveNnnKum93iYdxlGWP0HYcAZe8jdMuxyCAAAL1BChayQ8EEEgs4DJpWdXzvGx8+Wcy9IrBVec7c/6czL3xk7K089OJ4+ANCCQRcMnbJO0nPdYlHsZRUmWOT1vAJW/TjoH2EECgfAIUreXrc64YgaYFXCYt335ljzxz9FW5ZdTYqvM/ffCXcte4G+UbN0yqG9eePXtk69atsnLlShkyZEjl2OPHj8vChQtl6dKl0tHR0fS11WpAz79mzRrZuHGjDB8+vHLYtm3b5NChQ7Jo0aKmzn327FlZtmyZzJw5UyZNqraIc444xxw4cEBWrVol69atq7qGpgIv0Jtd8jbLy3OJh3FUv0cYR1lm7KW2XfI2+6g4AwIItLoARWur9zDXh0AGAi6TllrbGh/48Q9kyrVjne9pzbtoTYu33mQ7rXPUKrzTat/3dlzyNstrcomHceRetKbVl4yjYzJuTFtanLSDAAIIxBKgaI3FxEEIIGALuE62e9/ok1njJlRh/sO+brlt9PUNi1Z7pVUb0FXJ7du3y/Tp0+XUqVN1V1pNQdjZ2SmPPfaY9PX1yZYtW4IVTfNv2pa+tD1dzdWf6wruqFGjZN++ffK1r31N/umf/ilYad25c6c89NBDsmnTJnnppZeCldb58+cHMbW1tcn69euDtqLOUSteE0fU++1VVF0tveeee4JrmDdvnhw7diyId8eOHXXjGD9+vMydO1d6enqC9zW7MlzEEeGSt1lep0s8WrQyjmqPe8ZRlhl7qW2XvM0+Ks6AAAKtLkDR2uo9zPUhkIGAy6RFJ9s9r/fJF8fdWBXRP778otw+JlnRqgVad3d3UKz19vbKggULggKy1vZgM5HVE5v3mK2+586dC+IZOXKk2Ku2ugVYi7xZs2bJjBkzxKyu6M+effbZyjZlU1DaRasWhPpzE2OceOvFqEWyXRh3dXUFMa1du7Zu0RqOQ62itjhnkCJeNumSt1leiEs8jKP6455xlGXGUrRmr8sZEECglgBFK7mBAAKJBVwn21FfeRN3e7BZaV2+fLmsWLFCTOEWZ3tweOtt+D32aqsWr1oAm6J18eLFwYqsnn/27NlBcWsXyOGi1cSVNF4TQ9R1mdXcL3zhC8Hqr96TqgW6vfocXmkNxxEu1u37chMnQEHf4JK3WV6qSzzNbg9Ompf29TOOLt1Tz4c/bA/O8vcCbSOAQLQARSuZgQACiQVcJ9u/Pt0vX50wuep8K376tNzaNi729uC0i9b+/v6gGNWtvLqF1jzUKapo1VXKRiutFK2J02nA3uCSt1kG5xKPFq2MoxlVuyLsHRZ8+JNlxrLSmr0uZ0AAAVZayQEEEEhNwHWyvee1gzLtj9ur4viXw/vkzvETYhet5v5Nl+3Ber+obpm1H6Syf//+ylOJ7a3GtYpWvadV/6+9vT3YottopTVuvGlva2Sl9fJ0d8nb1AZNREMu8WjRyjiqfVsA4yjLjKVozV6XMyCAAEUrOYAAAqkJuE6209gerEWgvlwexHTy5El5/vnng/ebhyTpVmHzgKK7775bTp8+HXztjHlwkb092NwParYX6zbd8IOYoorFOPGayfawYcPkueeeq3pYlMuDmKLiOHr0aPAQpzvvvJMHMaU2GtwbYhxd+roqxpF7DuXxTpe8zSNOzokAAq0lwPbg1upPrgaBARFwmbQ0ey9eMxcW3jLYTFvNvjfNr8vQBzHpq4xPAnbpB5e8dTlP3Pe4xMM4uqTLOIqbZekf55K36UdBiwggUDYBitay9TjXi0AKAi6Tlh/1HZRv9f5Ebr72w1UR7DqyXx74xFT5s5HjmorM/iqYcEP64KTvf//7lYc3NXUihzfrSumSJUsq7zSrvEmbCn89j36Fj25VLuNDlZLa6fEueetynrjvcYmHccQ4iptfWR3nkrdZxUK7CCBQHgGK1vL0NVeKQGoCrpOWfz24Vw6dOlkVR8dVw+Wu9uqvwUktUBpCwBJwzdusEF3jYRxl1SO0G0fANW/jtM0xCCCAQC0BilZyAwEEEgswaUlMxhs8EPAtb32Lx4MuIoQCCJC3BegkQkSgBQUoWluwU7kkBLIWYNKStTDtZyHgW976Fk8W5rTZegLkbev1KVeEQBEEKFqL0EvEiIBnAkxaPOsQwokl4Fve+hZPLEQOKr0AeVv6FAAAgVwEKFpzYeekCBRbgElLsfuvrNH7lre+xVPWvOC6kwmQt8m8OBoBBNIRoGhNx5FWECiVgE5aeCFQRIFxY9q8CZtx5E1XEEhCAZ/GUcLQORwBBAoqQNFa0I4jbATyFOCT9jz1ObergG9561s8rq68r1wC5G25+purRcAXAYpWX3qCOBAokACTlgJ1FqFWBHzLW9/iIVUQiCNA3sZR4hgEEEhbgKI1bVHaQ6AEAkxaStDJLXiJvuWtb/G0YJdzSRkIkLcZoNIkAgg0FKBobUjEAQggEBZg0kJOFFHAt7z1LZ4i9ikxD7wAeTvw5pwRAQREKFrJAgQQSCzgOmnZe/J16T/3ZtX5Rgx+v0z4wDWJY+ANCCQVcM3bpOeJe7xrPIyjuMIcl4WAa95mEQttIoBAeQQoWsvT11wpAqkJuExaftR3UBZ0PyVtQ6+qiuPYmd/Jtz51h0xta08tPhpCIErAJW+zlHSJh3GUZY/QdhwBl7yN0y7HIIAAAvUEKFrJDwQQSCzgMmn57oEe2X/mhNz7sa6q8234RbeMH/pB+XJHZ+I4eAMCSQRc8jZJ+0mPdYmHcZRUmePTFnDJ27RjoD0EECifAEVr+fqcK0agaQGXSYsPk+1t27ZJd3e3rFy5UoYMGRI4nD17VpYtWyYzZ86USZMmNW3jewNRBlnHrOc8dOiQLFq0KOtT1W3fJW+zDNglHsZRlj0Sv23GkT/fdxy/1zgSAQSKLEDRWuTeI3YEchJwmWyv6nleNr78Mxl6xeCqqM+cPydzb/ykLO38dOZXk8dEM/OLSniCPAzWrl0bREnRWt1ZjKOEyevR4YwjilaP0pFQECiFAEVrKbqZi0QgXQGXyfa3X9kjzxx9VW4ZNbYqmKcP/lLuGnejfOOG+quce/bska1bt8qwYcPk8ccfl+nTp1dWTA8cOCD33HOP9PX1BW2vXr1aZsyYIWZiefjwYZk1a1bwb2al9eGHH5YXX3xR9H8ffPDBYKVVXxs2bAj+d9euXTXPMW/ePDl27FjVim1Y+Pjx47Jw4UIZNWpUEO/IkSNl06ZN0tHRIbXijbpGvc65c+dWvV/b1p/19PRU/TwcgxaL69evD368ZcuWYCVZTX74wx9WrlGvxRSTev7Zs2dXmtH3TJw4MViJbmtrkyeffDK4Bn1FeZtV6+3bt1fi6u/vr7RpYrDjMn1le+3bt082btwow4cPD85lXMwKuV0E2211dnZWvS/s4ZK36Y6c5otWxhHjiHGU5aikbQQQ8FWAotXXniEuBDwWcJn819rW+MCPfyBTrh3b8J5WU1DZhVRXV1dQnO7duzcoBnXLr13g7NixQ5544olKIWOKWC1uXn/99aBYs7cHK/mCBQuCwkwLJi0MFy9eXCnczPm0UIpTtOr7tVjWGO1Cq1a8vb29QYGn1zh+/Pjg/JMnT5b58+cHhaOef9q0aVXbmcMFnUkb/fmaNWuCa9eCcNWqVbJu3TrZuXOnPPTQQ5XiUwtr/bn66XvMFmmzpdecW4tWU9zW8zYfCui16IcMWmjqBwP60vfbW4VNobp06dKKt/Gy098+Tj8E0GuZM2dO8J4TJ07IddddF2ubt0veZjkMXeJhHP1h1Z5xdGnLfdnHUZZjlLYRQMAfAYpWf/qCSBAojIDrZLv3jT6ZNW5C1XX+w75uuW309bGKVlMEaXEavk/SXr00q7BatNr3sOp7lixZIvaKXLhoNYWensPc6zpixIhg1dQu7uxYojrOrIZq0WtWOO37OqPi1UIv6vz6fi1629vbZerUqZVVVnNeexXX/KzWfaT2tka9dr0uLRq1aNWXvdqqq7B2wazFt3lFxa/FqcZoH6fH11oZNW3paqu5LuMVNtU2pkyZItoXmzdvDmI29yVHrShH9YlL3mY5KF3i0aKVcfSH+6MZR3/I0LKOoyzHKG0jgIA/AhSt/vQFkSBQGAHXyXbP633yxXE3Vl3nP778otw+prmiVYsW3eqrq4r79++vrPBFFa1axNZbaR2IorVWvHGL1nChGZU4SYtWXcHUIl1fujqqdlpkRxWtteKPW7RGFbbhIj98TVpM7969OyiK9aWFsSlY7rvvvstWoFu5aGUcXSpaGUeXf0BUxnFUmD+cBIoAAk0JULQ2xcebESingGvRGvWVN0m2B5utu6bAsrfrmkLI3rpbq2hdvny5rFixIriP1dyzae5pjSpazTEu24OjVlrNqqnZNmy2GscpWs32YLNd194GbO4B1awMbw82K8UvvfRSZfXZXmk1praJnqNW0drI274W/TBBX2Z7sNmyrT8zW7DNduhaK61mC+SFCxfk/vvvr9wbbLY967/rfbZ6f3Ktp0C75G2WI9wlnjS2BzOO2isfcjCOLt1jX+RxlOUYpW0EEPBHgKLVn74gEgQKI+A62f716X756oTJVde54qdPy61t42JtD9bJ9tVXXy1aENkPYrK3tGpB+sILL1Tu3wxvD7bvudQCNfwgplrbc+1tiHEfxGQKsvD24Frx6ipxo+3BWujGfRCT2Q6t4OGHU+lqanh7sDletxt/9atfDR70ZAp8U7Cbgtg8sMn21qK51sOfdFt2owfI2F5RgyH8xFb7wU+aD/qQrgkTJly2Pdm05ZK3WQ5Kl3i0aGUcXVppZRz94UFr9gPNyjaOshyjtI0AAv4IULT60xdEgkBhBFwn23teOyjT/vjS9k7z+pfD++TO8RNiFa2moLNXFPNA8+UrXPK49iKf0yVvs7xel3i0aGUcZdkrtN1IwCVvG7XJvyOAAAKNBChaGwnx7wggcJmAy6QljW2NeRWt9oqeYpgHOenKqP0VMQYq6sFIpFH+Ai55m2XULvEwjrLsEdqOI+CSt3Ha5RgEEECgngBFK/mBAAKJBVwmLc1OthMHyRsQCAm45G2WiC7xMI6y7BHajiPgkrdx2uUYBBBAgKKVHEAAgVQFXCYtP+o7KN/q/YncfO2Hq2LZdWS/PPCJqfJnI8elGiONIRAWcMnbLBVd4mEcZdkjtB1HwCVv47TLMQgggABFKzmAAAKpCrhOWv714F45dOpkVSwdVw2Xu9qrvwYn1WBpDIH/L+Cat1kBusbDOMqqR2g3joBr3sZpm2MQQACBWgJsDyY3EEAgsQCTlsRkvMEDAd/y1rd4POgiQiiAAHlbgE4iRARaUICitQU7lUtCIGsBJi1ZC9N+FgK+5a1v8WRhTputJ0Detl6fckUIFEGAorUIvUSMCHgmwKTFsw4hnFgCvuWtb/HEQuSg0guQt6VPAQAQyEWAojUXdk6KQLEFfJ60bNu2TQ4dOiSLFi1yRn700Ufltttuk1GjRsmyZctk+/btQVvz5s2rtLtnz56qr7tZvXq1zJgxQ2p9Pc7x48flmWeeka9//evOcfHG5gR8y1vf4rF1GUfN5Vorv9vnvG1ld64NgbILULSWPQO4fgQcBFp50qLF6JEjR4IC1J64a9E5d+5cmTVr1mX/ZhPqcQsXLpSlS5dKR0dHla62N3r0aJk0aZKDOm9pVsC3vPUtnmZ97fczjtLU9KutVs5bv6SJBgEEbAGKVvIBAQQSC+QxadFJ8IYNG4JYr7/++uB/29vbgwLywIEDsmrVKlm3bp3s3LkzWGnVAlOLR10tffzxx2XkyJGyadOmoJC0V0OnT58up06dCopMPfbhhx8O3jt8+PDLXNauXVs5p/3f9oF2LOE2tKDduHGjzJ8/X4YMGZLYnTc0J5BH3taLOI94GEfN5RDvFskjb3FHAAEEKFrJAQQQSCyQx6RFJ9sLFiyoFJ76/+/evTvYrmuviJr/1sLTXhnVIlNf5vju7m5ZuXKl9Pb2VtrVf9+8eXNQwIaLSnsFVYtRbbunpydos7OzMyhG9ed6/iVLllRMzbZh/YEWy1pcz5kz57JV2MSdwBsSC+SRtz4WrYyjxKnDGywB38YRnYMAAuUQoGgtRz9zlQikKpDHpEWL1DVr1lSKQy0iV6xYIcuXLw9+NmXKlGDbbbhoXbx4cdXPdZVT71Pt6uoKVmntYrS/v79SCNtgZmV25syZkVt79ZymCLaLXbOl2MSgbWrxbGJNtVNorKFAHnnrY9HKOGqYKhxQR8C3cURnIYBAOQQoWsvRz1wlAqkK5DFpCRetpgC86aab5Nlnnw2KV7PSabYH62pos0VrvXtUDWpUbPpvptg1BTJFa6ppmLixPPLW96KVcZQ4jUr/Bt/GUek7BAAESiJA0VqSjuYyEUhTII9JS1RhqPePPvLII9LW1lZ5qm+jldYk24Pt1Vz7/tTwz8Nbj9Xa3Gur99XqvbbmXlq2B6eZicnayiNvi1C0Mo6S5VHZj/ZtHJW9P7h+BMoiQNFalp7mOhFIUSCPSUtU0Rq1bTdO0VrvQUx2UanF6Pr166vkzD2q9lfe2Pe0hr/yxr6nVYuDWvfMptg9NFVDII+8LULRyjhiyCQR8G0cJYmdYxFAoLgCFK3F7TsiRyA3AV8mLfWe1BsXJ1wM21/VEbeNuMfxlTdxpbI5zpe8NVfnSzyMo2zyrVVb9SVvW9WX60IAgWgBilYyAwEEEgv4MGkxK532SmbcCwk/4XfLli2VByxl9YRfVlnj9k52x/mQt/bV+RAP4yi7fGvVln3I21a15boQQKC2AEUr2YEAAokFmLQkJuMNHgj4lre+xeNBFxFCAQTI2wJ0EiEi0IICFK0t2KlcEgJZCzBpyVqY9rMQ8C1vfYsnC3PabD0B8rb1+pQrQqAIAhStReglYkTAMwEmLZ51COHEEvAtb32LJxYiB5VegLwtfQoAgEAuAhStubBzUgSKLaCTFl4IFFFg3Jg2b8JmHHnTFQSSUMCncZQwdA5HAIGCClC0FrTjCBuBPAX4pD1Pfc7tKuBb3voWj6sr7yuXAHlbrv7mahHwRYCi1ZeeIA4ECiTApKVAnUWoFQHf8ta3eEgVBOIIkLdxlDgGAQTSFqBoTVuU9hAogQCTlhJ0cgteom9561s8LdjlXFIGAuRtBqg0iQACDQUoWhsScQACCIQFmLSQE0UU8C1vfYuniH1KzAMvQN4OvDlnRAABEYpWsgABBBILuE5a9p58XfrPvVl1vhGD3y8TPnBN4hh4AwJJBVzzNul54h7vGg/jKK4wx2Uh4Jq3WcRCmwggUB4Bitby9DVXikBqAi6Tlp+8/pr8j+f/j7QNvaoqjmNnfiff+tQdMrWtPbX4aAiBKAGXvM1S0iUexlGWPULbcQRc8jZOuxyDAAII1BOgaCU/EEAgsYDLpOW7B3pk/5kTcu/HuqrOt+EX3TJ+6Aflyx2diePgDQgkEXDJ2yTtJz3WJR7GUVJljk9bwCVv046B9hBAoHwCFK3l63OuGIGmBVwmLVlNts+ePSvLli2TmTNnyqRJk2pe27Zt2+TQoUOyaNGipq8/zQYGIq7jx4/L3LlzZfHixXWN0rwuPefChQtl6dKl0tHRkWbTzm255K3zyWK80SUexlE0LOMoRsKldIhL3qZ0appBAIESC1C0lrjzuXQEXAVcJi2rep6XjS//TIZeMbjqtGfOn5O5N35SlnZ+2imcuEXr2rVrg/YpWmsX9k4dUONNBw4cCIrWdevWUbTWMGIcpZdxrVq0Mo7SyxFaQgCBYgtQtBa7/4gegVwEXCbb335ljzxz9FW5ZdTYqpifPvhLuWvcjfKNG+oXU3v27JGtW7fKsGHD5PHHH5fp06fLypUrg7bslVYtTtevXx/8vLOzUzZu3Cj79++X2bNnBz/bsmVLsNpoH7d69WqZMWNGTUtTGLe1tVXaNu3oZLm7uzuIRY8zq4vDhw8P/vtP//RPZcWKFTJy5Eh58MEHZc2aNdLT0yPmnOb9hw8fDn4+b968SmGt/7ZkyZIgLvNzO5Ynn3xSNm3aVFUU6iT3nnvukb6+voqRvkdXWidPnhzEr7GY95n2tm/fHpzHuPb29sqGDRuCn11//fVBTFG2ep3aN8ZX45w/f37QJ9qmae/o0aOVuEy/6Hvt6581a1alH8IfRtiTd43JXKP+t7HUON1nNOgAABSfSURBVMIx253qkrdZDjCXeBhHjCOT+4yjLEcnbSOAgG8CFK2+9QjxIFAAAZfJdq1tjQ/8+Acy5dqxDe9pNYWRFosTJ04MiqKuri6ZNm1apWgdP368nDhxQq677rqggAwXs0qrxZe9KhNnG6tdKJr3m0J1x44dNYtWUyiagu/FF18MiuidO3dW3qPvf+ihh4IiUos4s41XY9UiPVyYm2vXAjq8amziVBctwrXIbG9vl6lTp1aKVhOLsdDiVl9ayNoW/f39smDBgkpxq/8WZavmJmYTm27VHjFiRGWl1RTwZquw7a///cQTTwQuepz9so/T/t+9e3dwzXv37g0K9SFDhgQFs3HSQtuOOTyUXPI2y+HoEg/jaK0wji5tuWccZTk6aRsBBHwToGj1rUeIB4ECCLhOtve+cUxmd0ysusK/7/2JfG70R2IVraY40WLFTNjMqp59T6u9ImivrJpCzf53E0y91dZwMWgXSo2KVnMfabgAM9div1+vyxSaGpdZZTUx2quYpjC1MWsV4OF7WsNbKe3VVrMKq0WrrgqHi8mwrRanq1atCrYB20VnvZVRjdmsEtkFvF6//dI2Nm/eHNwX+/DDD8uUKVMq9+RGrShr0RoVs2nTJW+zHI4u8WjRyji6dG96rXHIOCrXOMpyjNI2Agj4I0DR6k9fEAkChRFwnWz/4j+Pyoz2j1Zd57df+ZncPva/pVK0agGlW+fuu+++qhVYsx3YLlp1BbLelmA7yLyK1qgHR4VjabZotVewddXUbG8OF62mSAzbxi1aowpbjd3eXh0uWvVa9X133HFHsJq6fPnyoDDWwtmstunWb3ultQxFK+MoWdHKOGrtcVSYP5wEigACTQlQtDbFx5sRKKeAa9Ea9ZU3SbYHm62fo0aNitwebBdQurqoBazeRxouWu0tqdqDjZ6sW69otVf3tIAyMdpbffX89VZaa20Prne9USutUduDzfXZ11grFnt7bVTRagpP2zZqe7DG9vGPf7xqe7Ce39yzaheq4ZXm8IjSY5966in56Ec/WtkObVajzRboY8eOBduoy7LSyjiKLloZR5furQ9/+GM+HGrVcVTOv8JcNQLlE6BoLV+fc8UINC3gWrT++vRx+e+dk6vO/79+8rTc2tYea6VVi7irr746KE6iHsRk7qk0DwDShzZNmDAhWFE1DzVq5kFMplC0tyWahxzpQ5Q0plOnTgXbWZMUrT/84Q8Dk127dsV+EFNU0aptmK3AGo/ZghsuzMP39GpBqcfffffdcvr06eDrg/Rlr1raW4j1Om3beg9/GjNmTDCRbvQgplqT7aiv67Ef/KSrry+88EKwPVk/NCjDSivjKLpoZRzVLlpbeRw1/QeNBhBAoBACFK2F6CaCRMAvAdeidc9rB+WOa6qfHrzpyMty5/gJsYrWegWJX0JE46OAS95meR0u8eg9rYyjLHuFthsJuORtozb5dwQQQKCRAEVrIyH+HQEELhNwmbSk8dTTLItWe7UwfMFmdZZUKLaAS95mecUu8TCOsuwR2o4j4JK3cdrlGAQQQKCeAEUr+YEAAokFXCYtzU62EwfJGxAICbjkbZaILvEwjrLsEdqOI+CSt3Ha5RgEEECAopUcQACBVAVcJi1P970q/7u3W26+9sNVsew6sl+Wf+KzcvvI61KNkcYQCAu45G2Wii7xMI6y7BHajiPgkrdx2uUYBBBAgKKVHEAAgVQFXCct3zu4V/791ImqWK67aoTMar8x1fhoDIEoAde8zUrTNR7GUVY9QrtxBFzzNk7bHIMAAgjUEmB7MLmBAAKJBZi0JCbjDR4I+Ja3vsXjQRcRQgEEyNsCdBIhItCCAhStLdipXBICWQswaclamPazEPAtb32LJwtz2mw9AfK29fqUK0KgCAIUrUXoJWJEwDMBJi2edQjhxBLwLW99iycWIgeVXoC8LX0KAIBALgIUrbmwc1IEii3g06Rl27ZtcujQIVm0aJEz6p49e+TIkSMyY8YMsb/6Zvr06bJy5UoZMmSIPProo3LbbbdJR0eH83l4Y74CPuWtSvgUD+Mo39ws0tl9ytsiuRErAgg0J0DR2pwf70aglAKtNGk5fvy4bNy4UebPny9nz56VhQsXytKlS4PidO3atTJlyhSZNGmS2MdpEcureAK+5a1v8TTTo4yjZvSK9d5WyttiyRMtAuUWoGgtd/9z9Qg4CeQxadECsr29vbIaumrVKlm3bp3s3LkzWGnVonPZsmXS1tYm69evD65ry5YtQcGpxaj+2/bt20VXT0+dOlUpTHWFafTo0cFxuuK6e/fumqu29rFOcLwpV4E88rbeBecRD+Mo1xRsiZPnkbctAcdFIIBAUwIUrU3x8WYEyimQx6TFLijtrYzmv+2iVbcK68+7u7uD7b07duyo/Hdvb68sWLBANm3aJKNGjRItfufMmROsrOo5tm7dKocPH5aenp6gwDXbg7WnGxW15cyG4lx1HnnrW9HKOCpOvvoaqW/jyFcn4kIAgXQFKFrT9aQ1BEohkMekRbcfrlixQpYvXx5s5zXbdsNFa1dXV7AaawpQPV7fZ36u7ZgtwMOHD6+0qf+tbT3xxBNB+7oFWFdnzfu0Y/V+182bNwertGwRLl6q55G3vhWtjKPi5a1vEfs2jnzzIR4EEMhGgKI1G1daRaClBfKatOjWxptuukmeffbZoHg1haa9PbiZotUUumZ1Vc+nL/OQJ4rWYqd1XnlbSy2veBhHxc7jvKPPK2/zvm7OjwAC+QpQtObrz9kRKKRAXpMWLRofeeSR4L5VU0g2WmlNsj3YXoXVrcPhlVa2BxcyXStB55W3vhWtjKNi53He0fs2jvL24PwIIDAwAhStA+PMWRBoKYG8Ji3mgUozZ84MHpykrzhFqx5X70FM+u+6pVhfWpjOnj07+O958+ZVPZTJfppwS3VoSS4mr7z1rWhlHJUk4TO6TN/GUUaXSbMIIOCZAEWrZx1COAgUQSCvSYuuEJmnBuvWYJeXFqVr1qwJ7lvVNuJ+lU3c41xi4j0DI5BX3vpWtDKOBibfWvUsvo2jVnXmuhBAoFqAopWMQACBxAJ5TFrMCujq1asrq6JxA9fV2CVLllQON1+FY36g/64vs9oa1S6rrHG1/T0uj7ytp5FHPIwjf/OzKJHlkbdFsSFOBBDIToCiNTtbWkagZQWYtLRs17b0hfmWt77F09Kdz8WlJkDepkZJQwggkECAojUBFocigMAlgcP/8Z/yJyM/JO9+17sgQaAQAu+8c0Fe63tdxn74Wm/iZRx50xUEElPAx3EUM3QOQwCBggtQtBa8AwkfgTwEXn/jpAwZfIVcuHhR/mjo+2XQoEF5hME5EWgocPHiRTl15k3RDD33X2/JNVd/oOF7BuoAxtFASXOeZgV8HkfNXhvvRwCBYghQtBajn4gSAa8E3nr7Hek//ju58srBcub35+S//uu8XLhw0asYCQYBFRj8vivkyve/T86eOy8jPvhH8t73vscbGMaRN11BIA0EfB5HdB4CCJRDgKK1HP3MVSKQusD5t96W/hOnKFhTl6XBtAV0wv3BDwyVIYPfl3bTTbfHOGqakAYGSMDncTRABJwGAQRyFKBozRGfUyOAAAIIIIAAAggggAACCNQXoGglQxBAAAEEEEAAAQQQQAABBLwVoGj1tmsIDAEEEEAAAQQQQAABBBBAgKKVHEAAAQQQQAABBBBAAAEEEPBWgKLV264hMAQQQAABBBBAAAEEEEAAAYpWcgABBBBAAAEEEEAAAQQQQMBbAYpWb7uGwBBAAAEEEEAAAQQQQAABBChayQEEEEAAAQQQQAABBBBAAAFvBShave0aAkMAAQQQQAABBBBAAAEEEKBoJQcQQAABBBBAAAEEEEAAAQS8FaBo9bZrCAwBBBBAAAEEEEAAAQQQQICilRxAAAEEEEAAAQQQQAABBBDwVoCi1duuITAEEEAAAQQQQAABBBBAAAGKVnIAAQQQQAABBBBAAAEEEEDAWwGKVm+7hsAQQAABBBBAAAEEEEAAAQQoWskBBBBAAAEEEEAAAQQQQAABbwUoWr3tGgJDAAEEEEAAAQQQQAABBBCgaCUHEEAAAQQQQAABBBBAAAEEvBWgaPW2awgMAQQQQAABBBBAAAEEEECAopUcQAABBBBAAAEEEEAAAQQQ8FaAotXbriEwBBBAAAEEEEAAAQQQQAABilZyAAEEEEAAAQQQQAABBBBAwFsBilZvu4bAEEAAAQQQQAABBBBAAAEEKFrJAQQQQAABBBBAAAEEEEAAAW8FKFq97RoCQwABBBBAAAEEEEAAAQQQoGglBxBAAAEEEEAAAQQQQAABBLwVoGj1tmsIDAEEEEAAAQQQQAABBBBAgKKVHEAAAQQQQAABBBBAAAEEEPBWgKLV264hMAQQQAABBBBAAAEEEEAAAYpWcgABBBBAAAEEEEAAAQQQQMBbAYpWb7uGwBBAAAEEEEAAAQQQQAABBChayQEEEEAAAQQQQAABBBBAAAFvBShave0aAkMAAQQQQAABBBBAAAEEEKBoJQcQQAABBBBAAAEEEEAAAQS8FaBo9bZrCAwBBBBAAAEEEEAAAQQQQICilRxAAAEEEEAAAQQQQAABBBDwVoCi1duuITAEEEAAAQQQQAABBBBAAAGKVnIAAQQQQAABBBBAAAEEEEDAWwGKVm+7hsAQQAABBBBAAAEEEEAAAQQoWskBBBBAAAEEEEAAAQQQQAABbwUoWr3tGgJDAAEEEEAAAQQQQAABBBCgaCUHEEAAAQQQQAABBBBAAAEEvBWgaPW2awgMAQQQQAABBBBAAAEEEECAopUcQAABBBBAAAEEEEAAAQQQ8FaAotXbriEwBBBAAAEEEEAAAQQQQAABilZyAAEEEEAAAQQQQAABBBBAwFsBilZvu4bAEEAAAQQQQAABBBBAAAEEKFrJAQQQQAABBBBAAAEEEEAAAW8FKFq97RoCQwABBBBAAAEEEEAAAQQQoGglBxBAAAEEEEAAAQQQQAABBLwVoGj1tmsIDAEEEEAAAQQQQAABBBBAgKKVHEAAAQQQQAABBBBAAAEEEPBWgKLV264hMAQQQAABBBBAAAEEEEAAAYpWcgABBBBAAAEEEEAAAQQQQMBbAYpWb7uGwBBAAAEEEEAAAQQQQAABBChayQEEEEAAAQQQQAABBBBAAAFvBShave0aAkMAAQQQQAABBBBAAAEEEKBoJQcQQAABBBBAAAEEEEAAAQS8FaBo9bZrCAwBBBBAAAEEEEAAAQQQQICilRxAAAEEEEAAAQQQQAABBBDwVoCi1duuITAEEEAAAQQQQAABBBBAAAGKVnIAAQQQQAABBBBAAAEEEEDAWwGKVm+7hsAQQAABBBBAAAEEEEAAAQQoWskBBBBAAAEEEEAAAQQQQAABbwUoWr3tGgJDAAEEEEAAAQQQQAABBBCgaCUHEEAAAQQQQAABBBBAAAEEvBWgaPW2awgMAQQQQAABBBBAAAEEEECAopUcQAABBBBAAAEEEEAAAQQQ8FaAotXbriEwBBBAAAEEEEAAAQQQQAABilZyAAEEEEAAAQQQQAABBBBAwFsBilZvu4bAEEAAAQQQQAABBBBAAAEEKFrJAQQQQAABBBBAAAEEEEAAAW8FKFq97RoCQwABBBBAAAEEEEAAAQQQoGglBxBAAAEEEEAAAQQQQAABBLwVoGj1tmsIDAEEEEAAAQQQQAABBBBAgKKVHEAAAQQQQAABBBBAAAEEEPBWgKLV264hMAQQQAABBBBAAAEEEEAAAYpWcgABBBBAAAEEEEAAAQQQQMBbAYpWb7uGwBBAAAEEEEAAAQQQQAABBChayQEEEEAAAQQQQAABBBBAAAFvBShave0aAkMAAQQQQAABBBBAAAEEEKBoJQcQQAABBBBAAAEEEEAAAQS8FaBo9bZrCAwBBBBAAAEEEEAAAQQQQICilRxAAAEEEEAAAQQQQAABBBDwVoCi1duuITAEEEAAAQQQQAABBBBAAAGKVnIAAQQQQAABBBBAAAEEEEDAWwGKVm+7hsAQQAABBBBAAAEEEEAAAQQoWskBBBBAAAEEEEAAAQQQQAABbwUoWr3tGgJDAAEEEEAAAQQQQAABBBCgaCUHEEAAAQQQQAABBBBAAAEEvBWgaPW2awgMAQQQQAABBBBAAAEEEECAopUcQAABBBBAAAEEEEAAAQQQ8FaAotXbriEwBBBAAAEEEEAAAQQQQAABilZyAAEEEEAAAQQQQAABBBBAwFsBilZvu4bAEEAAAQQQQAABBBBAAAEEKFrJAQQQQAABBBBAAAEEEEAAAW8FKFq97RoCQwABBBBAAAEEEEAAAQQQoGglBxBAAAEEEEAAAQQQQAABBLwVoGj1tmsIDAEEEEAAAQQQQAABBBBAgKKVHEAAAQQQQAABBBBAAAEEEPBWgKLV264hMAQQQAABBBBAAAEEEEAAAYpWcgABBBBAAAEEEEAAAQQQQMBbAYpWb7uGwBBAAAEEEEAAAQQQQAABBChayQEEEEAAAQQQQAABBBBAAAFvBShave0aAkMAAQQQQAABBBBAAAEEEKBoJQcQQAABBBBAAAEEEEAAAQS8FaBo9bZrCAwBBBBAAAEEEEAAAQQQQICilRxAAAEEEEAAAQQQQAABBBDwVoCi1duuITAEEEAAAQQQQAABBBBAAAGKVnIAAQQQQAABBBBAAAEEEEDAWwGKVm+7hsAQQAABBBBAAAEEEEAAAQQoWskBBBBAAAEEEEAAAQQQQAABbwUoWr3tGgJDAAEEEEAAAQQQQAABBBCgaCUHEEAAAQQQQAABBBBAAAEEvBWgaPW2awgMAQQQQAABBBBAAAEEEECAopUcQAABBBBAAAEEEEAAAQQQ8FaAotXbriEwBBBAAAEEEEAAAQQQQAABilZyAAEEEEAAAQQQQAABBBBAwFsBilZvu4bAEEAAAQQQQAABBBBAAAEEKFrJAQQQQAABBBBAAAEEEEAAAW8FKFq97RoCQwABBBBAAAEEEEAAAQQQoGglBxBAAAEEEEAAAQQQQAABBLwV+H9uLcRMsR+rJQAAAABJRU5ErkJggg==;" vertex="1" parent="1">
          <mxGeometry x="280" y="-10" width="941" height="739" as="geometry" />
        </mxCell>
        <mxCell id="2_r-YzMSc-Yv-g5JIegG-3" value="" style="edgeStyle=entityRelationEdgeStyle;fontSize=12;html=1;endArrow=ERoneToMany;rounded=0;exitX=0.17;exitY=0.5;exitDx=0;exitDy=0;exitPerimeter=0;" edge="1" parent="1" source="KEVvODekhNoehom56Cam-1">
          <mxGeometry width="100" height="100" relative="1" as="geometry">
            <mxPoint x="240.00000000000023" y="180" as="sourcePoint" />
            <mxPoint x="560" y="190" as="targetPoint" />
            <Array as="points">
              <mxPoint x="500" y="100" />
              <mxPoint x="480" y="110" />
              <mxPoint x="270" y="230" />
            </Array>
          </mxGeometry>
        </mxCell>
        <mxCell id="2_r-YzMSc-Yv-g5JIegG-9" style="edgeStyle=orthogonalEdgeStyle;rounded=0;orthogonalLoop=1;jettySize=auto;html=1;exitX=0.5;exitY=1;exitDx=0;exitDy=0;" edge="1" parent="1">
          <mxGeometry relative="1" as="geometry">
            <mxPoint x="1091.525" y="369" as="sourcePoint" />
            <mxPoint x="1091.525" y="369" as="targetPoint" />
          </mxGeometry>
        </mxCell>
      </root>
    </mxGraphModel>
  </diagram>
</mxfile>
